<?xml version="1.0" encoding="UTF-8"?>
<svg version="1.1" xmlns="http://www.w3.org/2000/svg" width="626" height="626">
<path d="M0 0 C206.58 0 413.16 0 626 0 C626 206.58 626 413.16 626 626 C419.42 626 212.84 626 0 626 C0 419.42 0 212.84 0 0 Z " fill="#A88906" transform="translate(0,0)"/>
<path d="M0 0 C3.29680965 0.65784963 5.84117922 1.89420573 8.75 3.5625 C9.54921875 4.01753906 10.3484375 4.47257813 11.171875 4.94140625 C11.77515625 5.29074219 12.3784375 5.64007813 13 6 C12.32307914 9.76450889 11.33001472 13.30844403 10.125 16.9375 C9.79757812 17.93652344 9.47015625 18.93554688 9.1328125 19.96484375 C8 23 8 23 6.546875 25.90234375 C4.8049124 29.39066785 3.45169418 32.96585617 2.125 36.625 C0.29812498 41.59533436 -1.60001617 46.5063066 -3.6875 51.375 C-5.19905431 54.92595298 -6.46671611 58.40748702 -7.5 62.125 C-8.48594037 65.64301451 -9.77678901 68.65423661 -11.5 71.875 C-14.02368338 76.6419575 -15.23129101 81.36541989 -16.32421875 86.62890625 C-16.54722656 87.41136719 -16.77023437 88.19382812 -17 89 C-17.99 89.495 -17.99 89.495 -19 90 C-19.82140057 91.86600781 -20.55622777 93.77037608 -21.25 95.6875 C-23.06943332 100.58225865 -24.98612312 105.3934349 -27.0625 110.1875 C-31.08981384 119.49938556 -34.75971721 128.93720017 -38.42895508 138.39428711 C-39.97448711 142.37522817 -41.53003677 146.35102628 -43.125 150.3125 C-45.07960707 155.16965662 -46.96330103 160.05302739 -48.828125 164.9453125 C-49.53171112 166.77932699 -50.24676905 168.60908869 -50.984375 170.4296875 C-52.55088837 174.34597093 -53 176.64671108 -53 181 C-30.56 181 -8.12 181 15 181 C15.33 127.21 15.66 73.42 16 18 C21.64021306 18.70502663 25.79114138 19.37223168 31 21 C31.92035099 29.99732177 32.13837212 38.90987258 32.11352539 47.94824219 C32.11324261 49.40812172 32.11340302 50.8680014 32.1139679 52.32788086 C32.11425233 56.25267767 32.10841333 60.1774433 32.10139394 64.10223293 C32.09510097 68.21815771 32.09455193 72.33408336 32.09336853 76.45001221 C32.09027262 84.22696581 32.0820829 92.00390519 32.07201904 99.78085256 C32.05870246 110.30195864 32.05334393 120.82306867 32.04751682 131.34418106 C32.03814167 147.89613134 32.01821119 164.44805162 32 181 C53.12 181 74.24 181 96 181 C95.29762906 176.08340344 94.55090178 171.98260466 93.125 167.3125 C92.63386719 165.66701172 92.63386719 165.66701172 92.1328125 163.98828125 C91.19284739 161.05288091 91.19284739 161.05288091 89.546875 159.16796875 C87.13430535 155.78671584 86.28285548 151.95693924 85.125 148 C82.83023866 140.450485 80.19476034 133.22117259 77 126 C76.07673954 123.85699543 75.1600468 121.71114918 74.25 119.5625 C73.63898438 118.14130859 73.63898438 118.14130859 73.015625 116.69140625 C72.04694942 114.12441596 71.45101248 111.70117256 71 109 C70.34 109 69.68 109 69 109 C68.63648438 107.85144531 68.27296875 106.70289063 67.8984375 105.51953125 C65.23753595 97.24971755 62.36964185 89.37819538 58.5703125 81.55078125 C56.23365369 76.2671423 54.42198906 70.81585582 52.62329102 65.32861328 C51.20195249 61.08206095 49.6189993 57.12814984 47.54296875 53.15625 C44.64317145 47.538064 42.7655775 41.70671019 40.875 35.6875 C40.21145597 33.58542327 39.54237179 31.4850856 38.8671875 29.38671875 C38.57956543 28.47108154 38.29194336 27.55544434 37.99560547 26.61206055 C37.05984437 23.91788924 37.05984437 23.91788924 35.39501953 21.37036133 C33.65888219 18.42038627 33.76524018 16.3648908 34 13 C33.34 13 32.68 13 32 13 C32 11.68 32 10.36 32 9 C32.66 9 33.32 9 34 9 C34.04125 8.38125 34.0825 7.7625 34.125 7.125 C35 5 35 5 37.75 3.75 C40.67499277 3.07500167 43.02676286 2.93932169 46 3 C46.941637 4.68519502 47.8780901 6.37328697 48.8125 8.0625 C49.33457031 9.00222656 49.85664063 9.94195312 50.39453125 10.91015625 C53.49941244 16.88573051 55.80555615 23.08847105 58 29.4375 C58.49919261 30.87397875 58.99919016 32.31017803 59.5 33.74609375 C59.74363281 34.44718262 59.98726562 35.14827148 60.23828125 35.87060547 C61.01639876 38.04584294 61.84908735 40.19504161 62.6875 42.34765625 C64 46 64 46 64 49 C64.66 49 65.32 49 66 49 C66.35191406 50.12535156 66.70382812 51.25070313 67.06640625 52.41015625 C69.96214681 61.48082764 73.20845458 70.10973111 77.38671875 78.66796875 C80.59322083 85.29059896 82.92419527 91.8507184 84.9375 98.9140625 C85.98136034 101.94586276 87.34090295 104.27189712 89 107 C89.79778779 109.06550537 90.54383687 111.15140251 91.25 113.25 C93.1319474 118.67543394 95.19892809 123.96305585 97.4375 129.25 C100.2045735 135.81993396 102.53863418 142.45319787 104.71923828 149.23779297 C106.75023151 155.46662506 109.15566987 161.49610985 111.72851562 167.51953125 C118.21889051 182.75780271 115.74547844 201.2419961 112 217 C111.70679115 218.36109256 111.41778763 219.72309725 111.1328125 221.0859375 C110.43934381 224.39477382 109.72736432 227.69848821 109 231 C108.34 231 107.68 231 107 231 C106.814375 232.9490625 106.814375 232.9490625 106.625 234.9375 C104.33778603 246.48875331 95.73208169 258.34973361 88 267 C86.8553125 268.30130859 86.8553125 268.30130859 85.6875 269.62890625 C73.64675211 282.51178978 57.81210596 290.9853546 41 296 C39.38544922 296.52787109 39.38544922 296.52787109 37.73828125 297.06640625 C33.73666288 298.06576549 30.03099783 298.30483207 25.9375 298.25 C25.19725586 298.24323242 24.45701172 298.23646484 23.69433594 298.22949219 C8.23899873 297.9443873 -5.55573414 294.55164606 -19.25 287.4375 C-20.00192627 287.04941162 -20.75385254 286.66132324 -21.52856445 286.26147461 C-26.87510848 283.37467457 -26.87510848 283.37467457 -28 280 C-28.84498047 279.80857422 -28.84498047 279.80857422 -29.70703125 279.61328125 C-33.07208805 278.71325754 -35.19937467 276.51051947 -37.6875 274.1875 C-38.48196533 273.44608765 -38.48196533 273.44608765 -39.29248047 272.68969727 C-51.69130965 260.81668622 -61.63722985 244.62899254 -66.37890625 228.08984375 C-66.81020996 226.03100178 -66.81020996 226.03100178 -68 225 C-68.14115161 222.32941149 -68.04247107 219.67567762 -68 217 C-68.66 217 -69.32 217 -70 217 C-70.34197019 213.87588408 -70.67192253 210.75060292 -71 207.625 C-71.09539062 206.75488281 -71.19078125 205.88476562 -71.2890625 204.98828125 C-72.10775964 197.09370169 -72.40318459 189.27786519 -71.5 181.375 C-71.4071875 180.53710938 -71.314375 179.69921875 -71.21875 178.8359375 C-71.11046875 177.92714844 -71.11046875 177.92714844 -71 177 C-70.34 177 -69.68 177 -69 177 C-68.92458984 175.28490234 -68.92458984 175.28490234 -68.84765625 173.53515625 C-67.9960701 165.87088093 -65.00898255 158.66077455 -62.4375 151.4375 C-61.91123655 149.93715483 -61.38583835 148.43650586 -60.86132812 146.93554688 C-59.58417463 143.28678312 -58.29535779 139.64233866 -57 136 C-56.34 136 -55.68 136 -55 136 C-54.7525 134.741875 -54.505 133.48375 -54.25 132.1875 C-52.45593826 124.13949065 -49.3391776 116.6437966 -45.9296875 109.1640625 C-45.02095072 107.04876764 -44.27116023 104.93968047 -43.5625 102.75 C-38.35649499 86.6817359 -38.35649499 86.6817359 -34.4375 81.0625 C-31.30890887 76.47324172 -30.18678246 71.29694599 -28.796875 65.9765625 C-28 63 -28 63 -27 61 C-26.34 61 -25.68 61 -25 61 C-24.86078125 60.26910156 -24.7215625 59.53820312 -24.578125 58.78515625 C-22.77975504 50.12138747 -19.51785796 42.09246377 -16 34 C-15.34 34 -14.68 34 -14 34 C-13.79375 32.824375 -13.5875 31.64875 -13.375 30.4375 C-12.37116933 25.88776388 -10.79713416 21.62571618 -9.0625 17.3125 C-8.80968262 16.68335693 -8.55686523 16.05421387 -8.29638672 15.40600586 C-6.04047242 9.90802872 -3.75142056 4.64461593 0 0 Z " fill="#FBFBFA" transform="translate(451,184)"/>
<path d="M0 0 C2.45731309 2.68450992 3.86203483 5.62286309 5.3125 8.9375 C7.18492543 13.18015581 9.13063244 17.37581277 11.125 21.5625 C13.27622104 26.19337278 14.88145597 30.69968624 16.2265625 35.61328125 C17.06569066 38.20271209 18.17352817 40.4657931 19.4375 42.875 C22.62210121 48.96434352 26 56.03650118 26 63 C26.66 63 27.32 63 28 63 C31.28427233 71.05345503 34.30980188 79.17959945 37.1875 87.38671875 C39.52503801 94.02678767 42.00839838 100.55284914 44.76171875 107.03125 C46.00866564 110.02077567 47.16849024 113.03221328 48.3125 116.0625 C50.77517758 122.54859669 53.47562213 128.92429749 56.23364258 135.28930664 C58.16661338 139.80335921 59.75048156 144.23801037 61 149 C62.71006303 155.06038822 64.66090103 160.87924466 67.1328125 166.67578125 C75.10585555 188.04497322 67.31474783 218.74310728 59 239 C56.45465494 244.30527526 53.32808246 249.1580818 50 254 C49.01580078 255.46566406 49.01580078 255.46566406 48.01171875 256.9609375 C43.74097581 263.19786831 39.57872785 268.76370109 33.625 273.5 C30.64252468 275.87887912 27.69981475 278.24953605 24.875 280.8125 C21.17133888 283.63050303 17.29729577 285.27631574 13 287 C12.05125 287.4125 11.1025 287.825 10.125 288.25 C8 289 8 289 5 289 C5 289.66 5 290.32 5 291 C-9.64424578 295.76097396 -25.80778298 297.06215037 -41 294 C-41.99 293.34 -42.98 292.68 -44 292 C-45.79630859 291.58041016 -45.79630859 291.58041016 -47.62890625 291.15234375 C-52.47113443 290.01632089 -56.58057613 287.91379545 -60.9375 285.5625 C-61.70384766 285.16740234 -62.47019531 284.77230469 -63.25976562 284.36523438 C-63.98744141 283.97787109 -64.71511719 283.59050781 -65.46484375 283.19140625 C-66.120896 282.84279541 -66.77694824 282.49418457 -67.45288086 282.13500977 C-69 281 -69 281 -70 278 C-71.32255205 277.62617521 -72.65811368 277.29703533 -74 277 C-75.58398438 275.86425781 -75.58398438 275.86425781 -77.09375 274.453125 C-77.92712891 273.6796875 -77.92712891 273.6796875 -78.77734375 272.890625 C-79.34582031 272.34921875 -79.91429687 271.8078125 -80.5 271.25 C-81.06847656 270.7240625 -81.63695312 270.198125 -82.22265625 269.65625 C-88.13520202 264.11409573 -92.5370657 257.85254205 -97 251.125 C-97.52078125 250.34769531 -98.0415625 249.57039062 -98.578125 248.76953125 C-107.56541357 235.26590322 -111.4106152 221.87701732 -114 206 C-114.1340625 205.19046875 -114.268125 204.3809375 -114.40625 203.546875 C-116.2505569 190.12441926 -116.96363706 173.90106534 -110 162 C-105.748107 154.36875231 -103.110378 146.50199664 -100.64697266 138.16699219 C-99.53208668 134.43275523 -98.35630543 130.71763612 -97.1875 127 C-96.764057 125.64591646 -96.34085455 124.29175766 -95.91796875 122.9375 C-95.46357422 121.4834375 -95.46357422 121.4834375 -95 120 C-94.34 120 -93.68 120 -93 120 C-92.690625 118.2365625 -92.690625 118.2365625 -92.375 116.4375 C-91.06497186 110.44196974 -88.68054622 104.90755682 -86.33984375 99.2578125 C-85.49278988 97.19821212 -84.70423391 95.11270173 -84 93 C-83.34 93 -82.68 93 -82 93 C-81.92523438 92.46375 -81.85046875 91.9275 -81.7734375 91.375 C-80.34033331 82.832575 -77.16393474 75.01928114 -74 67 C-73.34 67 -72.68 67 -72 67 C-72.0825 66.360625 -72.165 65.72125 -72.25 65.0625 C-71.95596727 61.46059901 -70.80587513 59.09814389 -69.2734375 55.859375 C-67.39124903 51.63311131 -65.84322472 47.29009123 -64.28271484 42.9362793 C-63.034173 39.51866051 -61.67211276 36.26891425 -60 33.03515625 C-57.91719223 28.97694786 -56.43322393 24.82329635 -55 20.5 C-49.51905545 3.9668211 -49.51905545 3.9668211 -44 0 C-40.09251765 0 -36.25639586 3.05868708 -33 5 C-32.64156377 10.12962068 -33.90705096 14.07253099 -35.8125 18.75 C-36.3710942 20.17215679 -36.92709477 21.5953351 -37.48046875 23.01953125 C-37.74649902 23.70354004 -38.0125293 24.38754883 -38.28662109 25.09228516 C-39.19030698 27.50891811 -39.92719801 29.95426052 -40.625 32.4375 C-41.48520858 35.45071617 -42.48965212 38.22242659 -43.8125 41.0625 C-45.82070347 45.38550289 -47.38220925 49.81265023 -48.9375 54.3125 C-51.7652468 62.46228388 -54.98310052 70.37816768 -58.43359375 78.28515625 C-61.38103253 85.07574896 -64.12563506 91.89491957 -66.68383789 98.83813477 C-68.47367836 103.66891592 -70.38912968 108.43425934 -72.375 113.1875 C-75.11034982 119.75065061 -77.71547764 126.35669231 -80.25 133 C-80.7437915 134.29006958 -80.7437915 134.29006958 -81.24755859 135.60620117 C-83.04361982 140.34047907 -84.73175773 145.09523604 -86.31201172 149.90576172 C-91.1450388 164.61750987 -91.1450388 164.61750987 -94.25 170.5 C-95.92183569 173.84367139 -96.48668684 176.34521031 -97 180 C-96.16791016 179.96970703 -95.33582031 179.93941406 -94.47851562 179.90820312 C-91.20537015 179.7918803 -87.93211516 179.68086294 -84.65869141 179.57275391 C-82.61998847 179.50404395 -80.5814699 179.42992536 -78.54296875 179.35546875 C-63.01010955 178.84974775 -47.57313762 179 -32 179 C-32 125.87 -32 72.74 -32 18 C-30.515 18.495 -30.515 18.495 -29 19 C-22.07 19.495 -22.07 19.495 -15 20 C-14.67 72.8 -14.34 125.6 -14 180 C7.78 180 29.56 180 52 180 C48.71209089 168.43244456 48.71209089 168.43244456 44.734375 157.20703125 C44 155 44 155 44 152 C43.34 152 42.68 152 42 152 C41.76925781 151.20078125 41.53851563 150.4015625 41.30078125 149.578125 C38.53359595 140.25938241 35.04064323 131.4557606 31 122.625 C28.27776038 116.56582149 26.19115225 110.26543533 24 104 C23.31694626 102.06092803 22.6298206 100.12328271 21.9375 98.1875 C21.65777344 97.39730469 21.37804687 96.60710937 21.08984375 95.79296875 C20.15807823 93.40511087 19.15035739 91.09169341 18.09375 88.7578125 C16.02278126 84.1417863 14.26809647 79.44838568 12.5625 74.6875 C10.21790038 68.22725921 7.75178437 61.85135821 5.06640625 55.5234375 C1 45.9010989 1 45.9010989 1 42 C0.34 42 -0.32 42 -1 42 C-1.37511719 41.04480469 -1.75023437 40.08960938 -2.13671875 39.10546875 C-2.6529481 37.79920321 -3.16992974 36.49323482 -3.6875 35.1875 C-3.95860596 34.50333008 -4.22971191 33.81916016 -4.5090332 33.11425781 C-6.11653622 29.09526519 -7.82617093 25.159926 -9.6875 21.25 C-12.47798139 15.23696269 -15 8.69492442 -15 2 C-13.25364835 1.46706165 -11.50272348 0.94909337 -9.75 0.4375 C-8.77546875 0.14746094 -7.8009375 -0.14257812 -6.796875 -0.44140625 C-3.95708973 -1.00857007 -2.61162757 -1.19978617 0 0 Z " fill="#FBFBFA" transform="translate(170,186)"/>
<path d="M0 0 C1.30324219 0.00644531 2.60648437 0.01289062 3.94921875 0.01953125 C7.3125 0.1875 7.3125 0.1875 10.3125 1.1875 C10.3125 1.8475 10.3125 2.5075 10.3125 3.1875 C10.869375 3.27644531 11.42625 3.36539063 12 3.45703125 C18.78305969 5.59965315 25.04853538 12.05124652 28.3125 18.1875 C29.38381897 20.50057505 30.35705874 22.82164545 31.3125 25.1875 C31.6425 25.8475 31.9725 26.5075 32.3125 27.1875 C33.65838541 43.34664323 33.56143707 58.45439307 22.93359375 71.5390625 C20.32543472 74.19121457 17.4032629 76.1269914 14.3125 78.1875 C13.9825 78.8475 13.6525 79.5075 13.3125 80.1875 C15.6225 80.1875 17.9325 80.1875 20.3125 80.1875 C20.3125 82.1675 20.3125 84.1475 20.3125 86.1875 C19.60222656 86.36925781 18.89195312 86.55101562 18.16015625 86.73828125 C17.24105469 86.98964844 16.32195312 87.24101562 15.375 87.5 C14.45847656 87.74363281 13.54195312 87.98726563 12.59765625 88.23828125 C11.84355469 88.55152344 11.08945312 88.86476563 10.3125 89.1875 C9.9825 90.1775 9.6525 91.1675 9.3125 92.1875 C8.6525 92.1875 7.9925 92.1875 7.3125 92.1875 C7.3125 93.5075 7.3125 94.8275 7.3125 96.1875 C7.9725 96.1875 8.6325 96.1875 9.3125 96.1875 C9.42207031 96.79078125 9.53164063 97.3940625 9.64453125 98.015625 C9.80308594 98.81484375 9.96164062 99.6140625 10.125 100.4375 C10.27582031 101.22640625 10.42664063 102.0153125 10.58203125 102.828125 C11.16788246 105.22712538 11.16788246 105.22712538 12.7277832 106.96337891 C14.609512 109.60435093 15.4250684 112.04135418 16.3984375 115.1328125 C16.77226562 116.29296875 17.14609375 117.453125 17.53125 118.6484375 C18.29464957 121.06758885 19.05767787 123.48685739 19.8203125 125.90625 C21.84192152 132.17877663 24.06976471 137.98520729 27.13867188 143.81494141 C29.12757547 147.83494247 30.47776722 152.05833713 31.875 156.3125 C33.7064592 161.86211884 35.66873196 167.07702642 38.36889648 172.26269531 C39.90968199 175.40565855 40.98879659 178.67422058 42.0625 182 C42.28292969 182.65419922 42.50335937 183.30839844 42.73046875 183.98242188 C43.67121219 186.84263251 44.3125 189.15584143 44.3125 192.1875 C44.9725 192.1875 45.6325 192.1875 46.3125 192.1875 C46.69921875 193.26128906 47.0859375 194.33507812 47.484375 195.44140625 C48.01008646 196.87772507 48.53614683 198.31391622 49.0625 199.75 C49.44148438 200.80670898 49.44148438 200.80670898 49.828125 201.88476562 C51.12103674 205.39178873 52.50102787 208.66833072 54.390625 211.8984375 C58.92735189 219.66251075 61.0343507 228.47529561 63.28515625 237.12109375 C64.11425971 240.13719455 64.11425971 240.13719455 65.76171875 242.1015625 C68.02094022 245.14041455 68.96105045 248.55017706 70.0625 252.125 C70.29582031 252.82818359 70.52914062 253.53136719 70.76953125 254.25585938 C72.05543769 258.36382995 72.33082729 261.04663045 71.3125 265.1875 C63.26324899 265.21064421 55.21401183 265.22842572 47.16473579 265.23931217 C43.4273575 265.24453644 39.69000193 265.25162584 35.95263672 265.26293945 C32.34760184 265.2737845 28.74258884 265.27978028 25.13753891 265.28237724 C23.76039154 265.28422857 22.38324541 265.2878436 21.00610733 265.29323006 C19.08106906 265.30046181 17.15600888 265.30090824 15.23095703 265.30102539 C14.13397491 265.303246 13.0369928 265.30546661 11.9067688 265.30775452 C9.3125 265.1875 9.3125 265.1875 7.3125 264.1875 C6.9825 211.3875 6.6525 158.5875 6.3125 104.1875 C4.0025 103.8575 1.6925 103.5275 -0.6875 103.1875 C-3.37950063 102.59551912 -6.02064892 101.88930292 -8.6875 101.1875 C-8.68657821 102.02663657 -8.68565641 102.86577314 -8.68470669 103.7303381 C-8.66265333 124.11801315 -8.64608936 144.50568617 -8.63568783 164.89337063 C-8.63052445 174.75256719 -8.62348095 184.6117558 -8.61206055 194.47094727 C-8.60211499 203.06097817 -8.59564688 211.65100331 -8.59341151 220.24103981 C-8.59210418 224.79231195 -8.58901695 229.34356764 -8.58176994 233.89483452 C-8.57501175 238.17354819 -8.57288263 242.45223853 -8.57439232 246.73095703 C-8.5741159 248.30600677 -8.57210959 249.88105723 -8.56829453 251.45610237 C-8.5633604 253.59714252 -8.56450065 255.73809315 -8.56724548 257.87913513 C-8.56632369 259.08023139 -8.5654019 260.28132765 -8.56445217 261.51882076 C-8.6875 264.1875 -8.6875 264.1875 -9.6875 265.1875 C-11.79887901 265.28698193 -13.91362286 265.31549638 -16.02734375 265.31689453 C-17.02001755 265.31952301 -17.02001755 265.31952301 -18.03274536 265.32220459 C-20.2301899 265.32662217 -22.42755458 265.32368547 -24.625 265.3203125 C-26.14575211 265.32098557 -27.66650412 265.32195561 -29.18725586 265.32321167 C-32.37842836 265.32468851 -35.56957292 265.32253452 -38.76074219 265.31787109 C-42.8601453 265.3121738 -46.95948296 265.31545288 -51.05888367 265.32144356 C-54.20032244 265.32504954 -57.34174558 265.32391042 -60.48318481 265.32131577 C-61.99512744 265.3206466 -63.50707146 265.32147457 -65.01901245 265.32379532 C-67.12859887 265.32632245 -69.23807787 265.32248044 -71.34765625 265.31689453 C-72.55043213 265.31609894 -73.75320801 265.31530334 -74.99243164 265.31448364 C-77.6875 265.1875 -77.6875 265.1875 -78.6875 264.1875 C-78.4539564 257.99859468 -76.60343044 253.21053006 -74.13671875 247.5703125 C-72.58155579 243.94020167 -71.18043019 240.26577661 -69.8125 236.5625 C-65.28688994 224.36919239 -60.58748592 212.23549407 -55.6875 200.1875 C-55.43500488 199.56520508 -55.18250977 198.94291016 -54.92236328 198.30175781 C-51.35138368 189.51384794 -47.71429756 180.77923857 -43.6875 172.1875 C-43.0275 172.1875 -42.3675 172.1875 -41.6875 172.1875 C-41.61273438 171.47207031 -41.53796875 170.75664062 -41.4609375 170.01953125 C-40.50119652 162.74620013 -38.43307287 156.97573261 -35.19921875 150.4140625 C-33.75420488 147.3298727 -32.65184585 144.30649466 -31.625 141.0625 C-30.40967635 137.22647845 -29.03914868 133.63418436 -27.3125 130 C-24.76346898 124.58821106 -22.80585822 119.04219036 -20.85473633 113.39599609 C-19.21557924 108.65758348 -17.46867781 103.98792538 -15.56640625 99.34765625 C-14.19948036 95.98805618 -12.94715408 92.58856603 -11.6875 89.1875 C-12.368125 88.94 -13.04875 88.6925 -13.75 88.4375 C-17.25615083 86.94552092 -20.40370368 85.11914489 -23.6875 83.1875 C-23.6875 82.5275 -23.6875 81.8675 -23.6875 81.1875 C-20.6875 79.1875 -20.6875 79.1875 -16.6875 79.1875 C-18.06496403 75.19071317 -19.91520249 72.41705383 -22.625 69.1875 C-26.56145302 64.47847209 -26.56145302 64.47847209 -27.890625 61.41015625 C-29.62846944 58.74597864 -29.62846944 58.74597864 -33.58203125 58.62109375 C-35.22126374 58.6038262 -36.86078085 58.60650962 -38.5 58.625 C-46.28352732 58.48034341 -53.71940666 57.73586892 -61.375 56.3125 C-62.27001221 56.15064209 -63.16502441 55.98878418 -64.0871582 55.82202148 C-69.79948275 54.72483231 -75.21954856 53.16723253 -80.6875 51.1875 C-80.6875 50.5275 -80.6875 49.8675 -80.6875 49.1875 C-81.27015625 49.01734375 -81.8528125 48.8471875 -82.453125 48.671875 C-100.53234155 43.32770407 -100.53234155 43.32770407 -104.63671875 41.15625 C-108.36309859 39.39597914 -112.47676541 38.88144966 -116.49609375 38.06640625 C-122.11948365 36.51773706 -122.11948365 36.51773706 -124.6875 34.1875 C-125.06609559 31.24656948 -125.16525614 28.91105042 -125 26 C-124.97744141 25.25041016 -124.95488281 24.50082031 -124.93164062 23.72851562 C-124.87279157 21.8806553 -124.78310938 20.03382333 -124.6875 18.1875 C-117.59022572 18.07941968 -110.72655044 18.24895994 -103.6875 19.1875 C-103.6875 19.8475 -103.6875 20.5075 -103.6875 21.1875 C-102.49125 21.27 -101.295 21.3525 -100.0625 21.4375 C-86.82251555 22.91554858 -74.03378917 28.36295685 -61.78125 33.35546875 C-58.16664115 34.79187115 -55.23256796 35.35426533 -51.36328125 35.50390625 C-49.82124023 35.56674805 -49.82124023 35.56674805 -48.24804688 35.63085938 C-47.17619141 35.67017578 -46.10433594 35.70949219 -45 35.75 C-43.37481445 35.81477539 -43.37481445 35.81477539 -41.71679688 35.88085938 C-39.04049209 35.98696838 -36.36409474 36.08902361 -33.6875 36.1875 C-33.59770874 35.29236694 -33.59770874 35.29236694 -33.50610352 34.37915039 C-32.9566666 29.13636271 -32.07482574 24.27436106 -30.6875 19.1875 C-30.0275 19.1875 -29.3675 19.1875 -28.6875 19.1875 C-28.2853125 18.383125 -28.2853125 18.383125 -27.875 17.5625 C-27.483125 16.77875 -27.09125 15.995 -26.6875 15.1875 C-26.3575 14.259375 -26.0275 13.33125 -25.6875 12.375 C-20.020328 3.34294462 -10.23056273 -0.11197631 0 0 Z " fill="#A88906" transform="translate(475.6875,100.8125)"/>
<path d="M0 0 C7.79861424 5.88440893 12.72419205 12.67257614 15.8125 21.9375 C15.8810495 23.83220816 15.89730372 25.7291834 15.875 27.625 C15.86597656 28.61886719 15.85695313 29.61273438 15.84765625 30.63671875 C15.83605469 31.39597656 15.82445312 32.15523437 15.8125 32.9375 C33.14492346 33.04532027 33.14492346 33.04532027 49.73828125 28.77734375 C51.8125 27.9375 51.8125 27.9375 54.8125 27.9375 C54.8125 27.2775 54.8125 26.6175 54.8125 25.9375 C62.24540753 23.03233032 69.70511679 20.81848824 77.4296875 18.8671875 C80.69248621 18.05088224 80.69248621 18.05088224 83.20849609 16.92114258 C85.84687228 15.92451613 88.0598416 15.53281943 90.859375 15.26953125 C91.78621094 15.18123047 92.71304688 15.09292969 93.66796875 15.00195312 C94.62316406 14.91880859 95.57835937 14.83566406 96.5625 14.75 C97.53316406 14.65525391 98.50382813 14.56050781 99.50390625 14.46289062 C104.81256554 13.97657289 104.81256554 13.97657289 106.8125 13.9375 C107.8125 14.9375 107.8125 14.9375 107.91015625 18.53515625 C107.9034822 20.02346867 107.89152183 21.51176432 107.875 23 C107.87048828 23.75861328 107.86597656 24.51722656 107.86132812 25.29882812 C107.8495068 27.17841871 107.83157078 29.05796899 107.8125 30.9375 C107.1525 30.9375 106.4925 30.9375 105.8125 30.9375 C105.8125 31.5975 105.8125 32.2575 105.8125 32.9375 C100.52992602 34.92314837 95.70656587 36.27562132 90.05078125 36.53125 C86.98668233 37.08738663 84.58149742 38.52713893 81.8125 39.9375 C79.66103582 40.67119106 77.49329977 41.35874102 75.3125 42 C72.06474858 42.96272631 68.84875704 43.92462157 65.65625 45.05859375 C62.8125 45.9375 62.8125 45.9375 58.8125 45.9375 C58.8125 46.5975 58.8125 47.2575 58.8125 47.9375 C57.98105469 48.20304687 57.14960938 48.46859375 56.29296875 48.7421875 C55.20628906 49.09539062 54.11960938 49.44859375 53 49.8125 C51.92105469 50.16054687 50.84210938 50.50859375 49.73046875 50.8671875 C46.67934198 51.85709653 46.67934198 51.85709653 43.8125 53.9375 C40.05210254 54.87759937 36.47521521 54.97045477 32.625 54.9375 C31.67882812 54.93878906 30.73265625 54.94007813 29.7578125 54.94140625 C27.79398074 54.9388017 25.82994241 54.90492183 23.8671875 54.83984375 C18.28723218 54.85538376 18.28723218 54.85538376 13.87255859 57.92431641 C12.36948782 60.20577131 11.09934612 62.53043018 9.8125 64.9375 C9.02875 65.72125 8.245 66.505 7.4375 67.3125 C4.81178149 71.55404529 5.50613431 76.07819976 5.8125 80.9375 C4.20993892 81.44262244 2.60538208 81.94141627 1 82.4375 C0.10667969 82.7159375 -0.78664063 82.994375 -1.70703125 83.28125 C-4.1875 83.9375 -4.1875 83.9375 -7.1875 83.9375 C-4.70473578 93.20941592 -2.08460555 101.82965763 2.453125 110.34375 C4.72292228 114.67462757 6.8125 118.98353878 6.8125 123.9375 C7.4725 123.9375 8.1325 123.9375 8.8125 123.9375 C9.03389648 124.55681396 9.25529297 125.17612793 9.48339844 125.81420898 C10.50624567 128.66908098 11.53433967 131.52203739 12.5625 134.375 C12.91054687 135.34888672 13.25859375 136.32277344 13.6171875 137.32617188 C15.51041589 142.56760973 17.54248828 147.67592408 19.85253906 152.74633789 C21.86778309 157.34624 23.47923063 162.10510675 25.16796875 166.83203125 C26.60730712 170.8113785 28.12288052 174.70549236 29.875 178.55859375 C31.65382872 182.4821278 33.02223037 186.38944506 34.3125 190.5 C36.06133113 195.92749978 38.11816313 200.91970665 40.8125 205.9375 C45.23724092 214.75227799 48.01028289 224.25285855 49.8125 233.9375 C50.4725 233.9375 51.1325 233.9375 51.8125 233.9375 C53.15862697 237.66217248 54.48712271 241.39289875 55.8125 245.125 C56.1940625 246.18009766 56.575625 247.23519531 56.96875 248.32226562 C57.3296875 249.34384766 57.690625 250.36542969 58.0625 251.41796875 C58.39765625 252.35535889 58.7328125 253.29274902 59.078125 254.25854492 C59.81961656 256.96346077 59.86731797 259.15164298 59.8125 261.9375 C51.22453294 262.09109722 42.63649714 262.23927886 34.04831791 262.3804636 C30.06088695 262.44618668 26.0735066 262.51380563 22.08618164 262.58569336 C18.24131571 262.65494398 14.39639669 262.7192982 10.55138969 262.78019524 C9.08128295 262.80435154 7.61120457 262.8303002 6.14116096 262.85803413 C4.08902554 262.89644963 2.03688351 262.92860609 -0.01538086 262.95922852 C-1.18564316 262.97921402 -2.35590546 262.99919952 -3.56163025 263.01979065 C-6.1875 262.9375 -6.1875 262.9375 -7.1875 261.9375 C-7.28431822 259.87455722 -7.30936923 257.80823958 -7.30775452 255.74302673 C-7.30860894 255.08880393 -7.30946337 254.43458113 -7.31034368 253.76053339 C-7.31200028 251.55248657 -7.30647421 249.34451452 -7.30102539 247.13647461 C-7.30074353 245.55999249 -7.30090123 243.98351024 -7.3014679 242.4070282 C-7.30175592 238.11382451 -7.2958584 233.82064851 -7.28889394 229.52745128 C-7.28266121 225.04577317 -7.28205667 220.56409449 -7.28086853 216.08241272 C-7.27775497 207.58969091 -7.26954126 199.09698191 -7.25951904 190.60426575 C-7.24835866 180.93816461 -7.24284764 171.27206288 -7.23782361 161.60595691 C-7.22735866 141.71646412 -7.20975875 121.82698286 -7.1875 101.9375 C-8.17492187 101.94910156 -9.16234375 101.96070313 -10.1796875 101.97265625 C-11.46101563 101.98167969 -12.74234375 101.99070312 -14.0625 102 C-15.33867187 102.01160156 -16.61484375 102.02320313 -17.9296875 102.03515625 C-21.1875 101.9375 -21.1875 101.9375 -23.1875 100.9375 C-23.18657821 101.76117537 -23.18565641 102.58485075 -23.18470669 103.43348598 C-23.16265321 123.44562694 -23.14608931 143.45776581 -23.13568783 163.46991634 C-23.13052447 173.14751051 -23.12348103 182.82509658 -23.11206055 192.50268555 C-23.10211491 200.93450331 -23.09564686 209.36631521 -23.09341151 217.79813868 C-23.09210419 222.26557392 -23.08901705 226.7329924 -23.08176994 231.20042229 C-23.07501162 235.4003416 -23.07288265 239.60023713 -23.07439232 243.80016136 C-23.07411591 245.34618509 -23.07210967 246.89220956 -23.06829453 248.43822861 C-23.0633602 250.53985776 -23.06450072 252.64139572 -23.06724548 254.74302673 C-23.06632369 255.92199996 -23.0654019 257.10097319 -23.06445217 258.31567287 C-23.1875 260.9375 -23.1875 260.9375 -24.1875 261.9375 C-26.21244231 262.03159479 -28.2406987 262.05493122 -30.26782227 262.05102539 C-32.21973228 262.05091209 -32.21973228 262.05091209 -34.21107483 262.05079651 C-35.64201902 262.04568909 -37.07296282 262.04047308 -38.50390625 262.03515625 C-39.9597926 262.03329203 -41.41567957 262.03186815 -42.87156677 262.03086853 C-46.71029379 262.02704365 -50.54898319 262.01721364 -54.38769531 262.00616455 C-58.30207816 261.99594978 -62.21646706 261.99137077 -66.13085938 261.98632812 C-73.81642343 261.97559134 -81.50195645 261.95851529 -89.1875 261.9375 C-89.36670356 257.2118357 -88.65953514 254.57976174 -86.3984375 250.40234375 C-83.51893204 244.54115683 -81.57117271 238.18795962 -79.55224609 231.98608398 C-77.22949737 224.86885926 -74.59332438 217.87347584 -71.9375 210.875 C-71.69383698 210.23132477 -71.45017395 209.58764954 -71.1991272 208.92446899 C-67.94322998 200.33746534 -64.51451632 191.86870087 -60.73828125 183.49609375 C-58.75566733 178.94656912 -57.0311398 174.32284962 -55.31958008 169.66625977 C-53.11561344 163.68152291 -50.67096651 157.81136448 -48.1875 151.9375 C-46.23795696 147.27554924 -44.4022999 142.59081161 -42.74609375 137.81640625 C-42.48884521 137.07543701 -42.23159668 136.33446777 -41.96655273 135.57104492 C-41.46197022 134.10821419 -40.96245089 132.64362314 -40.46899414 131.17700195 C-39.24378085 127.61369062 -37.89822764 124.26037049 -36.16015625 120.9140625 C-34.15704641 117.03262046 -32.84063603 113.12294245 -31.625 108.9375 C-30.34801156 104.66709319 -29.06491441 100.4416305 -27.375 96.3125 C-26.18875085 92.94105504 -25.92184154 90.47961276 -26.1875 86.9375 C-29.1575 85.2875 -32.1275 83.6375 -35.1875 81.9375 C-34.6615625 80.8546875 -34.6615625 80.8546875 -34.125 79.75 C-33.04765398 76.51796193 -33.04372794 75.12372217 -34.1875 71.9375 C-34.78175781 71.39738281 -35.37601563 70.85726562 -35.98828125 70.30078125 C-38.95465956 67.11311007 -40.4711109 63.62916178 -42.25 59.6875 C-42.58837891 58.96175781 -42.92675781 58.23601562 -43.27539062 57.48828125 C-44.2760942 55.31654157 -45.24072343 53.13324755 -46.1875 50.9375 C-46.48462891 50.25413574 -46.78175781 49.57077148 -47.08789062 48.86669922 C-50.82205586 39.71533346 -50.3536575 29.29139398 -47.11328125 20.015625 C-45.8032098 17.0748739 -44.06582838 14.54292323 -42.1875 11.9375 C-41.94 11.133125 -41.6925 10.32875 -41.4375 9.5 C-38.83505363 4.16498493 -33.69833497 0.2365733 -28.25 -2 C-19.04787605 -4.50387082 -8.31848521 -5.06392054 0 0 Z " fill="#A88909" transform="translate(162.1875,104.0625)"/>
<path d="M0 0 C5 5 5 5 6.375 6.6875 C8.9192497 8.74247091 11.87553374 9.18995319 15 10 C16 11 16 11 16.1241985 13.06704336 C16.12381878 13.98710572 16.12343906 14.90716808 16.12304783 15.85511112 C16.12503888 16.91257103 16.12702993 17.97003094 16.12908131 19.05953509 C16.12471205 20.82360182 16.12471205 20.82360182 16.12025452 22.62330627 C16.12110894 23.86147706 16.12196337 25.09964785 16.12284368 26.37533897 C16.12421194 29.82777739 16.12106421 33.28015983 16.11606562 36.73259151 C16.11176462 40.44971842 16.11320729 44.16684347 16.1139679 47.88397217 C16.11449335 54.32935055 16.11134428 60.77471884 16.10573006 67.22009468 C16.09761801 76.53913349 16.09500014 85.85816741 16.09374207 95.17720937 C16.09155108 110.2951443 16.08488974 125.41307385 16.07543945 140.53100586 C16.06626654 155.22045871 16.05918512 169.9099101 16.05493164 184.59936523 C16.05466892 185.50416217 16.05440619 186.40895911 16.05413551 187.34117413 C16.05283051 191.88007708 16.05156679 196.41898004 16.05032361 200.957883 C16.03994954 238.63859251 16.02225586 276.31929575 16 314 C21.61 314 27.22 314 33 314 C33 213.68 33 113.36 33 10 C35.97 9.01 38.94 8.02 42 7 C45.0043064 4.50138093 45.0043064 4.50138093 47 2 C50 3 50 3 51 5 C51.09889941 6.68835865 51.13387219 8.38061717 51.1386652 10.07186317 C51.14413964 11.1522145 51.14961409 12.23256583 51.15525442 13.34565508 C51.15623253 14.54213242 51.15721064 15.73860976 51.15821838 16.97134399 C51.16562535 18.86663379 51.16562535 18.86663379 51.17318195 20.80021226 C51.18679881 24.3187766 51.19419164 27.83733124 51.20060861 31.35591507 C51.20859702 35.14597464 51.22230014 38.93601394 51.23532104 42.72605896 C51.25710598 49.29636629 51.27524307 55.86667565 51.29092598 62.43700027 C51.31360627 71.93667086 51.34175163 81.43631901 51.37124526 90.93597059 C51.41894378 106.34727779 51.46220182 121.75859415 51.50268555 137.16992188 C51.54202899 152.14356194 51.58345244 167.11719386 51.62768555 182.09082031 C51.63040982 183.0132765 51.63313409 183.93573269 51.63594092 184.88614209 C51.64962021 189.51367894 51.66334052 194.14121567 51.67708123 198.76875234 C51.7910815 237.17915129 51.89788299 275.58956772 52 314 C53.01755371 314.36895386 53.01755371 314.36895386 54.05566406 314.74536133 C54.94995117 315.0833374 55.84423828 315.42131348 56.765625 315.76953125 C57.65024414 316.09800049 58.53486328 316.42646973 59.44628906 316.76489258 C63.76429549 318.85330505 66.23704751 322.17802886 69 326 C69.53496094 326.71542969 70.06992187 327.43085938 70.62109375 328.16796875 C74.38154145 333.46635516 76.78500168 338.9188228 79 345 C79.35835938 345.77859375 79.71671875 346.5571875 80.0859375 347.359375 C81.22886466 350.66116457 81.33739281 353.51005292 81.375 357 C81.40335937 358.19625 81.43171875 359.3925 81.4609375 360.625 C80.92105186 364.57806096 79.8215011 366.23094316 77 369 C76.34 369 75.68 369 75 369 C75 369.66 75 370.32 75 371 C72.72540372 372.13729814 71.47797159 372.12797515 68.95205688 372.13371277 C68.10525864 372.13797775 67.25846039 372.14224274 66.38600159 372.14663696 C64.9895768 372.14595718 64.9895768 372.14595718 63.56494141 372.14526367 C62.5859639 372.14862228 61.60698639 372.1519809 60.5983429 372.15544128 C57.34940333 372.16497069 54.10051519 372.16689543 50.8515625 372.16796875 C48.59955829 372.17118008 46.3475543 372.17454406 44.09555054 372.17805481 C39.3693595 372.18405116 34.64318676 372.1858942 29.91699219 372.18530273 C23.85501164 372.18520111 17.79314823 372.19885104 11.73119545 372.21607494 C7.07812967 372.22718316 2.4250923 372.2292223 -2.22798538 372.22869301 C-4.46313506 372.22987499 -6.69828542 372.23430894 -8.93342209 372.24202538 C-12.05774937 372.25180088 -15.18182112 372.24895674 -18.30615234 372.24291992 C-19.23305374 372.24853943 -20.15995514 372.25415894 -21.11494446 372.25994873 C-22.3936013 372.253657 -22.3936013 372.253657 -23.6980896 372.24723816 C-24.80587548 372.24805531 -24.80587548 372.24805531 -25.93604088 372.24888897 C-28.3788132 371.95431962 -29.92064272 371.31072172 -32 370 C-35.62719735 364.96222591 -36.6902873 361.22354266 -36 355 C-35.89365234 353.74703125 -35.89365234 353.74703125 -35.78515625 352.46875 C-34.76329262 344.47754679 -31.24876236 338.72076954 -27 332 C-26.36734319 330.75385781 -25.74085951 329.50452862 -25.125 328.25 C-20.02301581 320.44696536 -14.16490732 316.3667835 -5.08984375 314.375 C-4.40019531 314.25125 -3.71054687 314.1275 -3 314 C-2.2042984 310.49843876 -1.87677806 307.27571552 -1.8825388 303.68786812 C-1.88178114 302.6302443 -1.88102349 301.57262049 -1.88024288 300.48294747 C-1.88665851 298.74935646 -1.88665851 298.74935646 -1.89320374 296.98074341 C-1.89376044 295.74817743 -1.89431715 294.51561146 -1.89489073 293.24569499 C-1.89740221 289.82720547 -1.90440255 286.40877782 -1.91325247 282.99030232 C-1.92168455 279.30242764 -1.92428186 275.61454853 -1.92750549 271.92666626 C-1.93380363 265.53648319 -1.94354397 259.1463129 -1.95540047 252.75613785 C-1.97237663 243.50939489 -1.98192999 234.2626551 -1.9892792 225.0159 C-2.00122621 210.00359752 -2.0161755 194.99130004 -2.03442383 179.97900391 C-2.03551395 179.08050193 -2.03660407 178.18199995 -2.03772723 177.25627063 C-2.05333792 164.50505445 -2.07193187 151.75384433 -2.0917251 139.00263403 C-2.09381507 137.65579064 -2.09381507 137.65579064 -2.09594727 136.28173828 C-2.09803756 134.93653644 -2.09803756 134.93653644 -2.10017008 133.56415881 C-2.12320568 118.61051631 -2.13852082 103.65687774 -2.14750665 88.70322025 C-2.15335958 79.48006332 -2.1657323 70.25696033 -2.18647944 61.03382467 C-2.20018937 54.71377064 -2.20668054 48.39373546 -2.20748956 42.07366671 C-2.20819344 38.42725127 -2.21218637 34.78091632 -2.2249527 31.13452148 C-2.23872246 27.18073291 -2.23699011 23.22703706 -2.23377991 19.27322388 C-2.24028771 18.12195798 -2.24679551 16.97069208 -2.25350052 15.78453934 C-2.23558082 10.12525089 -1.92520795 5.33946226 0 0 Z " fill="#FAFAF8" transform="translate(287,181)"/>
<path d="M0 0 C1.30324219 0.00644531 2.60648437 0.01289062 3.94921875 0.01953125 C7.3125 0.1875 7.3125 0.1875 10.3125 1.1875 C10.3125 1.8475 10.3125 2.5075 10.3125 3.1875 C10.869375 3.27644531 11.42625 3.36539063 12 3.45703125 C18.78305969 5.59965315 25.04853538 12.05124652 28.3125 18.1875 C29.38381897 20.50057505 30.35705874 22.82164545 31.3125 25.1875 C31.6425 25.8475 31.9725 26.5075 32.3125 27.1875 C33.55612881 40.9892068 33.30524111 55.19419475 24.0703125 66.30859375 C16.03542391 74.89699689 9.76285549 79.13003902 -2.125 79.6875 C-9.89779144 79.45196087 -15.5390989 77.46484586 -20.9765625 71.8046875 C-23.6995428 68.48760241 -26.1844295 65.37977709 -27.859375 61.41015625 C-29.62950478 58.74995271 -29.62950478 58.74995271 -33.58203125 58.62109375 C-35.22126374 58.6038262 -36.86078085 58.60650962 -38.5 58.625 C-46.28352732 58.48034341 -53.71940666 57.73586892 -61.375 56.3125 C-62.27001221 56.15064209 -63.16502441 55.98878418 -64.0871582 55.82202148 C-69.79948275 54.72483231 -75.21954856 53.16723253 -80.6875 51.1875 C-80.6875 50.5275 -80.6875 49.8675 -80.6875 49.1875 C-81.27015625 49.01734375 -81.8528125 48.8471875 -82.453125 48.671875 C-100.53234155 43.32770407 -100.53234155 43.32770407 -104.63671875 41.15625 C-108.36309859 39.39597914 -112.47676541 38.88144966 -116.49609375 38.06640625 C-122.11948365 36.51773706 -122.11948365 36.51773706 -124.6875 34.1875 C-125.06609559 31.24656948 -125.16525614 28.91105042 -125 26 C-124.97744141 25.25041016 -124.95488281 24.50082031 -124.93164062 23.72851562 C-124.87279157 21.8806553 -124.78310938 20.03382333 -124.6875 18.1875 C-117.59022572 18.07941968 -110.72655044 18.24895994 -103.6875 19.1875 C-103.6875 19.8475 -103.6875 20.5075 -103.6875 21.1875 C-102.49125 21.27 -101.295 21.3525 -100.0625 21.4375 C-86.82251555 22.91554858 -74.03378917 28.36295685 -61.78125 33.35546875 C-58.16664115 34.79187115 -55.23256796 35.35426533 -51.36328125 35.50390625 C-49.82124023 35.56674805 -49.82124023 35.56674805 -48.24804688 35.63085938 C-47.17619141 35.67017578 -46.10433594 35.70949219 -45 35.75 C-43.37481445 35.81477539 -43.37481445 35.81477539 -41.71679688 35.88085938 C-39.04049209 35.98696838 -36.36409474 36.08902361 -33.6875 36.1875 C-33.59770874 35.29236694 -33.59770874 35.29236694 -33.50610352 34.37915039 C-32.9566666 29.13636271 -32.07482574 24.27436106 -30.6875 19.1875 C-30.0275 19.1875 -29.3675 19.1875 -28.6875 19.1875 C-28.2853125 18.383125 -28.2853125 18.383125 -27.875 17.5625 C-27.483125 16.77875 -27.09125 15.995 -26.6875 15.1875 C-26.3575 14.259375 -26.0275 13.33125 -25.6875 12.375 C-20.020328 3.34294462 -10.23056273 -0.11197631 0 0 Z " fill="#FAFAF8" transform="translate(475.6875,100.8125)"/>
<path d="M0 0 C7.79861424 5.88440893 12.72419205 12.67257614 15.8125 21.9375 C15.8810495 23.83220816 15.89730372 25.7291834 15.875 27.625 C15.86597656 28.61886719 15.85695313 29.61273438 15.84765625 30.63671875 C15.83605469 31.39597656 15.82445312 32.15523437 15.8125 32.9375 C33.14492346 33.04532027 33.14492346 33.04532027 49.73828125 28.77734375 C51.8125 27.9375 51.8125 27.9375 54.8125 27.9375 C54.8125 27.2775 54.8125 26.6175 54.8125 25.9375 C62.24540753 23.03233032 69.70511679 20.81848824 77.4296875 18.8671875 C80.69248621 18.05088224 80.69248621 18.05088224 83.20849609 16.92114258 C85.84687228 15.92451613 88.0598416 15.53281943 90.859375 15.26953125 C91.78621094 15.18123047 92.71304688 15.09292969 93.66796875 15.00195312 C94.62316406 14.91880859 95.57835937 14.83566406 96.5625 14.75 C97.53316406 14.65525391 98.50382813 14.56050781 99.50390625 14.46289062 C104.81256554 13.97657289 104.81256554 13.97657289 106.8125 13.9375 C107.8125 14.9375 107.8125 14.9375 107.91015625 18.53515625 C107.9034822 20.02346867 107.89152183 21.51176432 107.875 23 C107.87048828 23.75861328 107.86597656 24.51722656 107.86132812 25.29882812 C107.8495068 27.17841871 107.83157078 29.05796899 107.8125 30.9375 C107.1525 30.9375 106.4925 30.9375 105.8125 30.9375 C105.8125 31.5975 105.8125 32.2575 105.8125 32.9375 C100.52992602 34.92314837 95.70656587 36.27562132 90.05078125 36.53125 C86.98668233 37.08738663 84.58149742 38.52713893 81.8125 39.9375 C79.66103582 40.67119106 77.49329977 41.35874102 75.3125 42 C72.06474858 42.96272631 68.84875704 43.92462157 65.65625 45.05859375 C62.8125 45.9375 62.8125 45.9375 58.8125 45.9375 C58.8125 46.5975 58.8125 47.2575 58.8125 47.9375 C49.34811345 51.34005433 40.55778815 53.98528499 30.44140625 53.9609375 C29.4673584 53.96971924 28.49331055 53.97850098 27.48974609 53.98754883 C25.52759758 53.99572044 23.56483925 53.96554837 21.60400391 53.89331055 C18.75341207 53.91058534 16.5200439 54.03145411 13.8125 54.9375 C11.17684273 57.64361145 9.5700811 60.62243843 7.8125 63.9375 C2.40379736 70.20020831 -5.07404996 75.35027324 -13.46484375 76.15625 C-21.91278927 76.46865476 -29.6407091 74.4659012 -36.1875 68.9375 C-46.27574635 56.73098669 -50.06937925 43.41763034 -49.1875 27.9375 C-48.08108239 21.6976301 -45.89922791 17.08602581 -42.1875 11.9375 C-41.94 11.133125 -41.6925 10.32875 -41.4375 9.5 C-38.83505363 4.16498493 -33.69833497 0.2365733 -28.25 -2 C-19.04787605 -4.50387082 -8.31848521 -5.06392054 0 0 Z " fill="#FAF9F8" transform="translate(162.1875,104.0625)"/>
<path d="M0 0 C5.83056641 0.80419922 5.83056641 0.80419922 7.35546875 2.56640625 C7.76732422 3.55447266 7.76732422 3.55447266 8.1875 4.5625 C8.64962891 5.63757813 8.64962891 5.63757813 9.12109375 6.734375 C9.55615234 7.85585937 9.55615234 7.85585937 10 9 C10.30035156 9.72703125 10.60070312 10.4540625 10.91015625 11.203125 C12.12463184 14.25343578 13 16.6922639 13 20 C13.66 20 14.32 20 15 20 C15.22139648 20.61931396 15.44279297 21.23862793 15.67089844 21.87670898 C16.69374567 24.73158098 17.72183967 27.58453739 18.75 30.4375 C19.09804687 31.41138672 19.44609375 32.38527344 19.8046875 33.38867188 C21.69791589 38.63010973 23.72998828 43.73842408 26.04003906 48.80883789 C28.05528309 53.40874 29.66673063 58.16760675 31.35546875 62.89453125 C32.79480712 66.8738785 34.31038052 70.76799236 36.0625 74.62109375 C37.84132872 78.5446278 39.20973037 82.45194506 40.5 86.5625 C42.24883113 91.98999978 44.30566313 96.98220665 47 102 C51.42474092 110.81477799 54.19778289 120.31535855 56 130 C56.66 130 57.32 130 58 130 C59.34612697 133.72467248 60.67462271 137.45539875 62 141.1875 C62.3815625 142.24259766 62.763125 143.29769531 63.15625 144.38476562 C63.5171875 145.40634766 63.878125 146.42792969 64.25 147.48046875 C64.58515625 148.41785889 64.9203125 149.35524902 65.265625 150.32104492 C66.00711656 153.02596077 66.05481797 155.21414298 66 158 C57.41203294 158.15359722 48.82399714 158.30177886 40.23581791 158.4429636 C36.24838695 158.50868668 32.2610066 158.57630563 28.27368164 158.64819336 C24.42881571 158.71744398 20.58389669 158.7817982 16.73888969 158.84269524 C15.26878295 158.86685154 13.79870457 158.8928002 12.32866096 158.92053413 C10.27652554 158.95894963 8.22438351 158.99110609 6.17211914 159.02172852 C5.00185684 159.04171402 3.83159454 159.06169952 2.62586975 159.08229065 C0 159 0 159 -1 158 C-1.0845126 155.96205196 -1.09682496 153.92110231 -1.08229065 151.88145447 C-1.07906152 151.23539877 -1.07583239 150.58934307 -1.07250541 149.92370993 C-1.06037223 147.74327115 -1.04101178 145.56295479 -1.02172852 143.38256836 C-1.01159186 141.82579316 -1.00189753 140.26901502 -0.99261475 138.7122345 C-0.96607222 134.47271928 -0.93330546 130.23327186 -0.89946485 125.99380946 C-0.86518251 121.56820848 -0.8365638 117.14257107 -0.80735779 112.7169342 C-0.75114542 104.33043465 -0.68980091 95.9439807 -0.62663645 87.55753094 C-0.554993 78.01237156 -0.48903449 68.46717558 -0.42356598 58.92197216 C-0.28872657 39.28126724 -0.14670739 19.64061961 0 0 Z " fill="#A88A09" transform="translate(156,208)"/>
<path d="M0 0 C1.86352539 0.640625 1.86352539 0.640625 4 2 C5.20092773 4.546875 5.20092773 4.546875 6.18359375 7.75 C6.55419922 8.91660156 6.92480469 10.08320313 7.30664062 11.28515625 C7.67982422 12.51105469 8.05300781 13.73695313 8.4375 15 C10.7661605 22.5346188 13.13810712 29.64958879 16.82397461 36.63183594 C18.81849902 40.64821268 20.16555449 44.87171178 21.5625 49.125 C23.3939592 54.67461884 25.35623196 59.88952642 28.05639648 65.07519531 C29.59718199 68.21815855 30.67629659 71.48672058 31.75 74.8125 C31.97042969 75.46669922 32.19085937 76.12089844 32.41796875 76.79492188 C33.35871219 79.65513251 34 81.96834143 34 85 C34.66 85 35.32 85 36 85 C36.38671875 86.07378906 36.7734375 87.14757812 37.171875 88.25390625 C37.69758646 89.69022507 38.22364683 91.12641622 38.75 92.5625 C39.00265625 93.26697266 39.2553125 93.97144531 39.515625 94.69726562 C40.80853674 98.20428873 42.18852787 101.48083072 44.078125 104.7109375 C48.61485189 112.47501075 50.7218507 121.28779561 52.97265625 129.93359375 C53.80175971 132.94969455 53.80175971 132.94969455 55.44921875 134.9140625 C57.70844022 137.95291455 58.64855045 141.36267706 59.75 144.9375 C60.09998047 145.99227539 60.09998047 145.99227539 60.45703125 147.06835938 C61.82509152 151.43877945 61.93150701 153.34246493 61 158 C40.54 158 20.08 158 -1 158 C-1.02254556 137.5470124 -1.04097832 117.0940348 -1.05181217 96.64103794 C-1.0569755 87.14504617 -1.06401889 77.64906265 -1.07543945 68.15307617 C-1.08538517 59.87947155 -1.09185316 51.60587289 -1.09408849 43.33226246 C-1.09539579 38.9486641 -1.09848285 34.56508284 -1.10573006 30.18148994 C-1.11248851 26.060365 -1.11461732 21.93926427 -1.11310768 17.81813431 C-1.11338409 16.30113659 -1.11539025 14.7841381 -1.11920547 13.26714516 C-1.12414001 11.20492699 -1.1229992 9.14280174 -1.12025452 7.08058167 C-1.12117631 5.92373147 -1.1220981 4.76688128 -1.12304783 3.57497501 C-1 1 -1 1 0 0 Z " fill="#A88A09" transform="translate(486,208)"/>
<path d="M0 0 C1.7015625 0.99 1.7015625 0.99 3.4375 2 C3.4375 2.66 3.4375 3.32 3.4375 4 C4.13875 4.185625 4.84 4.37125 5.5625 4.5625 C13.10683015 8.33466508 16.46718893 16.10211521 19.02734375 23.765625 C21.48872433 37.17428871 19.07444437 50.61951075 12.30078125 62.3515625 C8.02019081 68.43592376 2.0094468 74.48523781 -5.30859375 76.62890625 C-13.53734668 77.98372692 -20.94311445 77.92075186 -28.28125 73.66796875 C-36.49512724 67.66227426 -42.00785745 59.15534201 -44.171875 49.1953125 C-45.71981998 36.53312257 -45.94259711 21.70349887 -39.01953125 10.50390625 C-29.36782942 -1.17973281 -14.42100241 -6.52982989 0 0 Z " fill="#FBFAF9" transform="translate(323.5625,100)"/>
<path d="M0 0 C1.94141889 4.968103 -0.58536242 9.07752969 -2.48046875 13.734375 C-5.94682487 21.18392183 -10.24018382 25.49345588 -17 30 C-17.33 30.66 -17.66 31.32 -18 32 C-15.69 32 -13.38 32 -11 32 C-11 33.98 -11 35.96 -11 38 C-11.71027344 38.18175781 -12.42054688 38.36351562 -13.15234375 38.55078125 C-14.53099609 38.92783203 -14.53099609 38.92783203 -15.9375 39.3125 C-16.85402344 39.55613281 -17.77054687 39.79976562 -18.71484375 40.05078125 C-19.46894531 40.36402344 -20.22304688 40.67726562 -21 41 C-21.33 41.99 -21.66 42.98 -22 44 C-22.66 44 -23.32 44 -24 44 C-24 45.32 -24 46.64 -24 48 C-23.34 48 -22.68 48 -22 48 C-21.81824219 48.90492188 -21.81824219 48.90492188 -21.6328125 49.828125 C-21.38144531 51.02695313 -21.38144531 51.02695313 -21.125 52.25 C-20.96257812 53.03890625 -20.80015625 53.8278125 -20.6328125 54.640625 C-20.00849925 56.96831144 -19.15161458 58.89031952 -18 61 C-18.99 60.67 -19.98 60.34 -21 60 C-20.99777939 60.75973618 -20.99555878 61.51947235 -20.99327087 62.30223083 C-20.96542482 72.34731095 -20.94789131 82.39238732 -20.9375 92.4375 C-20.93664398 93.25895634 -20.93578796 94.08041267 -20.93490601 94.92676163 C-20.90884441 123.35018904 -21.12403594 151.76664898 -21.5 180.1875 C-21.51195782 181.09188183 -21.52391563 181.99626366 -21.53623581 182.92805099 C-21.68272919 193.95215231 -21.83718073 204.97612781 -22 216 C-22.66 216 -23.32 216 -24 216 C-24.33 163.2 -24.66 110.4 -25 56 C-27.31 55.67 -29.62 55.34 -32 55 C-34.64 54.34 -37.28 53.68 -40 53 C-40 106.79 -40 160.58 -40 216 C-40.33 216 -40.66 216 -41 216 C-41.33 162.21 -41.66 108.42 -42 53 C-43.98 53.495 -43.98 53.495 -46 54 C-46.10828125 54.83273438 -46.2165625 55.66546875 -46.328125 56.5234375 C-47.07806229 60.40392699 -48.32653065 63.95481264 -49.75 67.625 C-50.14880371 68.67071167 -50.14880371 68.67071167 -50.55566406 69.73754883 C-52.58224017 75.01473851 -54.71370253 80.24529229 -56.921875 85.44921875 C-57.98053382 87.95394415 -58.99797244 90.47215774 -60 93 C-60.66 93 -61.32 93 -62 93 C-62.33 93.99 -62.66 94.98 -63 96 C-62.48622342 91.15236686 -61.50645653 87.46684573 -59.3125 83.125 C-56.47984579 77.23552471 -54.24046788 71.28441027 -52.1171875 65.1081543 C-50.49868918 60.40091463 -48.76749918 55.76705868 -46.87890625 51.16015625 C-45.51198036 47.80055618 -44.25965408 44.40106603 -43 41 C-43.680625 40.7525 -44.36125 40.505 -45.0625 40.25 C-48.56865083 38.75802092 -51.71620368 36.93164489 -55 35 C-55 34.34 -55 33.68 -55 33 C-52 31 -52 31 -48 31 C-47.67 29.68 -47.34 28.36 -47 27 C-46.113125 27.495 -45.22625 27.99 -44.3125 28.5 C-37.0448969 31.59573357 -27.50285943 31.07352487 -20.1953125 28.2421875 C-8.65255195 21.71087459 -3.7104787 12.1972119 0 0 Z " fill="#B69F3A" transform="translate(507,149)"/>
<path d="M0 0 C-4.58919168 1.383267 -8.58102671 2.12572195 -13.3828125 2.09765625 C-14.32253906 2.09572266 -15.26226562 2.09378906 -16.23046875 2.09179688 C-18.16843644 2.07218182 -20.1063108 2.02506043 -22.04296875 1.95117188 C-24.94378673 1.97311754 -27.23982242 2.0931243 -30 3 C-32.63823203 5.70827359 -34.2264774 8.69178421 -36 12 C-36.78375 12.78375 -37.5675 13.5675 -38.375 14.375 C-41.00071851 18.61654529 -40.30636569 23.14069976 -40 28 C-41.60256108 28.50512244 -43.20711792 29.00391627 -44.8125 29.5 C-45.70582031 29.7784375 -46.59914062 30.056875 -47.51953125 30.34375 C-50 31 -50 31 -53 31 C-52.65066406 32.18078125 -52.30132812 33.3615625 -51.94140625 34.578125 C-51.48172754 36.13540389 -51.02209452 37.69269626 -50.5625 39.25 C-50.33240234 40.02730469 -50.10230469 40.80460937 -49.86523438 41.60546875 C-49.64287109 42.35957031 -49.42050781 43.11367187 -49.19140625 43.890625 C-48.98717041 44.58188477 -48.78293457 45.27314453 -48.57250977 45.98535156 C-48.00535746 47.98114721 -47.49201996 49.98449654 -47 52 C-48.65 51.67 -50.3 51.34 -52 51 C-52 101.49 -52 151.98 -52 204 C-52.33 204 -52.66 204 -53 204 C-53 152.85 -53 101.7 -53 49 C-57.62 49 -62.24 49 -67 49 C-67.66 48.67 -68.32 48.34 -69 48 C-69 100.8 -69 153.6 -69 208 C-69.33 208 -69.66 208 -70 208 C-70.33 156.52 -70.66 105.04 -71 52 C-74.09882106 54.0658807 -74.44082177 54.43430095 -75.60546875 57.6953125 C-75.86650391 58.41074219 -76.12753906 59.12617188 -76.39648438 59.86328125 C-76.78803711 60.98283203 -76.78803711 60.98283203 -77.1875 62.125 C-77.59645508 63.25615234 -77.59645508 63.25615234 -78.01367188 64.41015625 C-78.68471438 66.27023899 -79.34354065 68.13472068 -80 70 C-80.66 70 -81.32 70 -82 70 C-80.12261868 63.44563365 -78.02605013 56.96857932 -75.875 50.5 C-75.60929199 49.69836426 -75.34358398 48.89672852 -75.06982422 48.07080078 C-74.8173291 47.31524902 -74.56483398 46.55969727 -74.3046875 45.78125 C-74.07765137 45.10126953 -73.85061523 44.42128906 -73.61669922 43.72070312 C-73 42 -73 42 -72 40 C-71.960008 38.00039988 -71.95653201 35.99952758 -72 34 C-74.97 32.35 -77.94 30.7 -81 29 C-80.649375 28.278125 -80.29875 27.55625 -79.9375 26.8125 C-78.86015398 23.58046193 -78.85622794 22.18622217 -80 19 C-81.95809523 16.70710528 -81.95809523 16.70710528 -84 15 C-83.67 14.34 -83.34 13.68 -83 13 C-82.67 13.99 -82.34 14.98 -82 16 C-80.25132517 17.08431094 -80.25132517 17.08431094 -78 18 C-77.030625 18.515625 -76.06125 19.03125 -75.0625 19.5625 C-68.35399776 22.71138881 -60.96699703 23.18911229 -53.859375 21.05859375 C-43.36712803 16.93663958 -38.09489092 10.14233638 -32 1 C-29.84863281 0.58349609 -29.84863281 0.58349609 -27.203125 0.5234375 C-25.76453125 0.47703125 -25.76453125 0.47703125 -24.296875 0.4296875 C-23.29140625 0.41164062 -22.2859375 0.39359375 -21.25 0.375 C-19.27595352 0.32359254 -17.30198717 0.26899227 -15.328125 0.2109375 C-14.39806641 0.18483398 -13.46800781 0.15873047 -12.50976562 0.13183594 C-9.83002435 0.0394522 -9.83002435 0.0394522 -6.546875 -0.5859375 C-3.92473503 -1.01223633 -2.50781927 -0.71642476 0 0 Z " fill="#888880" transform="translate(208,157)"/>
<path d="M0 0 C1.60779831 -0.00956978 1.60779831 -0.00956978 3.24807739 -0.01933289 C4.98708817 -0.02100212 4.98708817 -0.02100212 6.76123047 -0.02270508 C7.95642303 -0.02603348 9.1516156 -0.02936188 10.38302612 -0.03279114 C12.9166424 -0.03785924 15.45026537 -0.0401995 17.98388672 -0.04003906 C21.84207344 -0.04221582 25.69996973 -0.06034619 29.55810547 -0.0793457 C32.02164616 -0.08228166 34.48518821 -0.0842651 36.94873047 -0.08520508 C38.0959256 -0.09239059 39.24312073 -0.09957611 40.42507935 -0.10697937 C55.55867115 -0.06429384 55.55867115 -0.06429384 60.94482422 3.66088867 C61.39728516 4.23323242 61.84974609 4.80557617 62.31591797 5.39526367 C63.02941406 6.23831055 63.02941406 6.23831055 63.75732422 7.09838867 C65.09561002 9.8484348 64.91951076 12.13004066 64.75341797 15.14526367 C47.06849061 16.29824289 29.46284992 16.11801364 11.75341797 15.77026367 C10.58821625 15.74884308 9.42301453 15.72742249 8.22250366 15.70535278 C4.87847592 15.64207492 1.53471735 15.57112153 -1.80908203 15.49682617 C-2.83196823 15.4769313 -3.85485443 15.45703644 -4.90873718 15.4365387 C-5.84651505 15.4134111 -6.78429291 15.39028351 -7.75048828 15.36645508 C-8.98520874 15.33861435 -8.98520874 15.33861435 -10.24487305 15.31021118 C-12.24658203 15.14526367 -12.24658203 15.14526367 -14.24658203 14.14526367 C-12.82986639 9.30481857 -10.97399605 5.36035806 -8.24658203 1.14526367 C-5.21816033 0.13578977 -3.16780313 0.01280136 0 0 Z " fill="#A78B13" transform="translate(284.24658203125,515.854736328125)"/>
<path d="M0 0 C4.41441894 2.49510636 7.38838611 6.18239485 9 11 C9.87307974 17.41140372 9.75437543 23.51272234 6.39453125 29.17578125 C2.79033011 33.89052056 -0.67538092 37.55912397 -6.625 38.6875 C-12.80984769 37.42762362 -16.44812189 34.07411158 -20 29 C-23.52483089 23.43178888 -22.75435672 16.29954029 -22 10 C-20.04713419 5.42086637 -17.17291421 2.87968566 -13.25 -0.0625 C-8.62358094 -1.39704396 -4.66075614 -1.13200945 0 0 Z " fill="#A88A0B" transform="translate(317,119)"/>
<path d="M0 0 C5.77937714 3.07168124 11.31069436 6.88794172 14 13 C15.11632765 20.15763019 13.29837451 25.41453576 9.4375 31.4375 C8.963125 31.953125 8.48875 32.46875 8 33 C7.34 33 6.68 33 6 33 C5.67 33.99 5.34 34.98 5 36 C1.53844902 38.52959495 -1.84326612 38.35833913 -6 38 C-11.29576156 36.3053563 -13.3228149 33.54548134 -16.01953125 28.9375 C-18.74677918 23.54819732 -18.57794155 17.90437584 -18 12 C-16.1875 8.4375 -16.1875 8.4375 -14 6 C-13.46375 5.38125 -12.9275 4.7625 -12.375 4.125 C-11 3 -11 3 -9 3 C-9 2.34 -9 1.68 -9 1 C-5.91325166 -0.54337417 -3.31272627 -0.73885303 0 0 Z " fill="#A7890C" transform="translate(477,121)"/>
<path d="M0 0 C4.94102378 2.60405307 9.65684983 6.45896773 11.6875 11.8125 C12.97528439 20.82699074 9.9620434 26.69157323 4.9375 34 C1.6342591 37.40979706 -0.13379514 37.93125358 -4.9375 38.3125 C-8.75260095 38.18509403 -11.03555213 37.552719 -14 35 C-19.75058132 26.95695721 -19.84097525 18.69994338 -18.4375 9.1875 C-14.84183054 1.2144938 -8.60330942 -2.04328599 0 0 Z " fill="#A6890D" transform="translate(150,121)"/>
<path d="M0 0 C1.94141889 4.968103 -0.58536242 9.07752969 -2.48046875 13.734375 C-5.94682487 21.18392183 -10.24018382 25.49345588 -17 30 C-17.33 30.66 -17.66 31.32 -18 32 C-15.69 32 -13.38 32 -11 32 C-11 33.98 -11 35.96 -11 38 C-18.19687675 40.60273023 -24.50195928 41.3962771 -32.125 41.1875 C-33.08148438 41.17396484 -34.03796875 41.16042969 -35.0234375 41.14648438 C-37.3495811 41.11159222 -39.6744653 41.06258339 -42 41 C-41.94779297 41.90492188 -41.94779297 41.90492188 -41.89453125 42.828125 C-41.73000483 47.68557173 -41.67683022 50.25755179 -45 54 C-45.98857718 56.36917636 -46.89377282 58.70955359 -47.75 61.125 C-48.26970456 62.55119308 -48.790586 63.97695773 -49.3125 65.40234375 C-49.58449219 66.1485498 -49.85648437 66.89475586 -50.13671875 67.66357422 C-51.62473426 71.69081077 -53.18787247 75.68855207 -54.75 79.6875 C-55.04358398 80.44111816 -55.33716797 81.19473633 -55.63964844 81.97119141 C-57.07634633 85.65428686 -58.52425043 89.33232828 -60 93 C-60.66 93 -61.32 93 -62 93 C-62.33 93.99 -62.66 94.98 -63 96 C-62.48622342 91.15236686 -61.50645653 87.46684573 -59.3125 83.125 C-56.47984579 77.23552471 -54.24046788 71.28441027 -52.1171875 65.1081543 C-50.49868918 60.40091463 -48.76749918 55.76705868 -46.87890625 51.16015625 C-45.51198036 47.80055618 -44.25965408 44.40106603 -43 41 C-43.680625 40.7525 -44.36125 40.505 -45.0625 40.25 C-48.56865083 38.75802092 -51.71620368 36.93164489 -55 35 C-55 34.34 -55 33.68 -55 33 C-52 31 -52 31 -48 31 C-47.67 29.68 -47.34 28.36 -47 27 C-46.113125 27.495 -45.22625 27.99 -44.3125 28.5 C-37.0448969 31.59573357 -27.50285943 31.07352487 -20.1953125 28.2421875 C-8.65255195 21.71087459 -3.7104787 12.1972119 0 0 Z " fill="#84837A" transform="translate(507,149)"/>
<path d="M0 0 C1.32 1.65 2.64 3.3 4 5 C3.67 5.66 3.34 6.32 3 7 C2.34 6.67 1.68 6.34 1 6 C1.00222061 6.75973618 1.00444122 7.51947235 1.00672913 8.30223083 C1.03457518 18.34731095 1.05210869 28.39238732 1.0625 38.4375 C1.06335602 39.25895634 1.06421204 40.08041267 1.06509399 40.92676163 C1.09115559 69.35018904 0.87596406 97.76664898 0.5 126.1875 C0.48206327 127.54407274 0.48206327 127.54407274 0.46376419 128.92805099 C0.31727081 139.95215231 0.16281927 150.97612781 0 162 C-0.66 162 -1.32 162 -2 162 C-2.33 109.2 -2.66 56.4 -3 2 C-2.01 2 -1.02 2 0 2 C0 1.34 0 0.68 0 0 Z " fill="#979585" transform="translate(485,203)"/>
<path d="M0 0 C0.99 0.495 0.99 0.495 2 1 C2 1.66 2 2.32 2 3 C2.53625 3.268125 3.0725 3.53625 3.625 3.8125 C5.33384139 4.66692069 7.01921846 5.56886612 8.6875 6.5 C12.3230768 8.14629893 15.42328695 8.70285595 19.375 9.1875 C20.62023437 9.34605469 21.86546875 9.50460938 23.1484375 9.66796875 C24.55996094 9.83232422 24.55996094 9.83232422 26 10 C26 10.33 26 10.66 26 11 C24.7625 11.04125 23.525 11.0825 22.25 11.125 C20.08895291 11.08423657 20.08895291 11.08423657 18 12 C14.24933846 16.35729028 13.51291489 19.45399393 13.6875 25.125 C13.71199219 26.32382813 13.73648438 27.52265625 13.76171875 28.7578125 C13.90783766 31.95775801 14.20194277 35.1311355 14.50779724 38.31939697 C15.11711415 45.59240361 15.13329949 52.83829898 15.11352539 60.13183594 C15.11324262 61.61141966 15.113403 63.09100352 15.1139679 64.57058716 C15.11425238 68.54910109 15.10841252 72.52758427 15.10139394 76.50609112 C15.09510186 80.67807035 15.094552 84.85005045 15.09336853 89.02203369 C15.09027236 96.9052351 15.08208229 104.78842249 15.07201904 112.67161775 C15.0608044 121.65358535 15.05533402 130.63555366 15.05032361 139.61752653 C15.03989808 158.07835894 15.02233214 176.53917834 15 195 C14.67 195 14.34 195 14 195 C13.67 143.52 13.34 92.04 13 39 C9.90117894 41.0658807 9.55917823 41.43430095 8.39453125 44.6953125 C8.13349609 45.41074219 7.87246094 46.12617188 7.60351562 46.86328125 C7.21196289 47.98283203 7.21196289 47.98283203 6.8125 49.125 C6.53986328 49.87910156 6.26722656 50.63320312 5.98632812 51.41015625 C5.31528562 53.27023899 4.65645935 55.13472068 4 57 C3.34 57 2.68 57 2 57 C3.87738132 50.44563365 5.97394987 43.96857932 8.125 37.5 C8.39070801 36.69836426 8.65641602 35.89672852 8.93017578 35.07080078 C9.1826709 34.31524902 9.43516602 33.55969727 9.6953125 32.78125 C9.92234863 32.10126953 10.14938477 31.42128906 10.38330078 30.72070312 C11 29 11 29 12 27 C12.039992 25.00039988 12.04346799 22.99952758 12 21 C9.03 19.35 6.06 17.7 3 16 C3.350625 15.278125 3.70125 14.55625 4.0625 13.8125 C5.13984602 10.58046193 5.14377206 9.18622217 4 6 C2.70644173 4.62804426 1.37701298 3.28817344 0 2 C0 1.34 0 0.68 0 0 Z " fill="#B9B397" transform="translate(124,170)"/>
<path d="M0 0 C4.94102378 2.60405307 9.65684983 6.45896773 11.6875 11.8125 C12.71472795 19.00309564 11.21453045 23.67139317 8 30 C5 28 5 28 4.3046875 25.50390625 C4.16289062 24.53324219 4.02109375 23.56257813 3.875 22.5625 C3.41785954 19.55098695 2.9654166 16.89624981 2 14 C1.93197033 12.27204648 1.91504355 10.54164635 1.9375 8.8125 C1.94652344 7.91144531 1.95554688 7.01039063 1.96484375 6.08203125 C1.97644531 5.39496094 1.98804688 4.70789063 2 4 C-2.93637624 3.09331865 -7.11435077 2.6846329 -12 4 C-14.30905417 6.68148226 -14.95257576 8.28863644 -15.1875 11.8125 C-15.125625 12.534375 -15.06375 13.25625 -15 14 C-14.34 13.34 -13.68 12.68 -13 12 C-11.68 12 -10.36 12 -9 12 C-9.875 16.875 -9.875 16.875 -11 18 C-11.36760731 20.32817964 -11.70241581 22.6618385 -12 25 C-13.32 25 -14.64 25 -16 25 C-16 26.65 -16 28.3 -16 30 C-19.30431282 26.69568718 -19.15548738 23.21408473 -19.1875 18.6875 C-19.08540556 12.28958186 -18.66301522 7.28037422 -14 2.5625 C-9.60645456 -0.82628453 -5.34120979 -1.26853732 0 0 Z " fill="#9A9476" transform="translate(150,121)"/>
<path d="M0 0 C5.02558767 2.73440047 9.80685959 5.52320737 12 11 C9.525 10.505 9.525 10.505 7 10 C7 11.32 7 12.64 7 14 C4.625 14.125 4.625 14.125 2 14 C1.34 13.34 0.68 12.68 0 12 C-3.30743426 12.21570223 -5.39667819 12.54293802 -8.0625 14.5625 C-10 16 -10 16 -15 16 C-15 20.29 -15 24.58 -15 29 C-18.25481781 25.74518219 -18.207003 22.60171642 -18.3125 18.1875 C-18.27449515 12.94283121 -17.60003797 10.01147088 -14 6 C-13.46375 5.38125 -12.9275 4.7625 -12.375 4.125 C-11 3 -11 3 -9 3 C-9 2.34 -9 1.68 -9 1 C-5.91472669 -0.54263666 -3.31024364 -0.74766887 0 0 Z " fill="#98978F" transform="translate(477,121)"/>
<path d="M0 0 C0.495 1.485 0.495 1.485 1 3 C-11.08138631 15.74237401 -11.08138631 15.74237401 -19.99316406 16.07421875 C-22.26727568 16.09829404 -24.53841198 16.08728051 -26.8125 16.0625 C-27.99489258 16.05573242 -27.99489258 16.05573242 -29.20117188 16.04882812 C-31.13414761 16.03711312 -33.06708393 16.01917998 -35 16 C-34.67 18.64 -34.34 21.28 -34 24 C-35.32 24.33 -36.64 24.66 -38 25 C-38 25.99 -38 26.98 -38 28 C-42.92445049 25.7883552 -46.37514242 22.749397 -49 18 C-49.43487267 14.55794179 -49.38605372 11.41085074 -49.1484375 7.953125 C-49.01565647 5.31148134 -49.19055322 3.48874682 -50 1 C-49.29875 1.721875 -48.5975 2.44375 -47.875 3.1875 C-40.93586233 10.0681618 -35.48923957 14.09299804 -25.625 14.4375 C-14.9170557 14.13120869 -8.34493495 9.57446417 -1 2 C-0.67 1.34 -0.34 0.68 0 0 Z " fill="#8F8D86" transform="translate(335,162)"/>
<path d="M0 0 C2.07456539 5.39387002 -1.11307079 10.40307803 -3.25 15.375 C-5.35707717 20.37930828 -7.33881538 25.4185655 -9.25 30.5 C-9.50813477 31.18239746 -9.76626953 31.86479492 -10.03222656 32.56787109 C-11.19496942 35.68064674 -12.30291244 38.74692473 -13 42 C-13.66 42 -14.32 42 -15 42 C-15.10957031 42.83402344 -15.21914062 43.66804688 -15.33203125 44.52734375 C-16.07288594 48.37892166 -17.28597983 51.91517041 -18.6875 55.5625 C-18.94934082 56.2534375 -19.21118164 56.944375 -19.48095703 57.65625 C-22.01936117 64.24793674 -24.92840311 70.63896248 -28 77 C-28.66 77 -29.32 77 -30 77 C-28.08562048 70.21698488 -25.80434491 63.70354379 -23.125 57.1875 C-22.41206169 55.43127307 -21.69982177 53.67476246 -20.98828125 51.91796875 C-20.64619629 51.07540527 -20.30411133 50.2328418 -19.95166016 49.36474609 C-18.70087464 46.25671415 -17.50251256 43.13181083 -16.3125 40 C-14.00052739 33.94557006 -11.51860499 27.97089843 -9 22 C-5.9367654 14.69106638 -2.91795971 7.36825581 0 0 Z " fill="#9C9780" transform="translate(118,246)"/>
<path d="M0 0 C7.31968436 -0.72658631 11.84482018 -0.30630827 17.63671875 4.39453125 C19 6 19 6 19 9 C17.68 8.67 16.36 8.34 15 8 C15 9.32 15 10.64 15 12 C12.625 12.125 12.625 12.125 10 12 C9.34 11.34 8.68 10.68 8 10 C4.91652174 9.83318891 4.91652174 9.83318891 2 10 C3.32 8.35 4.64 6.7 6 5 C3.03 4.505 3.03 4.505 0 4 C0 2.68 0 1.36 0 0 Z " fill="#928C6D" transform="translate(469,123)"/>
<path d="M0 0 C4.58059067 4.21896509 6.66001391 7.05345385 7.375 13.25 C6.8951469 18.04853102 5.16548602 21.73669939 3 26 C2.01 25.34 1.02 24.68 0 24 C-0.22265625 21.57421875 -0.22265625 21.57421875 -0.0625 18.6875 C0.16122711 14.48257759 -0.3544699 11.85915987 -2 8 C-1.65849104 5.13132471 -0.91477075 2.74431224 0 0 Z " fill="#95948A" transform="translate(155,125)"/>
<path d="M0 0 C1.32 0.33 2.64 0.66 4 1 C4.08153933 2.58246707 4.13943557 4.16616273 4.1875 5.75 C4.23970703 7.07257813 4.23970703 7.07257813 4.29296875 8.421875 C3.93853707 11.54087378 2.91763171 12.55445557 1 15 C0.01142282 17.36917636 -0.89377282 19.70955359 -1.75 22.125 C-2.26970456 23.55119308 -2.790586 24.97695773 -3.3125 26.40234375 C-3.58449219 27.1485498 -3.85648437 27.89475586 -4.13671875 28.66357422 C-5.62473426 32.69081077 -7.18787247 36.68855207 -8.75 40.6875 C-9.04358398 41.44111816 -9.33716797 42.19473633 -9.63964844 42.97119141 C-11.07634633 46.65428686 -12.52425043 50.33232828 -14 54 C-14.66 54 -15.32 54 -16 54 C-16.33 54.99 -16.66 55.98 -17 57 C-16.48622342 52.15236686 -15.50645653 48.46684573 -13.3125 44.125 C-10.47984579 38.23552471 -8.24046788 32.28441027 -6.1171875 26.1081543 C-4.49868918 21.40091463 -2.76749918 16.76705868 -0.87890625 12.16015625 C0.48801964 8.80055618 1.74034592 5.40106603 3 2 C2.01 1.67 1.02 1.34 0 1 C0 0.67 0 0.34 0 0 Z " fill="#9C9A8E" transform="translate(461,188)"/>
<path d="M0 0 C1.11524806 3.29614671 0.91001811 5.02440969 -0.3984375 8.22265625 C-0.71296875 9.00833984 -1.0275 9.79402344 -1.3515625 10.60351562 C-1.68929688 11.41498047 -2.02703125 12.22644531 -2.375 13.0625 C-3.02896601 14.67825586 -3.68262455 16.29413622 -4.3359375 17.91015625 C-4.63032715 18.62308838 -4.9247168 19.33602051 -5.22802734 20.07055664 C-5.8766483 21.69169878 -6.44783961 23.34351882 -7 25 C-7.66 25.33 -8.32 25.66 -9 26 C-9.66829867 27.73714538 -9.66829867 27.73714538 -10.1875 29.9375 C-18.15737952 58.15737952 -18.15737952 58.15737952 -25 65 C-24.33844511 59.54878768 -22.60276183 54.73236488 -20.6875 49.625 C-20.39166016 48.81289063 -20.09582031 48.00078125 -19.79101562 47.1640625 C-18.07603875 42.54140345 -16.14037482 38.15437259 -13.8815918 33.7734375 C-12.7376538 31.47225622 -11.88366069 29.12070885 -11.0625 26.6875 C-9.37496511 21.89622446 -7.38063416 17.32963655 -5.23828125 12.7265625 C-3.33924174 8.54508118 -1.66194488 4.28020441 0 0 Z " fill="#9E9982" transform="translate(432,273)"/>
<path d="M0 0 C3.85308238 0.0343412 3.85308238 0.0343412 5.9375 1.6875 C6.329375 2.203125 6.72125 2.71875 7.125 3.25 C8.115 3.58 9.105 3.91 10.125 4.25 C10.125 5.57 10.125 6.89 10.125 8.25 C4.845 8.25 -0.435 8.25 -5.875 8.25 C-4.74011628 0.30581395 -4.74011628 0.30581395 0 0 Z " fill="#A5890E" transform="translate(144.875,196.75)"/>
<path d="M0 0 C0.66 0.33 1.32 0.66 2 1 C-3.51208791 3.88131868 -3.51208791 3.88131868 -6.3125 4.5625 C-6.869375 4.706875 -7.42625 4.85125 -8 5 C-8.33 5.66 -8.66 6.32 -9 7 C-14.17180671 8.40682118 -19.43020474 8.22162776 -24.75 8.25 C-25.70132812 8.270625 -26.65265625 8.29125 -27.6328125 8.3125 C-33.97077776 8.34722858 -39.13447088 7.41393284 -45 5 C-41.65048459 3.88349486 -39.42579336 4.3087263 -35.984375 4.73046875 C-24.23660321 5.79145861 -13.2861916 5.61006593 -2.328125 0.8359375 C-1.17570312 0.42214844 -1.17570312 0.42214844 0 0 Z " fill="#A79A5E" transform="translate(501,476)"/>
<path d="M0 0 C2.375 0.1875 2.375 0.1875 5 1 C6.125 3.4375 6.125 3.4375 7 6 C7.99 6.66 8.98 7.32 10 8 C9.67 8.66 9.34 9.32 9 10 C7.68 9.67 6.36 9.34 5 9 C5 25.83 5 42.66 5 60 C4.67 60 4.34 60 4 60 C4 42.51 4 25.02 4 7 C-0.62 7 -5.24 7 -10 7 C-10 6.67 -10 6.34 -10 6 C-5.38 6 -0.76 6 4 6 C4 4.68 4 3.36 4 2 C2.68 1.67 1.36 1.34 0 1 C0 0.67 0 0.34 0 0 Z " fill="#97927D" transform="translate(151,199)"/>
<path d="M0 0 C0.66 0 1.32 0 2 0 C2.20638953 23.58238484 2.20638953 23.58238484 1 35 C0.34 35 -0.32 35 -1 35 C-1.04898438 35.71027344 -1.09796875 36.42054688 -1.1484375 37.15234375 C-1.22320312 38.07144531 -1.29796875 38.99054688 -1.375 39.9375 C-1.44460937 40.85402344 -1.51421875 41.77054687 -1.5859375 42.71484375 C-1.72257813 43.46894531 -1.85921875 44.22304688 -2 45 C-2.99 45.495 -2.99 45.495 -4 46 C-3.688288 43.47906702 -3.37565098 40.9582543 -3.0625 38.4375 C-2.93198242 37.38079102 -2.93198242 37.38079102 -2.79882812 36.30273438 C-2.66831055 35.25375977 -2.66831055 35.25375977 -2.53515625 34.18359375 C-2.44693604 33.47323975 -2.35871582 32.76288574 -2.26782227 32.03100586 C-2.03371859 30.25570188 -1.75494171 28.48640468 -1.46875 26.71875 C-0.81219479 21.51007863 -0.6360426 16.30597761 -0.4375 11.0625 C-0.39431641 9.99708984 -0.35113281 8.93167969 -0.30664062 7.83398438 C-0.20125511 5.22276557 -0.09912912 2.61146254 0 0 Z " fill="#A29661" transform="translate(239,361)"/>
<path d="M0 0 C2.37327719 2.37327719 2.2957818 2.94974106 2.3125 6.1875 C2.19088975 11.58178333 0.92886227 15.78538035 -2.6875 19.9375 C-3.3371875 20.4634375 -3.3371875 20.4634375 -4 21 C-4 20.34 -4 19.68 -4 19 C-5.65 19 -7.3 19 -9 19 C-7.625 16.5 -7.625 16.5 -6 14 C-5.34 14 -4.68 14 -4 14 C-3.814375 12.329375 -3.814375 12.329375 -3.625 10.625 C-3 7 -3 7 -1 5 C-0.35232207 2.42938689 -0.35232207 2.42938689 0 0 Z " fill="#9A9A8D" transform="translate(489,132)"/>
<path d="M0 0 C0.495 0.99 0.495 0.99 1 2 C-0.27020478 5.81061434 -1.63021042 6.00088841 -5 8 C-6.2374901 9.37321482 -7.42425962 10.79345974 -8.5625 12.25 C-13.24066332 17.67843479 -18.66670694 20.77925833 -25 24 C-25.86753906 24.44730469 -26.73507812 24.89460938 -27.62890625 25.35546875 C-33.91038259 28.38754876 -33.91038259 28.38754876 -38 27 C-36.45892578 26.27296875 -36.45892578 26.27296875 -34.88671875 25.53125 C-21.17812419 18.95158925 -10.44945267 10.99516877 0 0 Z " fill="#A7A287" transform="translate(541,448)"/>
<path d="M0 0 C1.31157516 2.62315032 0.89649988 4.23033436 0.5625 7.125 C0.46066406 8.03507813 0.35882813 8.94515625 0.25390625 9.8828125 C0.12822266 10.93082031 0.12822266 10.93082031 0 12 C1.65 11.34 3.3 10.68 5 10 C5 12.97 5 15.94 5 19 C3.68 19 2.36 19 1 19 C1 20.65 1 22.3 1 24 C-2.30431282 20.69568718 -2.15548738 17.21408473 -2.1875 12.6875 C-2.1565123 8.06413457 -1.54404374 4.34262301 0 0 Z " fill="#8C8A82" transform="translate(133,127)"/>
<path d="M0 0 C0.33 0 0.66 0 1 0 C0.93362518 8.29797703 -1.58655041 13.9650662 -5.8125 21 C-6.34681641 21.93972656 -6.88113281 22.87945312 -7.43164062 23.84765625 C-11.80781155 31.32967051 -11.80781155 31.32967051 -16 33 C-14.49450797 28.8189444 -12.42101826 25.25957473 -10.0625 21.5 C-9.37285156 20.3965625 -8.68320312 19.293125 -7.97265625 18.15625 C-6.76127108 16.21803373 -5.54387726 14.28353806 -4.31640625 12.35546875 C-3.06691016 10.11972351 -2.40463531 8.30178596 -1.875 5.8125 C-1 2 -1 2 0 0 Z " fill="#B0AB8D" transform="translate(558,415)"/>
<path d="M0 0 C-4.58919168 1.383267 -8.58102671 2.12572195 -13.3828125 2.09765625 C-14.32253906 2.09572266 -15.26226562 2.09378906 -16.23046875 2.09179688 C-18.16843644 2.07218182 -20.1063108 2.02506043 -22.04296875 1.95117188 C-24.94225237 1.97310593 -27.24081785 2.0953227 -30 3 C-32.06103273 5.11638016 -33.38543475 7.17164749 -34.77685547 9.77124023 C-35.96571319 11.9375241 -37.17594488 13.3559634 -39 15 C-39.66 14.67 -40.32 14.34 -41 14 C-40.51789063 13.31292969 -40.03578125 12.62585938 -39.5390625 11.91796875 C-38.90742188 11.01691406 -38.27578125 10.11585938 -37.625 9.1875 C-36.99851563 8.29417969 -36.37203125 7.40085938 -35.7265625 6.48046875 C-34.46449761 4.66732122 -33.22541192 2.83811789 -32 1 C-29.84863281 0.58349609 -29.84863281 0.58349609 -27.203125 0.5234375 C-25.76453125 0.47703125 -25.76453125 0.47703125 -24.296875 0.4296875 C-23.29140625 0.41164062 -22.2859375 0.39359375 -21.25 0.375 C-19.27595352 0.32359254 -17.30198717 0.26899227 -15.328125 0.2109375 C-14.39806641 0.18483398 -13.46800781 0.15873047 -12.50976562 0.13183594 C-9.83002435 0.0394522 -9.83002435 0.0394522 -6.546875 -0.5859375 C-3.92473503 -1.01223633 -2.50781927 -0.71642476 0 0 Z " fill="#A7A59C" transform="translate(208,157)"/>
<path d="M0 0 C6.18131736 -0.378448 11.1547898 0.5219137 15.9375 4.6875 C16.4634375 5.3371875 16.4634375 5.3371875 17 6 C16.67 6.66 16.34 7.32 16 8 C14.68 7.67 13.36 7.34 12 7 C11.67 8.32 11.34 9.64 11 11 C10.92458984 9.83404297 10.92458984 9.83404297 10.84765625 8.64453125 C10.2614613 5.76883549 10.2614613 5.76883549 7.49609375 4.63671875 C5.98208984 4.16685547 5.98208984 4.16685547 4.4375 3.6875 C3.42558594 3.36136719 2.41367187 3.03523438 1.37109375 2.69921875 C0.19740234 2.35310547 0.19740234 2.35310547 -1 2 C-0.67 1.34 -0.34 0.68 0 0 Z " fill="#9A8B48" transform="translate(472,124)"/>
<path d="M0 0 C2.625 2.0625 2.625 2.0625 4 4 C3.360625 3.835 2.72125 3.67 2.0625 3.5 C-5.69932038 2.23276402 -10.37422898 2.67296586 -17 7 C-17.66 7 -18.32 7 -19 7 C-17.60415208 3.62670085 -16.07634389 1.95767338 -13 0 C-8.5914079 -1.4695307 -4.51024726 -0.98915406 0 0 Z " fill="#ADA171" transform="translate(317,119)"/>
<path d="M0 0 C-2.70455572 1.23734647 -5.41102673 2.47007147 -8.12109375 3.6953125 C-10.29469852 4.68036541 -12.46153599 5.6803702 -14.625 6.6875 C-20.65415931 9.03217307 -26.50123844 10.33326982 -33 10 C-29.553713 8.15347092 -25.99592822 6.86324858 -22.3125 5.5625 C-21.07628906 5.12550781 -19.84007812 4.68851563 -18.56640625 4.23828125 C-15.63410811 3.22016678 -12.69750285 2.22291558 -9.75 1.25 C-3.15789474 -0.94736842 -3.15789474 -0.94736842 0 0 Z " fill="#ACA68D" transform="translate(254,141)"/>
<path d="M0 0 C1.32 0.33 2.64 0.66 4 1 C4.08153933 2.58246707 4.13943557 4.16616273 4.1875 5.75 C4.22230469 6.63171875 4.25710938 7.5134375 4.29296875 8.421875 C3.94183723 11.51183241 2.95244122 12.63154225 1 15 C-0.0672837 17.26405402 -0.99864959 19.55916337 -1.9375 21.87890625 C-3.02894579 24.05778517 -4.19006788 25.39060013 -6 27 C-4.6943639 21.99506162 -2.97661707 17.2981496 -1.01953125 12.51171875 C0.39233519 9.03344243 1.69627462 5.52005853 3 2 C2.01 1.67 1.02 1.34 0 1 C0 0.67 0 0.34 0 0 Z " fill="#A3A095" transform="translate(461,188)"/>
<path d="M0 0 C0.33 0.66 0.66 1.32 1 2 C0.34 2 -0.32 2 -1 2 C-1.268125 2.804375 -1.53625 3.60875 -1.8125 4.4375 C-2.204375 5.283125 -2.59625 6.12875 -3 7 C-3.99 7.33 -4.98 7.66 -6 8 C-6.46535156 8.62648438 -6.93070313 9.25296875 -7.41015625 9.8984375 C-9.21665 12.28638255 -10.79966759 13.24603196 -13.4375 14.625 C-14.58025391 15.23214844 -14.58025391 15.23214844 -15.74609375 15.8515625 C-16.48988281 16.23054688 -17.23367187 16.60953125 -18 17 C-18.67160156 17.39960938 -19.34320313 17.79921875 -20.03515625 18.2109375 C-22.43796241 19.17588153 -23.60330292 18.85596324 -26 18 C-25.47792969 17.81566406 -24.95585937 17.63132812 -24.41796875 17.44140625 C-17.17742294 14.58830151 -11.83464843 10.06029694 -6 5 C-4.77331307 3.97618822 -3.54471161 2.95465581 -2.3125 1.9375 C-1.549375 1.298125 -0.78625 0.65875 0 0 Z " fill="#ACA68D" transform="translate(209,454)"/>
<path d="M0 0 C1.87524747 0.14261591 3.75018964 0.28924857 5.625 0.4375 C6.66914063 0.51871094 7.71328125 0.59992188 8.7890625 0.68359375 C12 1 12 1 14.75 1.5 C19.27922948 2.19680454 23.80044194 2.36346431 28.375 2.5625 C29.30183594 2.60568359 30.22867187 2.64886719 31.18359375 2.69335938 C33.45560294 2.79876186 35.72770925 2.90088606 38 3 C38 3.33 38 3.66 38 4 C33.52088918 4.05856225 29.0418783 4.09378482 24.5625 4.125 C23.30244141 4.14175781 22.04238281 4.15851563 20.74414062 4.17578125 C13.85038335 4.21177998 7.61779145 4.02426562 1 2 C0.67 1.34 0.34 0.68 0 0 Z " fill="#A6954A" transform="translate(408,156)"/>
<path d="M0 0 C1.09789323 3.26528196 0.92849816 4.98207599 -0.36328125 8.15234375 C-0.67330078 8.92900391 -0.98332031 9.70566406 -1.30273438 10.50585938 C-1.63595703 11.30830078 -1.96917969 12.11074219 -2.3125 12.9375 C-2.63412109 13.73607422 -2.95574219 14.53464844 -3.28710938 15.35742188 C-4.18208165 17.57555644 -5.09004314 19.78798243 -6 22 C-6.66849576 23.66593387 -7.33623895 25.33217402 -8 27 C-8.33 27 -8.66 27 -9 27 C-8.5741205 19.61808871 -5.99807347 13.70211531 -3 7 C-2.39331801 5.58440869 -1.7886233 4.16796071 -1.1875 2.75 C-0.5996875 1.38875 -0.5996875 1.38875 0 0 Z " fill="#9C9676" transform="translate(406,338)"/>
<path d="M0 0 C2.0625 0.4375 2.0625 0.4375 4 1 C2.02 1.99 2.02 1.99 0 3 C0 17.19 0 31.38 0 46 C-0.33 46 -0.66 46 -1 46 C-1.02527062 39.60962769 -1.04283317 33.21926817 -1.05493164 26.82885742 C-1.05997308 24.65307127 -1.06680607 22.47728853 -1.07543945 20.30151367 C-1.08751338 17.18146933 -1.09323005 14.06146962 -1.09765625 10.94140625 C-1.10281754 9.96224747 -1.10797882 8.98308868 -1.11329651 7.97425842 C-1.11337204 7.07340012 -1.11344757 6.17254181 -1.11352539 5.24438477 C-1.115746 4.44718521 -1.11796661 3.64998566 -1.12025452 2.82862854 C-1 1 -1 1 0 0 Z " fill="#F4F2E6" transform="translate(321,190)"/>
<path d="M0 0 C0.33 0 0.66 0 1 0 C1.44339067 6.02536255 0.06364451 10.02811111 -2.5 15.4375 C-2.83386719 16.16904297 -3.16773437 16.90058594 -3.51171875 17.65429688 C-4.3294393 19.44160035 -5.16310347 21.22159487 -6 23 C-6.66 23 -7.32 23 -8 23 C-5.81659819 15.13620323 -3.00714974 7.58324716 0 0 Z " fill="#A49E84" transform="translate(96,300)"/>
<path d="M0 0 C1.11524806 3.29614671 0.91001811 5.02440969 -0.3984375 8.22265625 C-0.71296875 9.00833984 -1.0275 9.79402344 -1.3515625 10.60351562 C-1.68929688 11.41498047 -2.02703125 12.22644531 -2.375 13.0625 C-3.02896601 14.67825586 -3.68262455 16.29413622 -4.3359375 17.91015625 C-4.77752197 18.97955444 -4.77752197 18.97955444 -5.22802734 20.07055664 C-5.8766483 21.69169878 -6.44783961 23.34351882 -7 25 C-7.99 25.33 -8.98 25.66 -10 26 C-7.54774995 16.9884795 -4.27472688 8.31306332 0 0 Z " fill="#8F8A6F" transform="translate(432,273)"/>
<path d="M0 0 C0.33 0 0.66 0 1 0 C1.74379781 22.20374199 1.74379781 22.20374199 -5 31 C-5.66 31 -6.32 31 -7 31 C-6.731875 30.360625 -6.46375 29.72125 -6.1875 29.0625 C-5.795625 28.051875 -5.40375 27.04125 -5 26 C-4.75894531 25.42636719 -4.51789063 24.85273438 -4.26953125 24.26171875 C-1.29171688 16.47707713 -0.8033065 8.23152898 0 0 Z " fill="#9D9779" transform="translate(343,131)"/>
<path d="M0 0 C1.96931188 4.98406094 -0.64075558 9.18115642 -2.53515625 13.8515625 C-4.31202612 17.67064815 -5.91223159 20.14975224 -9 23 C-11.15234375 23.640625 -11.15234375 23.640625 -13 24 C-12.60167969 23.55269531 -12.20335937 23.10539062 -11.79296875 22.64453125 C-11.26316406 22.03996094 -10.73335938 21.43539062 -10.1875 20.8125 C-9.66542969 20.22082031 -9.14335937 19.62914062 -8.60546875 19.01953125 C-5.3000702 14.86164549 -3.42119753 10.7354819 -1.8125 5.6875 C-1.29623047 4.08455078 -1.29623047 4.08455078 -0.76953125 2.44921875 C-0.51558594 1.64097656 -0.26164062 0.83273438 0 0 Z " fill="#9D9988" transform="translate(507,149)"/>
<path d="M0 0 C0.33 0.66 0.66 1.32 1 2 C-1.27603292 8.0260681 -4.5136301 13.39556774 -9 18 C-9.99 18.33 -10.98 18.66 -12 19 C-10.49594032 15.75991123 -8.64115907 12.96368223 -6.5625 10.0625 C-4.21671589 6.78448203 -2.03569821 3.47998563 0 0 Z " fill="#A9A793" transform="translate(222,435)"/>
<path d="M0 0 C2.375 0.1875 2.375 0.1875 5 1 C6.125 3.4375 6.125 3.4375 7 6 C7.99 6.66 8.98 7.32 10 8 C9.67 8.66 9.34 9.32 9 10 C7.68 9.67 6.36 9.34 5 9 C5 8.34 5 7.68 5 7 C0.05 7 -4.9 7 -10 7 C-10 6.67 -10 6.34 -10 6 C-5.38 6 -0.76 6 4 6 C4 4.68 4 3.36 4 2 C2.68 1.67 1.36 1.34 0 1 C0 0.67 0 0.34 0 0 Z " fill="#A19660" transform="translate(151,199)"/>
<path d="M0 0 C0.33 0 0.66 0 1 0 C1 2.31 1 4.62 1 7 C-3.50353262 8.75747614 -7.17639811 9.19294408 -12 9 C-11.401875 8.731875 -10.80375 8.46375 -10.1875 8.1875 C-7.95707307 7.13819956 -7.95707307 7.13819956 -6.5625 5.375 C-5 4 -5 4 -2.3125 3.8125 C-1.1678125 3.9053125 -1.1678125 3.9053125 0 4 C0 2.68 0 1.36 0 0 Z " fill="#6D6D6B" transform="translate(167,178)"/>
<path d="M0 0 C1.34579888 3.05152072 0.89705181 4.33421911 -0.109375 7.6015625 C-0.6445403 8.94742375 -1.19184816 10.28850797 -1.75 11.625 C-2.01554687 12.305625 -2.28109375 12.98625 -2.5546875 13.6875 C-3.99681758 17.22981951 -4.7454205 18.83028033 -8 21 C-6.44590174 15.25454581 -4.69485854 9.94122961 -1.8671875 4.69140625 C-0.85972257 2.83153821 -0.85972257 2.83153821 0 0 Z " fill="#9C9988" transform="translate(443,245)"/>
<path d="M0 0 C2.13586678 3.20380017 2.23132175 4.01939967 2.125 7.6875 C2.10695313 8.49574219 2.08890625 9.30398438 2.0703125 10.13671875 C2.03550781 11.05904297 2.03550781 11.05904297 2 12 C1.34 12 0.68 12 0 12 C-0.2475 12.61875 -0.495 13.2375 -0.75 13.875 C-2.20628639 16.35068687 -3.37812506 16.95125002 -6 18 C-6 17.34 -6 16.68 -6 16 C-5.195625 15.360625 -4.39125 14.72125 -3.5625 14.0625 C0.09660458 9.6894238 -0.10687506 5.54778726 0 0 Z " fill="#AAA590" transform="translate(368,534)"/>
<path d="M0 0 C1.68425161 4.05241145 0.14931311 7.31706259 -1.3125 11.1875 C-1.53873047 11.82880859 -1.76496094 12.47011719 -1.99804688 13.13085938 C-3.73334478 17.86667239 -3.73334478 17.86667239 -6 19 C-5.28739906 14.71620357 -3.93078264 10.74906147 -2.4375 6.6875 C-2.20353516 6.04232422 -1.96957031 5.39714844 -1.72851562 4.73242188 C-1.15552993 3.15378781 -0.57820536 1.57672974 0 0 Z " fill="#9E9C88" transform="translate(125,227)"/>
<path d="M0 0 C0.33 0 0.66 0 1 0 C1.28643366 5.53771745 1.24524216 9.24803827 -2 14 C-4.1875 14.875 -4.1875 14.875 -6 15 C-5.34 14.67 -4.68 14.34 -4 14 C-3.66073053 11.66752239 -3.32759934 9.33414529 -3 7 C-2.34 6.34 -1.68 5.68 -1 5 C-0.35232207 2.42938689 -0.35232207 2.42938689 0 0 Z " fill="#968E67" transform="translate(489,132)"/>
<path d="M0 0 C0.66 0 1.32 0 2 0 C2.34933594 0.99902344 2.69867187 1.99804688 3.05859375 3.02734375 C3.51807919 4.33078205 3.97772279 5.6341646 4.4375 6.9375 C4.66759766 7.59685547 4.89769531 8.25621094 5.13476562 8.93554688 C6.11964592 12.22328622 6.11964592 12.22328622 8 15 C8.04063832 16.66617115 8.042721 18.33388095 8 20 C5.6282642 17.13277622 4.41377315 14.70652779 3.4375 11.125 C3.19257812 10.25359375 2.94765625 9.3821875 2.6953125 8.484375 C2.46585938 7.66453125 2.23640625 6.8446875 2 6 C1.34370484 3.99657266 0.68239354 1.99468882 0 0 Z " fill="#A69A65" transform="translate(517,235)"/>
<path d="M0 0 C3.625 0.1875 3.625 0.1875 6.625 2.1875 C6.625 2.8475 6.625 3.5075 6.625 4.1875 C5.16577307 4.07340407 3.70759402 3.94584456 2.25 3.8125 C1.03183594 3.70808594 1.03183594 3.70808594 -0.2109375 3.6015625 C-2.375 3.1875 -2.375 3.1875 -4.375 1.1875 C-3.375 0.1875 -3.375 0.1875 0 0 Z " fill="#9E8932" transform="translate(475.375,123.8125)"/>
<path d="M0 0 C0.66 0 1.32 0 2 0 C2 2.64 2 5.28 2 8 C-4.0546875 8.1953125 -4.0546875 8.1953125 -6 8 C-6.66 7.34 -7.32 6.68 -8 6 C-5.36 6 -2.72 6 0 6 C0 4.02 0 2.04 0 0 Z " fill="#B09A38" transform="translate(483,197)"/>
<path d="M0 0 C0.66 0 1.32 0 2 0 C1.95875 0.721875 1.9175 1.44375 1.875 2.1875 C1.83240846 4.98882494 1.83240846 4.98882494 3 7.3125 C4.37479501 11.00726159 4.13323119 14.06967983 4 18 C3.67 18 3.34 18 3 18 C1.14256832 11.88595404 -0.42765417 6.41481258 0 0 Z " fill="#8B876E" transform="translate(152,128)"/>
<path d="M0 0 C1.35304209 4.05912626 0.15216503 5.77149591 -1.4375 9.6875 C-1.91058594 10.86699219 -2.38367188 12.04648438 -2.87109375 13.26171875 C-3.24363281 14.16535156 -3.61617187 15.06898438 -4 16 C-4.66 16 -5.32 16 -6 16 C-1.89041096 1.89041096 -1.89041096 1.89041096 0 0 Z " fill="#9B9679" transform="translate(132,211)"/>
<path d="M0 0 C1.32 1.65 2.64 3.3 4 5 C3.67 5.66 3.34 6.32 3 7 C2.34 6.67 1.68 6.34 1 6 C0.67 7.32 0.34 8.64 0 10 C-0.66 10 -1.32 10 -2 10 C-2 7.36 -2 4.72 -2 2 C-1.34 2 -0.68 2 0 2 C0 1.34 0 0.68 0 0 Z " fill="#9C9159" transform="translate(485,203)"/>
<path d="M0 0 C0.66 0.33 1.32 0.66 2 1 C1.03320312 1.30550781 1.03320312 1.30550781 0.046875 1.6171875 C-2.31153872 2.8667935 -2.31153872 2.8667935 -2.609375 5.8203125 C-2.65578125 6.91085938 -2.7021875 8.00140625 -2.75 9.125 C-2.80671875 10.22070312 -2.8634375 11.31640625 -2.921875 12.4453125 C-2.94765625 13.28835937 -2.9734375 14.13140625 -3 15 C-3.33 15 -3.66 15 -4 15 C-4 13.02 -4 11.04 -4 9 C-4.66 9 -5.32 9 -6 9 C-6 7.68 -6 6.36 -6 5 C-5.34 5 -4.68 5 -4 5 C-3.896875 4.360625 -3.79375 3.72125 -3.6875 3.0625 C-3.460625 2.381875 -3.23375 1.70125 -3 1 C-2.01 0.67 -1.02 0.34 0 0 Z " fill="#DAD2B2" transform="translate(489,188)"/>
<path d="M0 0 C4.875 4.75 4.875 4.75 6 7 C5.01 7.66 4.02 8.32 3 9 C2.42251197 10.96361864 2.42251197 10.96361864 2.3125 13.125 C2.209375 14.40375 2.10625 15.6825 2 17 C1.67 17 1.34 17 1 17 C1.01160156 16.10796875 1.02320313 15.2159375 1.03515625 14.296875 C1.04417969 13.12640625 1.05320312 11.9559375 1.0625 10.75 C1.07410156 9.58984375 1.08570313 8.4296875 1.09765625 7.234375 C1.01782092 4.59022872 0.78643778 2.50173909 0 0 Z " fill="#9A9063" transform="translate(285,163)"/>
<path d="M0 0 C0.33 0.66 0.66 1.32 1 2 C3.02463255 2.65213292 3.02463255 2.65213292 5 3 C5 3.99 5 4.98 5 6 C4.34 6 3.68 6 3 6 C2.67 6.99 2.34 7.98 2 9 C1.67 7.68 1.34 6.36 1 5 C0.01 5 -0.98 5 -2 5 C-1.125 1.125 -1.125 1.125 0 0 Z " fill="#A28F3A" transform="translate(480,148)"/>
<path d="M0 0 C0.33 0.66 0.66 1.32 1 2 C0.06421005 4.35981813 -0.93347808 6.69631264 -2 9 C-2.66 9 -3.32 9 -4 9 C-4.33 9.99 -4.66 10.98 -5 12 C-4.10164835 4.21428571 -4.10164835 4.21428571 -2 1 C-1.34 0.67 -0.68 0.34 0 0 Z " fill="#A09B89" transform="translate(449,233)"/>
<path d="M0 0 C1.37095624 3.69037278 0.60010967 5.70883835 -0.9375 9.25 C-1.31777344 10.14203125 -1.69804687 11.0340625 -2.08984375 11.953125 C-2.39019531 12.62859375 -2.69054687 13.3040625 -3 14 C-3.66 13.67 -4.32 13.34 -5 13 C-4.54554036 11.58208592 -4.08625056 10.16571954 -3.625 8.75 C-3.24214844 7.56664062 -3.24214844 7.56664062 -2.8515625 6.359375 C-2.04826333 4.13372042 -1.10288338 2.09068328 0 0 Z " fill="#9D9884" transform="translate(432,273)"/>
<path d="M0 0 C1.43861294 0.08746284 2.87597508 0.19565348 4.3125 0.3125 C5.11300781 0.37050781 5.91351563 0.42851562 6.73828125 0.48828125 C9.36272334 1.08206694 10.30820672 1.95780294 12 4 C3.42857143 3 3.42857143 3 0 2 C0 1.34 0 0.68 0 0 Z " fill="#AFA05E" transform="translate(363,140)"/>
<path d="M0 0 C1.125 3.75 1.125 3.75 0 6 C-0.22858114 8.0374763 -0.41024278 10.08040303 -0.5625 12.125 C-0.64628906 13.22070312 -0.73007812 14.31640625 -0.81640625 15.4453125 C-0.87699219 16.28835937 -0.93757813 17.13140625 -1 18 C-1.33 18 -1.66 18 -2 18 C-2.05397335 15.5622037 -2.09365616 13.12560315 -2.125 10.6875 C-2.14175781 9.99720703 -2.15851563 9.30691406 -2.17578125 8.59570312 C-2.21217794 4.82864604 -2.14378864 3.21568296 0 0 Z " fill="#AEACA1" transform="translate(297,126)"/>
<path d="M0 0 C0.66 0.33 1.32 0.66 2 1 C-3.01989102 5.11888494 -6.59858988 5.51211281 -13 5 C-13 4.67 -13 4.34 -13 4 C-11.783125 3.71125 -10.56625 3.4225 -9.3125 3.125 C-6.77655114 2.5011117 -4.55073358 1.81443344 -2.125 0.8125 C-1.073125 0.4103125 -1.073125 0.4103125 0 0 Z " fill="#9B8A44" transform="translate(213,154)"/>
<path d="M0 0 C0.33 0.66 0.66 1.32 1 2 C0.34 2 -0.32 2 -1 2 C-1.2475 2.804375 -1.495 3.60875 -1.75 4.4375 C-3 7 -3 7 -5.125 7.8125 C-5.74375 7.874375 -6.3625 7.93625 -7 8 C-5.50902342 4.2047869 -3.24299151 2.38957269 0 0 Z " fill="#9F9877" transform="translate(209,454)"/>
<path d="M0 0 C0.33 0 0.66 0 1 0 C1.56638908 4.81430721 -0.17438373 7.20307814 -3 11 C-3.75 9.4375 -3.75 9.4375 -4 7 C-2.86915563 4.49713591 -1.47860484 2.32992278 0 0 Z " fill="#ABA483" transform="translate(554,426)"/>
<path d="M0 0 C1.23593891 3.70781672 0.5678132 4.67510253 -0.9375 8.1875 C-1.31777344 9.08855469 -1.69804687 9.98960937 -2.08984375 10.91796875 C-2.54037109 11.94857422 -2.54037109 11.94857422 -3 13 C-3.33 13 -3.66 13 -4 13 C-4.45732667 7.28341664 -3.52273754 4.51350747 0 0 Z " fill="#9C9268" transform="translate(457,212)"/>
<path d="M0 0 C0.66 0 1.32 0 2 0 C2.53229326 1.26607607 3.05044544 2.53810412 3.5625 3.8125 C3.85253906 4.52019531 4.14257812 5.22789062 4.44140625 5.95703125 C5 8 5 8 4 11 C2.03810791 7.3321148 0.60698743 4.12751449 0 0 Z " fill="#A8995B" transform="translate(536,282)"/>
<path d="M0 0 C1.32 0 2.64 0 4 0 C3.625 2.4375 3.625 2.4375 3 5 C2.01 5.495 2.01 5.495 1 6 C1 5.34 1 4.68 1 4 C0.34 3.67 -0.32 3.34 -1 3 C-0.67 2.01 -0.34 1.02 0 0 Z " fill="#979278" transform="translate(137,133)"/>
<path d="M0 0 C-0.33 0.99 -0.66 1.98 -1 3 C-3.06640625 3.73046875 -3.06640625 3.73046875 -5.5625 4.1875 C-6.38878906 4.34605469 -7.21507812 4.50460937 -8.06640625 4.66796875 C-9.02353516 4.83232422 -9.02353516 4.83232422 -10 5 C-6.87744158 1.76211982 -4.62880694 0 0 0 Z " fill="#96884A" transform="translate(186,473)"/>
<path d="M0 0 C0.66 0 1.32 0 2 0 C0.515 5.445 0.515 5.445 -1 11 C-1.33 11 -1.66 11 -2 11 C-2.25 3.375 -2.25 3.375 0 0 Z " fill="#968A55" transform="translate(106,277)"/>
<path d="M0 0 C2.125 0.375 2.125 0.375 4 1 C1.31158141 3.25245881 -0.64641875 4.88213958 -4 6 C-2.84826645 3.53199953 -1.95216435 1.95216435 0 0 Z " fill="#E6E1CD" transform="translate(126,186)"/>
<path d="M0 0 C-1.28519565 2.86697492 -2.57129254 4.97607712 -5 7 C-5.66 7 -6.32 7 -7 7 C-3.86206897 0 -3.86206897 0 0 0 Z " fill="#E9E2C6" transform="translate(128,107)"/>
<path d="M0 0 C0.99 0.33 1.98 0.66 3 1 C3.33 3.97 3.66 6.94 4 10 C1.81024227 6.71536341 1.00193437 3.79303725 0 0 Z " fill="#B0A577" transform="translate(193,239)"/>
<path d="M0 0 C0.99 0.33 1.98 0.66 3 1 C3 1.66 3 2.32 3 3 C3.99 4.485 3.99 4.485 5 6 C0.25 4.125 0.25 4.125 -2 3 C-2 2.34 -2 1.68 -2 1 C-1.34 0.67 -0.68 0.34 0 0 Z " fill="#A5A293" transform="translate(454,181)"/>
<path d="M0 0 C1.32 0.33 2.64 0.66 4 1 C3.360625 1.61875 2.72125 2.2375 2.0625 2.875 C-0.03883584 4.82597612 -0.03883584 4.82597612 -1 7 C-1.99 6.67 -2.98 6.34 -4 6 C-2.68 4.02 -1.36 2.04 0 0 Z " fill="#9D9A8C" transform="translate(176,158)"/>
<path d="M0 0 C1 2 1 2 0.25 4.5 C-1 7 -1 7 -4 9 C-2.94124926 5.59687262 -1.99097846 2.98646769 0 0 Z " fill="#E9E2C5" transform="translate(259,515)"/>
</svg>

