<?xml version="1.0" encoding="UTF-8"?>
<svg version="1.1" xmlns="http://www.w3.org/2000/svg" width="626" height="626">
<path d="M0 0 C206.58 0 413.16 0 626 0 C626 206.58 626 413.16 626 626 C419.42 626 212.84 626 0 626 C0 419.42 0 212.84 0 0 Z " fill="#1976D2" transform="translate(0,0)"/>
<path d="M0 0 C4.30764815 1.56641751 8.06171464 3.68336156 12 6 C11.45023006 10.61806748 10.09365169 13.87973473 8 18 C7.28568228 19.76018668 6.59980269 21.53208935 5.9375 23.3125 C3.400832 30.01545301 0.73755975 36.66367337 -1.9375 43.3125 C-4.70655909 50.20155121 -7.44096807 57.09260107 -10 64.0625 C-13.27747185 72.93040242 -16.96642253 81.62318522 -20.6328125 90.3359375 C-24.25809819 98.97644636 -27.62502148 107.63942097 -30.65625 116.5078125 C-31.65815284 119.11159487 -32.70049143 121.44701577 -33.97265625 123.91015625 C-36.03382168 127.9319896 -37.51298813 132.03109417 -38.9375 136.3125 C-40.59353823 141.15515724 -42.29622781 145.87278701 -44.5 150.5 C-46.67749649 155.12364514 -48.51039607 159.82335942 -50.25 164.625 C-50.50845703 165.31787109 -50.76691406 166.01074219 -51.03320312 166.72460938 C-52.9226394 172.05030041 -53.34651634 176.11864705 -54 182 C-31.56 182 -9.12 182 14 182 C14.33 128.21 14.66 74.42 15 19 C19.4333436 17.8916641 20.56829156 18.28011289 24.6875 19.875 C25.66074219 20.24367187 26.63398438 20.61234375 27.63671875 20.9921875 C30 22 30 22 31 23 C31.09680041 25.05027739 31.12186943 27.10394879 31.12025452 29.1565094 C31.12110894 29.80664865 31.12196337 30.4567879 31.12284368 31.12662834 C31.12450026 33.3208558 31.11897425 35.51500802 31.11352539 37.70922852 C31.11324353 39.27585854 31.11340123 40.8424887 31.1139679 42.40911865 C31.11425592 46.67546377 31.10835843 50.94178102 31.10139394 55.20811963 C31.09516118 59.66177051 31.09455666 64.11542197 31.09336853 68.56907654 C31.09025498 77.00867443 31.08204128 85.44825944 31.07201904 93.88785166 C31.06085863 103.49349444 31.05534764 113.09913782 31.05032361 122.70478547 C31.03985868 142.46986578 31.02151291 162.23492841 31 182 C52.45 182 73.9 182 96 182 C94.26423548 172.30057645 94.26423548 172.30057645 91.125 163.4375 C90.85888916 162.79820557 90.59277832 162.15891113 90.31860352 161.50024414 C89.55376172 159.66346674 88.77721488 157.83157616 88 156 C85.70524184 150.42122398 83.56521831 144.81595421 81.5625 139.125 C79.60844932 133.5985131 77.47159209 128.18865332 75.18359375 122.79296875 C72.01758536 115.32202485 69.12676394 107.74351573 66.22265625 100.16796875 C64.85004803 96.6114663 63.44385802 93.06984125 62.01977539 89.53369141 C59.53228403 83.35337412 57.06536409 77.1647993 54.59765625 70.9765625 C53.7526139 68.85937112 52.90756169 66.74218366 52.0625 64.625 C51.64548828 63.57828125 51.22847656 62.5315625 50.79882812 61.453125 C48.69197568 56.17785304 46.55244899 50.9210227 44.34375 45.6875 C42.50417214 41.29137322 40.88205959 36.91504443 39.4375 32.375 C38.03940526 28.01118216 36.52101018 23.76537017 34.6875 19.5625 C32.85551502 15.13766532 32.57458702 11.7646254 33 7 C34 5 34 5 36.25 3.875 C41.2 2.3 41.2 2.3 44 3 C48.39731108 8.37287647 50.901266 15.05477553 53.4375 21.4375 C53.82437988 22.39527344 54.21125977 23.35304687 54.60986328 24.33984375 C57.27903664 31.01111377 59.776794 37.73157278 62.06030273 44.54467773 C63.41660009 48.55555181 65.07613109 52.23348092 67 56 C67.79851528 57.94721001 68.56849193 59.90631885 69.3125 61.875 C69.74046875 63.00035156 70.1684375 64.12570313 70.609375 65.28515625 C71.58616071 67.8944911 72.55526096 70.50575121 73.515625 73.12109375 C76.8613164 82.22203584 76.8613164 82.22203584 81.01171875 90.9765625 C82.82423248 94.68755899 84.19305604 98.57973459 85.6484375 102.44140625 C87.05533732 106.14570027 88.51917762 109.82487668 90 113.5 C92.73462223 120.30790716 95.39516403 127.14139519 98 134 C98.23187012 134.60924316 98.46374023 135.21848633 98.70263672 135.84619141 C101.88288768 144.21426657 104.95950018 152.61271484 107.90795898 161.06542969 C109.09998405 164.47836811 110.32473966 167.87216352 111.61328125 171.25 C116.7747933 185.20789173 114.47624489 201.83973371 111 216 C110.7525 217.01545898 110.505 218.03091797 110.25 219.07714844 C104.84148539 240.56723022 96.93957201 257.47730911 81 273 C80.34773437 273.66128906 79.69546875 274.32257813 79.0234375 275.00390625 C65.33901255 288.01866785 42.12437116 298.74861494 23.36401367 298.40014648 C8.39414575 297.76301755 -4.67859822 294.90008411 -18 288 C-19.06863281 287.46375 -20.13726562 286.9275 -21.23828125 286.375 C-29.28064784 282.03566861 -35.58289358 276.40797825 -42 270 C-43.09634766 268.92105469 -43.09634766 268.92105469 -44.21484375 267.8203125 C-62.93774554 248.17053438 -71.44221397 220.92229056 -71.4375 194.375 C-71.43889984 193.62054596 -71.44029968 192.86609192 -71.44174194 192.08877563 C-71.42423829 180.62510077 -70.44793328 170.66361865 -66 160 C-65.23962229 158.04366802 -64.48508556 156.08506192 -63.734375 154.125 C-63.30229736 153.00053467 -62.87021973 151.87606934 -62.42504883 150.7175293 C-60.88288051 146.69447004 -59.34495462 142.66981094 -57.80859375 138.64453125 C-57.53368607 137.92440353 -57.25877838 137.20427582 -56.97554016 136.46232605 C-55.84369882 133.49726367 -54.71187465 130.53219559 -53.58129883 127.56665039 C-47.92079671 112.72099911 -47.92079671 112.72099911 -45.12036133 105.7800293 C-43.91649155 102.79278477 -42.72426899 99.80104677 -41.53311157 96.80871582 C-32.50924877 74.14160019 -23.37784984 51.52310179 -14 29 C-13.53948242 27.88898926 -13.07896484 26.77797852 -12.60449219 25.63330078 C-11.3904206 22.71031625 -10.16645281 19.79175333 -8.9375 16.875 C-8.60371338 16.0703833 -8.26992676 15.2657666 -7.92602539 14.43676758 C-5.73739966 9.2973607 -3.09031779 4.6516667 0 0 Z " fill="#F9FBFB" transform="translate(452,184)"/>
<path d="M0 0 C2.8982657 2.34849159 4.31540215 5.44888724 5.95703125 8.72265625 C6.29541016 9.37041016 6.63378906 10.01816406 6.98242188 10.68554688 C10.4587876 17.41638264 13.2405945 24.36427806 15.83203125 31.47265625 C17.61097076 36.2972147 19.48167964 40.89766661 21.90625 45.4375 C23.25230482 48.29454125 24.2376372 51.23835314 25.26953125 54.22265625 C26.91686657 58.96758834 28.7352372 63.50063874 30.89453125 68.03515625 C34.05737615 74.71585925 36.50435693 81.54681122 38.89453125 88.53515625 C41.86947566 97.21544582 44.83607721 105.773511 48.75 114.0859375 C52.11739429 121.29193142 54.71360257 128.78634604 57.32299805 136.29125977 C60.00918053 143.96952184 62.90212887 151.56892613 65.82299805 159.16064453 C76.19475436 186.43376756 69.8971091 214.78273955 59.46484375 241.1484375 C57.64812199 245.06659114 55.56058802 248.69162037 53.26953125 252.34765625 C52.8314917 253.04689209 52.39345215 253.74612793 51.94213867 254.46655273 C48.1462413 260.38760597 43.83640952 265.5278845 38.89453125 270.53515625 C38.34667969 271.14359375 37.79882812 271.75203125 37.234375 272.37890625 C27.67047573 282.71825681 16.09980475 288.41922685 2.89453125 292.53515625 C1.86070312 292.87546875 0.826875 293.21578125 -0.23828125 293.56640625 C-22.45834967 299.83211745 -43.49801329 294.35215517 -63.10546875 283.53515625 C-67.44713263 280.93576308 -71.30770955 277.87529073 -75.10546875 274.53515625 C-75.88132324 273.85573975 -75.88132324 273.85573975 -76.67285156 273.16259766 C-98.51069198 253.68932244 -110.31074294 227.42349554 -113.10546875 198.53515625 C-113.72957993 186.65590863 -113.96914399 175.81574343 -108.28125 165.09765625 C-105.40507238 159.39277574 -103.55169543 153.33598076 -101.54296875 147.28515625 C-95.28949173 128.7309264 -88.23212946 110.4944051 -80.37109375 92.55859375 C-78.47533493 88.02983657 -76.87234867 83.40713093 -75.25390625 78.7734375 C-73.97721989 75.17352937 -72.57996534 71.63872682 -71.140625 68.1015625 C-68.5657869 61.71790728 -66.12555186 55.27813066 -63.72631836 48.82666016 C-61.33493669 42.44851723 -58.7498444 36.1494146 -56.17236328 29.84472656 C-55.54494296 28.30626202 -54.92058653 26.76654435 -54.29931641 25.22558594 C-46.52958067 5.95926817 -46.52958067 5.95926817 -41.10546875 0.53515625 C-40.11546875 0.53515625 -39.12546875 0.53515625 -38.10546875 0.53515625 C-38.10546875 1.19515625 -38.10546875 1.85515625 -38.10546875 2.53515625 C-37.13609375 2.84453125 -36.16671875 3.15390625 -35.16796875 3.47265625 C-32.10546875 4.53515625 -32.10546875 4.53515625 -31.10546875 5.53515625 C-30.34436546 11.37028149 -32.07028637 14.97141868 -34.609375 20.171875 C-36.42567934 24.25500304 -37.79984299 28.41004855 -39.16796875 32.66015625 C-40.89500301 38.00202746 -42.6998612 43.13477716 -45.11328125 48.2109375 C-46.46450727 51.37621106 -47.49045839 54.63693801 -48.54296875 57.91015625 C-50.29200112 63.32694559 -52.34552929 68.45390428 -54.7890625 73.59375 C-56.39633757 77.18507975 -57.75313598 80.84185023 -59.10546875 84.53515625 C-60.8024237 89.16532647 -62.56649586 93.69370291 -64.66796875 98.16015625 C-67.12914769 103.39804989 -69.01386564 108.77986612 -70.9140625 114.2421875 C-72.17912925 117.73874904 -73.64515991 121.08066241 -75.203125 124.453125 C-76.47155956 127.37985929 -77.42053054 130.38574154 -78.390625 133.421875 C-79.02895245 135.30895234 -79.80873334 137.14680426 -80.60546875 138.97265625 C-81.77452786 141.74917164 -82.62424939 144.27770172 -83.41796875 147.16015625 C-85.27596833 153.59925531 -88.22401891 159.50311016 -91.10546875 165.53515625 C-93.44717098 170.53450467 -94.73182512 175.04058175 -96.10546875 180.53515625 C-73.99546875 180.53515625 -51.88546875 180.53515625 -29.10546875 180.53515625 C-29.43546875 127.40515625 -29.76546875 74.27515625 -30.10546875 19.53515625 C-15.10546875 20.53515625 -15.10546875 20.53515625 -13.10546875 22.53515625 C-12.85937309 25.26441383 -12.85937309 25.26441383 -12.86495972 28.81192017 C-12.86325087 29.46291384 -12.86154202 30.11390752 -12.85978138 30.78462827 C-12.85647529 32.97583263 -12.86750827 35.1667338 -12.87841797 37.35791016 C-12.87898184 38.92468763 -12.87866599 40.49146563 -12.87753296 42.0582428 C-12.87695751 46.32043111 -12.88874277 50.58250758 -12.90268087 54.84466982 C-12.91515634 59.29564127 -12.91635621 63.74661508 -12.91873169 68.19760132 C-12.92495584 76.63010134 -12.94137928 85.0625497 -12.96143067 93.49502695 C-12.98376061 103.09343243 -12.99477578 112.69184034 -13.00482154 122.29026532 C-13.02574472 142.03859117 -13.06093882 161.78687046 -13.10546875 181.53515625 C-11.81135684 181.42885061 -11.81135684 181.42885061 -10.49110126 181.32039738 C0.90815035 180.40872444 0.90815035 180.40872444 6.41918945 180.42163086 C7.51934891 180.42170639 8.61950836 180.42178192 9.75300598 180.42185974 C10.88896713 180.42702103 12.02492828 180.43218231 13.1953125 180.4375 C14.39770065 180.43891495 15.60008881 180.4403299 16.83891296 180.44178772 C20.62831251 180.44732469 24.41764998 180.45986489 28.20703125 180.47265625 C30.79752518 180.47767941 33.38802005 180.48224088 35.97851562 180.48632812 C42.28387486 180.49727336 48.58919862 180.51394722 54.89453125 180.53515625 C54.5912793 179.29185547 54.28802734 178.04855469 53.97558594 176.76757812 C53.80500671 176.06822144 53.63442749 175.36886475 53.4586792 174.64831543 C52.58086186 171.36022801 51.37471039 168.20342121 50.14453125 165.03515625 C49.60917017 163.63419284 49.07402008 162.23314879 48.5390625 160.83203125 C48.26658691 160.12240234 47.99411133 159.41277344 47.71337891 158.68164062 C46.91155091 156.5797707 46.12469966 154.47298868 45.34375 152.36328125 C42.71647489 145.26879368 39.99472709 138.23889401 37.046875 131.26953125 C35.62646154 127.89905863 34.26710577 124.50644178 32.91796875 121.10693359 C32.27077943 119.48062341 31.6206808 117.85546533 30.96655273 116.23193359 C28.56885396 110.27923856 26.27853339 104.29158944 24.01953125 98.28515625 C21.25579712 90.9732602 18.33452674 83.77562018 15.203125 76.61328125 C13.23712032 71.98876875 11.56438315 67.27269987 9.89453125 62.53515625 C4.02938697 46.48788332 -2.58279005 30.64742009 -9.87890625 15.19921875 C-11.9262505 10.75243919 -13.38953969 7.50639774 -13.10546875 2.53515625 C-11.36106077 1.97574266 -9.60961618 1.43823728 -7.85546875 0.91015625 C-6.8809375 0.60851562 -5.90640625 0.306875 -4.90234375 -0.00390625 C-2.10546875 -0.46484375 -2.10546875 -0.46484375 0 0 Z " fill="#F9FBFB" transform="translate(168.10546875,185.46484375)"/>
<path d="M0 0 C6.48360997 4.72407766 10.69506772 9.71618846 14 17 C14.31839844 17.60070312 14.63679687 18.20140625 14.96484375 18.8203125 C19.51961649 28.5175706 17.58894789 40.38165184 14.20703125 50.12109375 C12.54286046 54.09032959 10.55385249 57.54527397 8 61 C7.401875 61.86625 6.80375 62.7325 6.1875 63.625 C2.47675608 67.65380768 -1.76873795 71.25624598 -7 73 C-6.01 73 -5.02 73 -4 73 C-3.67 73.66 -3.34 74.32 -3 75 C-2.01 75.28875 -1.02 75.5775 0 75.875 C0.99 76.24625 1.98 76.6175 3 77 C3.33 78.32 3.66 79.64 4 81 C-0.455 81.99 -0.455 81.99 -5 83 C-5.42987736 90.83645295 -4.21840299 96.31288504 -1.1875 103.5 C-0.46910258 105.25896946 0.2457605 107.01938668 0.95703125 108.78125 C1.30540039 109.64194092 1.65376953 110.50263184 2.01269531 111.3894043 C3.3053421 114.80737465 4.3040457 118.2849345 5.31811523 121.79345703 C6.17505713 124.56647558 7.32942771 127.0925672 8.625 129.6875 C14.99404973 143.09268197 20.0523061 157.1352681 24.953125 171.1328125 C26.168402 174.46122041 27.56595611 177.6678904 29.04296875 180.88671875 C31.40167106 186.09511854 33.43081406 191.44258993 35.41015625 196.8046875 C35.91908823 198.18235914 36.42820685 199.55996184 36.9375 200.9375 C37.19370117 201.63085449 37.44990234 202.32420898 37.71386719 203.03857422 C39.19783829 207.00674664 40.8053433 210.85782251 42.625 214.6875 C44.96893591 219.65993913 46.490497 224.73717652 48.03515625 230.00390625 C49.06836814 233.21230105 50.40831848 236.01207524 51.984375 238.9765625 C53.21978781 241.43788495 54.25144618 243.93329476 55.25 246.5 C55.58515625 247.3559375 55.9203125 248.211875 56.265625 249.09375 C57 252 57 252 57 260 C35.55 260 14.1 260 -8 260 C-8.33 207.53 -8.66 155.06 -9 101 C-18.51911339 96.82912847 -18.51911339 96.82912847 -23 97 C-23.00423194 97.83913657 -23.00846388 98.67827314 -23.01282406 99.5428381 C-23.11598393 119.93054802 -23.22459936 140.31822246 -23.33933926 160.70587063 C-23.39469333 170.5650506 -23.44817885 180.42423418 -23.49731445 190.28344727 C-23.5401296 198.8735009 -23.58640074 207.46352766 -23.63687855 216.05353981 C-23.66350107 220.60479618 -23.68835459 225.15604713 -23.70907402 229.70733452 C-23.72860719 233.98607433 -23.75274079 238.26476286 -23.78049088 242.54345703 C-23.78987897 244.11849604 -23.79754787 245.69354632 -23.80341911 247.26860237 C-23.81165058 249.40967011 -23.82591854 251.5506124 -23.84178162 253.69163513 C-23.84823417 254.89273139 -23.85468672 256.09382765 -23.8613348 257.33132076 C-24 260 -24 260 -25 261 C-27.11681317 261.0942174 -29.23680758 261.11742761 -31.35571289 261.11352539 C-32.01910172 261.11367142 -32.68249054 261.11381744 -33.36598206 261.1139679 C-35.56823956 261.11326881 -37.77041345 261.10547665 -39.97265625 261.09765625 C-41.49580336 261.09579206 -43.01895107 261.09436816 -44.542099 261.09336853 C-48.55837651 261.08954346 -52.57461808 261.07971328 -56.59088135 261.06866455 C-60.68623366 261.05845019 -64.78159176 261.05387086 -68.87695312 261.04882812 C-76.91798528 261.038091 -84.95898817 261.02101472 -93 261 C-95.44204564 250.52204942 -88.89687523 238.6422682 -85 229 C-84.6596875 228.14921875 -84.319375 227.2984375 -83.96875 226.421875 C-83.32560973 224.81402432 -82.6797972 223.20723984 -82.03125 221.6015625 C-80.41105122 217.51424285 -78.87955233 213.39312349 -77.34375 209.2734375 C-76.3270872 206.79679964 -75.25539282 204.49893751 -74.03125 202.12890625 C-71.95688681 198.05412527 -70.44511356 193.8938706 -69 189.5625 C-67.56636598 185.28916783 -66.08771374 181.096953 -64.21875 176.9921875 C-61.02923593 169.96813168 -58.30878662 162.74483255 -55.5 155.5625 C-54.64367692 153.37812584 -53.78678201 151.19397666 -52.92980957 149.00985718 C-52.37448366 147.59444099 -51.81938754 146.17893462 -51.26452637 144.76333618 C-49.53023112 140.34104177 -47.77562613 135.92747186 -46.00585938 131.51928711 C-43.81142643 126.0230848 -41.66031249 120.5096798 -39.5 115 C-37.66975 110.33211445 -35.83712507 105.66518428 -34 101 C-33.42378906 99.53433594 -33.42378906 99.53433594 -32.8359375 98.0390625 C-32.48789062 97.15992188 -32.13984375 96.28078125 -31.78125 95.375 C-31.48283203 94.61960937 -31.18441406 93.86421875 -30.87695312 93.0859375 C-30 91 -30 91 -28.88867188 88.9140625 C-27.78944435 86.89821245 -27.78944435 86.89821245 -28 84 C-30.97 82.35 -33.94 80.7 -37 79 C-37 78.01 -37 77.02 -37 76 C-34.5 73.8125 -34.5 73.8125 -32 72 C-33.66432398 68.2462258 -36.01559947 65.19222602 -38.5 61.9375 C-40.7427709 58.99204276 -42.94631212 56.08053182 -45 53 C-47.30351618 52.60462634 -47.30351618 52.60462634 -50.00390625 52.734375 C-51.04297119 52.73526123 -52.08203613 52.73614746 -53.15258789 52.73706055 C-54.84049438 52.74346558 -54.84049438 52.74346558 -56.5625 52.75 C-73.69580649 52.47853629 -89.50242757 48.18908255 -105 41 C-112.70423406 37.72403397 -120.34026523 35.20483156 -128.53149414 33.51953125 C-132.93087254 32.5437397 -135.9935478 31.41876564 -139 28 C-139.48828125 24.546875 -139.48828125 24.546875 -139.3125 20.75 C-139.26738281 19.48671875 -139.22226562 18.2234375 -139.17578125 16.921875 C-139.11777344 15.95765625 -139.05976563 14.9934375 -139 14 C-127.64869836 13.45658662 -117.88047453 14.6272038 -107 18 C-106.25395508 18.23025879 -105.50791016 18.46051758 -104.73925781 18.69775391 C-97.20173367 21.05778089 -89.80077454 23.57564674 -82.5625 26.75 C-71.55658171 31.42601173 -60.74491068 31.24784102 -49 31 C-48.78085937 29.94941406 -48.56171875 28.89882812 -48.3359375 27.81640625 C-45.64871225 15.63828446 -41.70467329 6.28786798 -31 -1 C-21.50750569 -6.07108536 -9.0127021 -5.88145082 0 0 Z " fill="#1C77D2" transform="translate(491,106)"/>
<path d="M0 0 C2.27033499 1.1961557 4.11270228 2.46477087 6.06640625 4.125 C6.70835937 4.65609375 7.3503125 5.1871875 8.01171875 5.734375 C16.59590464 13.56430188 18.17548276 23.12326331 20.06640625 34.125 C23.04582623 34.17955703 26.02422156 34.21893851 29.00390625 34.25 C30.25010742 34.27513672 30.25010742 34.27513672 31.52148438 34.30078125 C40.24268358 34.3686505 47.41068723 32.54830241 55.42871094 29.20410156 C60.11652509 27.28628052 64.90750831 25.65984849 69.69140625 24 C70.67625 23.65324219 71.66109375 23.30648437 72.67578125 22.94921875 C80.63301591 20.18010109 88.30742039 18.09356337 96.69140625 17 C97.94179688 16.83242187 99.1921875 16.66484375 100.48046875 16.4921875 C104.06640625 16.125 104.06640625 16.125 110.06640625 16.125 C110.06640625 21.075 110.06640625 26.025 110.06640625 31.125 C103.9371449 33.98695971 97.94683276 36.18055046 91.44140625 38 C84.04649713 40.13795842 77.04530806 42.6510321 69.9375 45.609375 C63.16759694 48.34375188 56.12961659 50.41702292 49.13500977 52.49462891 C47.3345896 53.04327577 45.5553284 53.66043543 43.78125 54.2890625 C38.38825057 55.50262914 33.13606516 55.33497693 27.62890625 55.25 C26.51580078 55.24097656 25.40269531 55.23195312 24.25585938 55.22265625 C21.52581602 55.1992224 18.79622615 55.166414 16.06640625 55.125 C15.76750488 55.91398682 15.46860352 56.70297363 15.16064453 57.51586914 C14.04775893 60.16946317 12.90518288 61.50859835 10.94140625 63.5625 C6.56754283 69.07229396 7.55965101 75.44333838 8.06640625 82.125 C6.630866 82.63059908 5.19288605 83.1292749 3.75390625 83.625 C2.95339844 83.9034375 2.15289062 84.181875 1.328125 84.46875 C-0.93359375 85.125 -0.93359375 85.125 -3.93359375 85.125 C-1.5989991 94.51564565 2.17171326 102.78603436 6.41577148 111.43847656 C9.20091261 117.16334477 11.49447466 122.72760217 13.33984375 128.82421875 C14.26951931 131.76819135 15.63852901 134.39340877 17.06640625 137.125 C18.52822299 140.84598807 19.87949997 144.58699548 21.19140625 148.36328125 C21.60390625 149.54277344 22.01640625 150.72226563 22.44140625 151.9375 C22.82039063 153.03707031 23.199375 154.13664063 23.58984375 155.26953125 C24.71286128 158.34263957 26.03879239 161.28950098 27.4140625 164.2578125 C30.27221515 170.46304027 32.71330485 176.79941035 35.12890625 183.1875 C38.77070961 192.7632678 42.42585083 202.32341246 46.44140625 211.75 C50.14757344 220.62440033 53.50916643 229.63478662 56.67578125 238.71484375 C57.07228882 239.85143433 57.07228882 239.85143433 57.47680664 241.01098633 C57.98014036 242.46121363 58.47958109 243.91280035 58.97436523 245.3659668 C60.0485181 248.47187397 61.18373588 251.34324952 62.7421875 254.2421875 C64.06640625 257.125 64.06640625 257.125 64.06640625 263.125 C41.62640625 263.455 19.18640625 263.785 -3.93359375 264.125 C-3.9586499 259.31365479 -3.98370605 254.50230957 -4.00952148 249.54516602 C-4.09280386 233.69132947 -4.18146347 217.83752641 -4.27293301 201.98373508 C-4.32828669 192.36669206 -4.38177215 182.74964533 -4.4309082 173.13256836 C-4.47372383 164.753465 -4.51999509 156.3743892 -4.5704723 147.99532837 C-4.59709444 143.55585493 -4.62194795 139.11638703 -4.64266777 134.67688179 C-4.66220144 130.50320048 -4.6863352 126.32957172 -4.71408463 122.15593719 C-4.72347245 120.6195998 -4.73114146 119.08325084 -4.73701286 117.54689598 C-4.74524479 115.45837555 -4.75951286 113.36998369 -4.77537537 111.2815094 C-4.78182792 110.10991052 -4.78828047 108.93831163 -4.79492855 107.73120975 C-4.63853754 105.19720985 -4.63853754 105.19720985 -5.93359375 104.125 C-8.07563686 103.91516721 -10.22283488 103.75676615 -12.37109375 103.625 C-18.71331841 103.23513767 -18.71331841 103.23513767 -20.93359375 102.125 C-20.86272332 102.74482663 -20.79185289 103.36465326 -20.71883488 104.00326252 C-19.88375525 112.0587372 -19.79818987 120.05170721 -19.82006836 128.14331055 C-19.82035104 129.62274677 -19.82019091 131.10218312 -19.81962585 132.58161926 C-19.81934105 136.56432447 -19.8251862 140.54699904 -19.83219981 144.52969718 C-19.83848644 148.70435156 -19.83904133 152.87900678 -19.84022522 157.05366516 C-19.84332296 164.94398305 -19.85151521 172.83428695 -19.86157471 180.72459871 C-19.87488383 191.39737385 -19.88024834 202.07015287 -19.88607693 212.74293423 C-19.89545627 229.53696662 -19.91538555 246.33096949 -19.93359375 263.125 C-42.04359375 263.125 -64.15359375 263.125 -86.93359375 263.125 C-86.93359375 257.08058803 -86.86645694 256.67365357 -83.93359375 252.125 C-82.8250093 249.53972422 -81.88357118 246.89707254 -80.93359375 244.25 C-79.48867988 240.26896126 -78.04267533 236.31279124 -76.33984375 232.43359375 C-75.15378022 229.64304983 -74.23047777 226.97966473 -73.43359375 224.0625 C-72.29847166 220.13956511 -70.76188323 216.78157895 -68.93359375 213.125 C-68.287661 211.2571079 -67.66529008 209.38100228 -67.05859375 207.5 C-65.36314157 202.27181858 -63.37572282 197.24803782 -61.21875 192.1953125 C-59.88485281 189.00855508 -58.65242262 185.79488 -57.43359375 182.5625 C-55.91598773 178.57228355 -54.30725736 174.67785876 -52.49609375 170.8125 C-50.06844369 165.59726437 -48.04815792 160.26964507 -46.07641602 154.86987305 C-44.917324 151.70369874 -43.70918284 148.60362428 -42.375 145.50390625 C-40.69267639 141.56024793 -39.39415736 137.56183385 -38.09375 133.48046875 C-36.85864644 129.90823321 -35.4629834 126.42670401 -34.04614258 122.92358398 C-31.59023613 116.74582326 -29.32762645 110.49215577 -27.02539062 104.25585938 C-26.64060547 103.22138672 -26.25582031 102.18691406 -25.859375 101.12109375 C-25.51302002 100.18450928 -25.16666504 99.2479248 -24.80981445 98.28295898 C-23.93359375 96.125 -23.93359375 96.125 -22.93359375 95.125 C-22.89266438 92.79202567 -22.89117652 90.45794775 -22.93359375 88.125 C-24.91359375 87.135 -26.89359375 86.145 -28.93359375 85.125 C-28.93359375 84.465 -28.93359375 83.805 -28.93359375 83.125 C-29.59359375 83.125 -30.25359375 83.125 -30.93359375 83.125 C-30.78921875 82.568125 -30.64484375 82.01125 -30.49609375 81.4375 C-30.21765625 80.2928125 -30.21765625 80.2928125 -29.93359375 79.125 C-29.68609375 78.320625 -29.43859375 77.51625 -29.18359375 76.6875 C-28.83810478 73.1462381 -29.82772794 71.97810852 -31.93359375 69.125 C-32.371875 68.65835938 -32.81015625 68.19171875 -33.26171875 67.7109375 C-42.94487615 57.36524828 -45.43280775 45.3407376 -45.2109375 31.6875 C-44.9741052 25.94696781 -43.60172245 21.21189958 -40.93359375 16.125 C-40.29744141 14.91070312 -40.29744141 14.91070312 -39.6484375 13.671875 C-31.45771404 -0.10861796 -14.96695082 -4.46417707 0 0 Z " fill="#1D78D2" transform="translate(158.93359375,102.875)"/>
<path d="M0 0 C0.50789063 0.39832031 1.01578125 0.79664063 1.5390625 1.20703125 C4.77482414 3.697477 7.75714447 5.88078001 11.4375 7.6875 C14 9 14 9 15 12 C15.09571369 13.68269886 15.13374326 15.36894304 15.1386652 17.05435467 C15.14413964 18.10534649 15.14961409 19.1563383 15.15525442 20.23917836 C15.15623253 21.39772432 15.15721064 22.55627029 15.15821838 23.74992371 C15.16562535 25.59136718 15.16562535 25.59136718 15.17318195 27.47001153 C15.18591264 30.88371451 15.19418617 34.29737651 15.20060861 37.71109378 C15.20860531 41.39002395 15.2223056 45.0689333 15.23532104 48.74784851 C15.25709416 55.1238814 15.27523559 61.49991638 15.29092598 67.87596703 C15.313617 77.09472017 15.3417609 86.31345029 15.37124526 95.53218392 C15.41893058 110.48816128 15.46219222 125.44414805 15.50268555 140.40014648 C15.54203569 154.93042737 15.58346076 169.46069989 15.62768555 183.9909668 C15.63040982 184.8862773 15.63313409 185.7815878 15.63594092 186.70402893 C15.64962032 191.1954385 15.6633406 195.68684796 15.67708123 200.17825735 C15.79106078 237.45215424 15.89779339 274.72606907 16 312 C21.28 312 26.56 312 32 312 C31.99539104 310.44633822 31.99078207 308.89267645 31.98603344 307.29193401 C31.87782391 270.439374 31.79533745 233.58683601 31.74467335 196.73415036 C31.73841956 192.2015915 31.73194798 187.66903297 31.7253418 183.13647461 C31.72403024 182.23409588 31.72271869 181.33171715 31.7213674 180.40199361 C31.6995906 165.77668544 31.66015661 151.15147519 31.61423602 136.52622517 C31.56753456 121.5275622 31.53971799 106.52895064 31.52955753 91.53021795 C31.52268523 82.26966675 31.50095365 73.0093923 31.46041767 63.74892626 C31.43405711 57.40499559 31.42598375 51.06120869 31.43249311 44.71722718 C31.43570652 41.05295835 31.43066402 37.38917423 31.40397263 33.72499084 C31.37528847 29.75842906 31.38501477 25.79250598 31.39872742 21.82585144 C31.38416321 20.65952358 31.369599 19.49319572 31.35459346 18.29152459 C31.3645487 17.23356598 31.37450394 16.17560737 31.38476086 15.08558941 C31.38286225 14.16932425 31.38096365 13.2530591 31.37900752 12.30902833 C32 10 32 10 34.34313995 8.24074441 C37 7 37 7 40.125 6.0625 C43.30555862 4.88707616 44.28455941 3.85906765 46 1 C46.99 1.33 47.98 1.66 49 2 C50.00374489 5.01123468 50.12968356 7.01625168 50.1386652 10.16367626 C50.14413964 11.23905185 50.14961409 12.31442744 50.15525442 13.42239016 C50.15623253 14.60817277 50.15721064 15.79395537 50.15821838 17.01567078 C50.16562535 18.89999155 50.16562535 18.89999155 50.17318195 20.82237941 C50.18678105 24.31588124 50.19418654 27.80937332 50.20060861 31.30289471 C50.20860477 35.06771498 50.22230525 38.83251491 50.23532104 42.59732056 C50.25709492 49.12232007 50.27523608 55.64732162 50.29092598 62.17233849 C50.31361631 71.60647494 50.3417603 81.04058889 50.37124526 90.47470627 C50.41893144 105.78008396 50.46219284 121.08547085 50.50268555 136.39086914 C50.54203525 151.26066809 50.58346022 166.13045886 50.62768555 181.00024414 C50.63040982 181.91646361 50.63313409 182.83268308 50.63594092 183.77666678 C50.64962031 188.37296486 50.6633406 192.96926281 50.67708123 197.5655607 C50.79106212 235.7103568 50.89786791 273.85517044 51 312 C51.5455957 312.26636261 52.09119141 312.53272522 52.65332031 312.80715942 C53.37100586 313.16099701 54.08869141 313.51483459 54.828125 313.87939453 C55.5387207 314.22825714 56.24931641 314.57711975 56.98144531 314.93655396 C68.19000152 320.84161803 74.87281857 334.37380543 78.8125 345.9375 C80.26611748 351.26462997 80.9293128 356.52147979 80 362 C76.99904821 366.36502078 72.99821358 368.46860672 68 370 C64.85416083 370.4088906 61.74888999 370.41072558 58.57983398 370.38818359 C57.20287354 370.39606903 57.20287354 370.39606903 55.7980957 370.40411377 C52.7805858 370.4172577 49.7636085 370.40859623 46.74609375 370.3984375 C44.64054768 370.40045967 42.5350023 370.4033723 40.42945862 370.40713501 C36.02394927 370.41155062 31.6186228 370.40515112 27.21313477 370.39111328 C21.57177159 370.37401145 15.93083632 370.38387391 10.28948879 370.40183067 C5.94428798 370.41268006 1.59918834 370.40921702 -2.74601555 370.4014473 C-4.82599882 370.39944904 -6.90599135 370.4018914 -8.98596382 370.40888596 C-11.89396574 370.41652048 -14.80127786 370.4048684 -17.70922852 370.38818359 C-18.56497971 370.39425629 -19.4207309 370.40032898 -20.30241394 370.40658569 C-25.26804079 370.35391131 -28.70369666 369.7642335 -33 367 C-36.87419345 361.83440873 -36.70452119 356.17873186 -36 350 C-33.16175259 336.80839728 -26.09259328 323.86415195 -15 316 C-10.65280017 313.3047361 -7.030723 312.65695324 -2 312 C-2.00075944 311.34730454 -2.00151888 310.69460907 -2.00230134 310.02213496 C-2.04702397 271.36772056 -2.08135615 232.71330949 -2.10213066 194.05887447 C-2.10463218 189.42116692 -2.10722081 184.78345942 -2.10986328 180.14575195 C-2.1103879 179.22243892 -2.11091252 178.29912589 -2.11145304 177.34783367 C-2.12016385 162.38307675 -2.13593753 147.41833514 -2.15430559 132.45358732 C-2.17298587 117.10687538 -2.18411275 101.76017147 -2.18817699 86.41344863 C-2.19092594 76.93803295 -2.19961901 67.46266054 -2.21583293 57.98725817 C-2.22637673 51.49618015 -2.22960656 45.00512462 -2.22700275 38.51403864 C-2.22571739 34.76486895 -2.22773533 31.01577506 -2.23841095 27.26661873 C-2.24988317 23.20822849 -2.24599409 19.15000117 -2.24050903 15.09159851 C-2.24633472 13.89803401 -2.2521604 12.70446951 -2.25816262 11.47473639 C-2.25418052 10.39239401 -2.25019842 9.31005164 -2.24609566 8.194911 C-2.2468551 7.25738151 -2.24761454 6.31985201 -2.24839699 5.35391253 C-2 3 -2 3 0 0 Z " fill="#F6F9FA" transform="translate(288,183)"/>
<path d="M0 0 C5.55864244 0.19852294 10.0712196 0.83088729 14.5625 4.3125 C21.30886959 13.0351875 24.91224873 24.23759136 28.2734375 34.60546875 C29.46459238 38.03094143 30.89053913 41.10178392 32.5625 44.3125 C34.02431674 48.03348807 35.37559372 51.77449548 36.6875 55.55078125 C37.30625 57.32001953 37.30625 57.32001953 37.9375 59.125 C38.31648438 60.22457031 38.69546875 61.32414062 39.0859375 62.45703125 C40.20895503 65.53013957 41.53488614 68.47700098 42.91015625 71.4453125 C45.7683089 77.65054027 48.2093986 83.98691035 50.625 90.375 C54.26680336 99.9507678 57.92194458 109.51091246 61.9375 118.9375 C65.64366719 127.81190033 69.00526018 136.82228662 72.171875 145.90234375 C72.43621338 146.6600708 72.70055176 147.41779785 72.97290039 148.19848633 C73.47623411 149.64871363 73.97567484 151.10030035 74.47045898 152.5534668 C75.54461185 155.65937397 76.67982963 158.53074952 78.23828125 161.4296875 C79.5625 164.3125 79.5625 164.3125 79.5625 170.3125 C57.1225 170.6425 34.6825 170.9725 11.5625 171.3125 C11.53744385 166.50115479 11.5123877 161.68980957 11.48657227 156.73266602 C11.40328989 140.87882947 11.31463028 125.02502641 11.22316074 109.17123508 C11.16780706 99.55419206 11.1143216 89.93714533 11.06518555 80.32006836 C11.02236992 71.940965 10.97609866 63.5618892 10.92562145 55.18282837 C10.89899931 50.74335493 10.8741458 46.30388703 10.85342598 41.86438179 C10.83389231 37.69070048 10.80975855 33.51707172 10.78200912 29.34343719 C10.7726213 27.8070998 10.76495229 26.27075084 10.75908089 24.73439598 C10.75084896 22.64587555 10.73658089 20.55748369 10.72071838 18.4690094 C10.71426583 17.29741052 10.70781328 16.12581163 10.7011652 14.91870975 C10.85755621 12.38470985 10.85755621 12.38470985 9.5625 11.3125 C6.23302907 11.02711678 2.90352372 10.86357367 -0.43359375 10.69140625 C-3.4375 10.3125 -3.4375 10.3125 -5.4375 8.3125 C-4.74618167 0.43147106 -4.74618167 0.43147106 0 0 Z " fill="#1B77D2" transform="translate(143.4375,195.6875)"/>
<path d="M0 0 C6.48360997 4.72407766 10.69506772 9.71618846 14 17 C14.31839844 17.60070312 14.63679687 18.20140625 14.96484375 18.8203125 C19.51961649 28.5175706 17.58894789 40.38165184 14.20703125 50.12109375 C12.54286046 54.09032959 10.55385249 57.54527397 8 61 C7.401875 61.86625 6.80375 62.7325 6.1875 63.625 C0.49389319 69.80663025 -5.33151569 73.64811029 -13.89453125 74.1796875 C-22.20053317 74.36403773 -27.61980178 73.57557382 -34 68 C-35.61987801 66.02486232 -37.18155513 64.00082345 -38.6875 61.9375 C-39.45449219 60.89464844 -40.22148437 59.85179687 -41.01171875 58.77734375 C-42.37389146 56.87458383 -43.70195297 54.94707054 -45 53 C-47.30351618 52.60462634 -47.30351618 52.60462634 -50.00390625 52.734375 C-51.04297119 52.73526123 -52.08203613 52.73614746 -53.15258789 52.73706055 C-54.84049438 52.74346558 -54.84049438 52.74346558 -56.5625 52.75 C-73.69580649 52.47853629 -89.50242757 48.18908255 -105 41 C-112.70423406 37.72403397 -120.34026523 35.20483156 -128.53149414 33.51953125 C-132.93087254 32.5437397 -135.9935478 31.41876564 -139 28 C-139.48828125 24.546875 -139.48828125 24.546875 -139.3125 20.75 C-139.26738281 19.48671875 -139.22226562 18.2234375 -139.17578125 16.921875 C-139.11777344 15.95765625 -139.05976563 14.9934375 -139 14 C-127.64869836 13.45658662 -117.88047453 14.6272038 -107 18 C-106.25395508 18.23025879 -105.50791016 18.46051758 -104.73925781 18.69775391 C-97.20173367 21.05778089 -89.80077454 23.57564674 -82.5625 26.75 C-71.55658171 31.42601173 -60.74491068 31.24784102 -49 31 C-48.78085937 29.94941406 -48.56171875 28.89882812 -48.3359375 27.81640625 C-45.64871225 15.63828446 -41.70467329 6.28786798 -31 -1 C-21.50750569 -6.07108536 -9.0127021 -5.88145082 0 0 Z " fill="#F7FAFA" transform="translate(491,106)"/>
<path d="M0 0 C2.27033499 1.1961557 4.11270228 2.46477087 6.06640625 4.125 C6.70835937 4.65609375 7.3503125 5.1871875 8.01171875 5.734375 C16.59590464 13.56430188 18.17548276 23.12326331 20.06640625 34.125 C23.04582623 34.17955703 26.02422156 34.21893851 29.00390625 34.25 C30.25010742 34.27513672 30.25010742 34.27513672 31.52148438 34.30078125 C40.24268358 34.3686505 47.41068723 32.54830241 55.42871094 29.20410156 C60.11652509 27.28628052 64.90750831 25.65984849 69.69140625 24 C70.67625 23.65324219 71.66109375 23.30648437 72.67578125 22.94921875 C80.63301591 20.18010109 88.30742039 18.09356337 96.69140625 17 C97.94179688 16.83242187 99.1921875 16.66484375 100.48046875 16.4921875 C104.06640625 16.125 104.06640625 16.125 110.06640625 16.125 C110.06640625 21.075 110.06640625 26.025 110.06640625 31.125 C103.9371449 33.98695971 97.94683276 36.18055046 91.44140625 38 C84.04649713 40.13795842 77.04530806 42.6510321 69.9375 45.609375 C63.16759694 48.34375188 56.12961659 50.41702292 49.13500977 52.49462891 C47.3345896 53.04327577 45.5553284 53.66043543 43.78125 54.2890625 C38.38825057 55.50262914 33.13606516 55.33497693 27.62890625 55.25 C26.51580078 55.24097656 25.40269531 55.23195312 24.25585938 55.22265625 C21.52581602 55.1992224 18.79622615 55.166414 16.06640625 55.125 C15.76549072 55.8984375 15.4645752 56.671875 15.15454102 57.46875 C12.02197118 65.11567839 7.44854968 70.64803917 0.08203125 74.3828125 C-1.93359375 75.125 -1.93359375 75.125 -4.93359375 75.125 C-4.93359375 75.785 -4.93359375 76.445 -4.93359375 77.125 C-15.35850771 77.56004278 -23.44736198 77.62239855 -31.49609375 70.4375 C-41.76995615 59.49556571 -45.44871245 46.3194661 -45.2109375 31.6875 C-44.9741052 25.94696781 -43.60172245 21.21189958 -40.93359375 16.125 C-40.50949219 15.31546875 -40.08539063 14.5059375 -39.6484375 13.671875 C-31.45771404 -0.10861796 -14.96695082 -4.46417707 0 0 Z " fill="#F8FAFA" transform="translate(158.93359375,102.875)"/>
<path d="M0 0 C8.03342969 4.84836946 11.883208 10.77257686 14.66015625 19.60546875 C15.15515625 21.09046875 15.15515625 21.09046875 15.66015625 22.60546875 C16.73771226 36.89259372 16.21363229 49.68179517 7.66015625 61.60546875 C1.90083814 68.27415288 -5.10514515 73.94393823 -14.02734375 74.890625 C-22.37171346 75.30571482 -28.73545988 73.5925616 -35.1171875 68.06640625 C-44.68822314 57.78911098 -47.95388098 43.97845486 -47.62109375 30.3203125 C-46.64267347 17.3970113 -42.13402061 8.53658711 -32.46484375 0.015625 C-23.03995924 -6.23875608 -9.72884891 -4.67456132 0 0 Z " fill="#F7FAFA" transform="translate(326.33984375,102.39453125)"/>
<path d="M0 0 C1.26188644 -0.01606293 2.52377289 -0.03212585 3.82389832 -0.04867554 C5.21372811 -0.06016458 6.60356543 -0.07077285 7.9934082 -0.08056641 C8.69108622 -0.08589008 9.38876423 -0.09121376 10.107584 -0.09669876 C13.80380786 -0.12345651 17.49999771 -0.14281867 21.19628906 -0.15722656 C25.00859969 -0.1738375 28.82003953 -0.2185759 32.6320219 -0.26959801 C35.56692958 -0.30332514 38.50163258 -0.31481012 41.43671608 -0.32045364 C42.84132313 -0.32715641 44.24591717 -0.34235348 45.65033531 -0.36634445 C58.02650793 -0.56561282 58.02650793 -0.56561282 61.89892578 2.57324219 C65.94655752 7.37597231 67.26310565 9.87539485 67.10668945 16.19287109 C56.97129868 16.21600838 46.83591416 16.23379328 36.7005024 16.24468327 C31.99458002 16.24990905 27.28867567 16.2570012 22.58276367 16.26831055 C18.04405413 16.27915021 13.50536196 16.28515023 8.96664047 16.28774834 C7.23223471 16.28960063 5.49782994 16.29321752 3.76343155 16.29860115 C1.34023204 16.30582588 -1.08289503 16.30686143 -3.50610352 16.30639648 C-4.22827057 16.30999176 -4.95043762 16.31358704 -5.69448853 16.31729126 C-10.66520622 16.30692326 -10.66520622 16.30692326 -12.89331055 15.19287109 C-13.2473488 10.94441211 -12.41239456 8.88786891 -9.95581055 5.44287109 C-9.41053711 4.66427734 -8.86526367 3.88568359 -8.3034668 3.08349609 C-5.70687324 -0.39780939 -4.39586966 0.05062772 0 0 Z " fill="#1E79D2" transform="translate(282.893310546875,515.80712890625)"/>
<path d="M0 0 C4.74278211 2.07656946 7.82809418 5.29420405 10 10 C11.63631764 15.61527709 12.16469622 21.21520731 9.87109375 26.69921875 C6.59677435 32.41859129 2.99525843 37.00237079 -3 40 C-6.34047035 40.45849593 -8.8705203 40.63768542 -11.875 38.94140625 C-17.60576045 34.3839696 -20.53253932 29.71123132 -21.44921875 22.43359375 C-21.77166101 15.21805261 -21.62396422 10.03292958 -16.703125 4.515625 C-16.14109375 4.01546875 -15.5790625 3.5153125 -15 3 C-14.38253906 2.44828125 -13.76507813 1.8965625 -13.12890625 1.328125 C-9.09097555 -1.19095103 -4.57408226 -0.69225856 0 0 Z " fill="#1E79D2" transform="translate(316,118)"/>
<path d="M0 0 C5.27487759 2.51019394 7.89768959 7.08348944 9.90625 12.41015625 C11.24575887 20.71511124 7.41880904 27.67938676 2.84375 34.47265625 C-0.27757829 37.59398454 -3.13555553 38.71814705 -7.53125 38.84765625 C-10.92212798 38.7422116 -11.94315895 38.51283196 -14.84375 36.53515625 C-20.67688102 28.43358539 -23.60207982 21.54948445 -22.09375 11.41015625 C-20.81221997 7.2247337 -18.7984254 4.26430825 -16.03125 0.91015625 C-10.95132985 -1.68384553 -5.45505638 -1.53677894 0 0 Z " fill="#1D78D1" transform="translate(152.09375,121.58984375)"/>
<path d="M0 0 C4.76353134 2.49335081 9.22238998 5.2908827 12 10 C13.44666873 18.22190064 11.71660769 25.1957135 7 32 C4.4375 34.5 4.4375 34.5 2 36 C1.38125 36.4125 0.7625 36.825 0.125 37.25 C-4.31727702 38.81786248 -7.85191986 38.50515526 -12.125 36.625 C-16.92385378 32.24343785 -19.55151114 27.36789751 -20.4140625 20.890625 C-20.62447339 13.20106343 -19.32992267 8.32236849 -14 2.6875 C-9.8311011 -1.44882938 -5.50317975 -1.55875903 0 0 Z " fill="#2079D1" transform="translate(479,122)"/>
<path d="M0 0 C0.495 5.94 0.495 5.94 1 12 C-7.625 15 -7.625 15 -11 15 C-9.515 20.94 -9.515 20.94 -8 27 C-9.485 26.505 -10.97 26.01 -12.5 25.5 C-17.21664251 24.06888197 -21.09784216 23.7276579 -26 24 C-26.12375 25.093125 -26.2475 26.18625 -26.375 27.3125 C-27 31 -27 31 -29 34 C-30.32 34 -31.64 34 -33 34 C-32.7834375 33.43152344 -32.566875 32.86304688 -32.34375 32.27734375 C-30.54018042 27.2757781 -29.6610396 23.31037964 -30 18 C-31.98 17.01 -33.96 16.02 -36 15 C-36 14.34 -36 13.68 -36 13 C-36.66 13 -37.32 13 -38 13 C-37.855625 12.484375 -37.71125 11.96875 -37.5625 11.4375 C-36.84190099 8.31490429 -36.42733561 5.17449308 -36 2 C-35.20335937 2.47050781 -34.40671875 2.94101563 -33.5859375 3.42578125 C-29.22129781 5.34184857 -25.33297339 5.77827424 -20.625 6.1875 C-19.37783203 6.3102832 -19.37783203 6.3102832 -18.10546875 6.43554688 C-16.07131913 6.63428563 -14.03577051 6.81861584 -12 7 C-12 6.34 -12 5.68 -12 5 C-10.37750059 4.16180842 -8.75191503 3.3295884 -7.125 2.5 C-6.22007812 2.0359375 -5.31515625 1.571875 -4.3828125 1.09375 C-2 0 -2 0 0 0 Z " fill="#7F817F" transform="translate(166,173)"/>
<path d="M0 0 C4.06305372 0.94333282 8.13820679 0.73885645 12.28710938 0.65600586 C13.15722656 0.64698242 14.02734375 0.63795898 14.92382812 0.62866211 C17.04504357 0.60535205 19.16611499 0.56949164 21.28710938 0.53100586 C21.78210938 1.52100586 21.78210938 1.52100586 22.28710938 2.53100586 C23.27710938 2.81975586 24.26710938 3.10850586 25.28710938 3.40600586 C26.27710938 3.77725586 27.26710938 4.14850586 28.28710938 4.53100586 C28.97460938 6.60131836 28.97460938 6.60131836 29.28710938 8.53100586 C28.64902344 8.65217773 28.0109375 8.77334961 27.35351562 8.89819336 C26.52722656 9.06577148 25.7009375 9.23334961 24.84960938 9.40600586 C24.02589844 9.56842773 23.2021875 9.73084961 22.35351562 9.89819336 C21.67160156 10.10702148 20.9896875 10.31584961 20.28710938 10.53100586 C19.95710938 11.19100586 19.62710938 11.85100586 19.28710938 12.53100586 C19.28710938 11.87100586 19.28710938 11.21100586 19.28710938 10.53100586 C18.66779541 10.58748291 18.04848145 10.64395996 17.41040039 10.70214844 C14.5584516 10.94537084 11.70498005 11.1446334 8.84960938 11.34350586 C7.87572266 11.4330957 6.90183594 11.52268555 5.8984375 11.61499023 C-1.33066113 12.0743644 -5.79218171 10.70113168 -11.71289062 6.53100586 C-11.71289062 3.53100586 -11.71289062 3.53100586 -9.21289062 0.71850586 C-6.16299587 -2.30597311 -3.83270898 -1.10963107 0 0 Z " fill="#7B7C7A" transform="translate(465.712890625,178.468994140625)"/>
<path d="M0 0 C0.53109375 0.40992188 1.0621875 0.81984375 1.609375 1.2421875 C2.31578125 1.78101563 3.0221875 2.31984375 3.75 2.875 C4.44609375 3.40867188 5.1421875 3.94234375 5.859375 4.4921875 C7.84722603 5.89238914 9.79843386 6.97855265 12 8 C12.05399736 9.45792884 12.09279177 10.91642712 12.125 12.375 C12.14820313 13.18710938 12.17140625 13.99921875 12.1953125 14.8359375 C12 17 12 17 10 19 C10 20.32 10 21.64 10 23 C6.06326356 21.68775452 3.77280706 20.08089673 1 17 C0.34 17.33 -0.32 17.66 -1 18 C-1.02707139 15.75006641 -1.04642829 13.50003905 -1.0625 11.25 C-1.07410156 9.99703125 -1.08570313 8.7440625 -1.09765625 7.453125 C-1.02021027 4.71463499 -0.82780815 2.58119707 0 0 Z " fill="#838689" transform="translate(288,167)"/>
<path d="M0 0 C0.83789062 0.47050781 1.67578125 0.94101563 2.5390625 1.42578125 C6.24646935 3.11210739 9.34452652 3.69319665 13.375 4.1875 C14.62023437 4.34605469 15.86546875 4.50460938 17.1484375 4.66796875 C18.08945313 4.77753906 19.03046875 4.88710937 20 5 C20 5.33 20 5.66 20 6 C16.37 6.33 12.74 6.66 9 7 C9 8.32 9 9.64 9 11 C9.33 11.33 9.66 11.66 10 12 C9.85433594 12.53367188 9.70867187 13.06734375 9.55859375 13.6171875 C8.54139034 17.95630693 9.04497647 22.4506944 9.16015625 26.8828125 C9 30 9 30 7 32 C5.68 32 4.36 32 3 32 C3.2165625 31.43152344 3.433125 30.86304688 3.65625 30.27734375 C5.45981958 25.2757781 6.3389604 21.31037964 6 16 C4.02 15.01 2.04 14.02 0 13 C0 12.34 0 11.68 0 11 C-0.66 11 -1.32 11 -2 11 C-1.855625 10.484375 -1.71125 9.96875 -1.5625 9.4375 C-0.84190099 6.31490429 -0.42733561 3.17449308 0 0 Z " fill="#99A0A2" transform="translate(130,175)"/>
<path d="M0 0 C-1.32 0.33 -2.64 0.66 -4 1 C-3.84453028 2.92189044 -3.84453028 2.92189044 -3 5 C-0.93297415 6.56473341 -0.93297415 6.56473341 1.5625 7.75 C2.38878906 8.17796875 3.21507812 8.6059375 4.06640625 9.046875 C4.70449219 9.36140625 5.34257812 9.6759375 6 10 C6 10.66 6 11.32 6 12 C2.125 11.125 2.125 11.125 1 10 C-1.3295947 9.49758678 -1.3295947 9.49758678 -4 10 C-5.1446875 11.2065625 -5.1446875 11.2065625 -6.3125 12.4375 C-9.93011558 15.88685439 -12.10325556 15.75101299 -17 16 C-16.86088734 10.43549353 -14.42713774 7.69718671 -10.88671875 3.734375 C-7.38276707 0.5133511 -4.72247426 -0.26235968 0 0 Z " fill="#8C9197" transform="translate(476,121)"/>
<path d="M0 0 C4.12668593 4.95202312 6.4615192 8.03948223 6.3359375 14.6953125 C5.69899598 19.0650276 3.8308553 23.01135096 2 27 C0.02411269 23.61040253 -0.5262266 20.49157628 -1.0625 16.625 C-1.21847656 15.52414063 -1.37445313 14.42328125 -1.53515625 13.2890625 C-1.68855469 12.20367187 -1.84195313 11.11828125 -2 10 C-2.32739166 7.99901879 -2.65883575 5.99867908 -3 4 C-2.01 3.67 -1.02 3.34 0 3 C0 2.01 0 1.02 0 0 Z " fill="#929496" transform="translate(156,125)"/>
<path d="M0 0 C1.85110311 0.43753346 3.70036598 0.88865743 5.52734375 1.41796875 C10.26769051 2.53378497 15.1508338 2.69288614 20 3 C20 3.33 20 3.66 20 4 C16.7 4.33 13.4 4.66 10 5 C10 5.66 10 6.32 10 7 C8.35 7 6.7 7 5 7 C5 5.68 5 4.36 5 3 C2.7522025 5.05233685 1.9977758 6.00667261 1 9 C1.99 9.33 2.98 9.66 4 10 C3.67 10.66 3.34 11.32 3 12 C-0.99455527 11.38545304 -3.74466336 9.29353263 -7 7 C-4.78071806 4.09197539 -3.07030857 2.04687238 0 0 Z " fill="#9A9D9A" transform="translate(460,177)"/>
<path d="M0 0 C0.66 0.66 1.32 1.32 2 2 C1.9765625 4.1640625 1.9765625 4.1640625 1.625 6.625 C1.51414062 7.44226563 1.40328125 8.25953125 1.2890625 9.1015625 C1.19367188 9.72804687 1.09828125 10.35453125 1 11 C1.928125 11.1546875 1.928125 11.1546875 2.875 11.3125 C5 12 5 12 7 15 C7.66 15 8.32 15 9 15 C9.66 14.01 10.32 13.02 11 12 C11.08912219 15.83225427 10.87867729 19.26562152 10 23 C6.06326356 21.68775452 3.77280706 20.08089673 1 17 C0.34 17.33 -0.32 17.66 -1 18 C-1.02707139 15.75006641 -1.04642829 13.50003905 -1.0625 11.25 C-1.07410156 9.99703125 -1.08570313 8.7440625 -1.09765625 7.453125 C-1.02021027 4.71463499 -0.82780815 2.58119707 0 0 Z " fill="#80898F" transform="translate(288,167)"/>
<path d="M0 0 C2.97 0.33 5.94 0.66 9 1 C9.66 2.65 10.32 4.3 11 6 C10.36191406 6.12117187 9.72382813 6.24234375 9.06640625 6.3671875 C8.24011719 6.53476563 7.41382813 6.70234375 6.5625 6.875 C5.73878906 7.03742188 4.91507812 7.19984375 4.06640625 7.3671875 C3.38449219 7.57601562 2.70257813 7.78484375 2 8 C1.67 8.66 1.34 9.32 1 10 C1 9.34 1 8.68 1 8 C-3.29 8 -7.58 8 -12 8 C-12 7.67 -12 7.34 -12 7 C-11.28972656 6.95101562 -10.57945312 6.90203125 -9.84765625 6.8515625 C-8.92855469 6.77679688 -8.00945312 6.70203125 -7.0625 6.625 C-6.14597656 6.55539063 -5.22945313 6.48578125 -4.28515625 6.4140625 C-3.15400391 6.20910156 -3.15400391 6.20910156 -2 6 C-1.67 5.34 -1.34 4.68 -1 4 C-0.34 4 0.32 4 1 4 C0.67 2.68 0.34 1.36 0 0 Z " fill="#6A7272" transform="translate(484,181)"/>
<path d="M0 0 C1.125 3.75 1.125 3.75 0 6 C2.64 5.67 5.28 5.34 8 5 C7.34 7.97 6.68 10.94 6 14 C4.35 14.33 2.7 14.66 1 15 C0.67 15.99 0.34 16.98 0 18 C-1.07427471 14.77717587 -1.1332963 12.38488847 -1.125 9 C-1.12757813 7.948125 -1.13015625 6.89625 -1.1328125 5.8125 C-1 3 -1 3 0 0 Z " fill="#8C9598" transform="translate(131,130)"/>
<path d="M0 0 C1.37706825 0.26011289 2.75158555 0.53373766 4.125 0.8125 C5.27355469 1.03873047 5.27355469 1.03873047 6.4453125 1.26953125 C9 2 9 2 15 5 C15 18.53 15 32.06 15 46 C14.67 46 14.34 46 14 46 C14 32.8 14 19.6 14 6 C13.01 6 12.02 6 11 6 C11 5.34 11 4.68 11 4 C9.68 4 8.36 4 7 4 C7 4.66 7 5.32 7 6 C5.35 6 3.7 6 2 6 C2 5.34 2 4.68 2 4 C2.66 3.67 3.32 3.34 4 3 C2.68 2.34 1.36 1.68 0 1 C0 0.67 0 0.34 0 0 Z " fill="#C1D8EC" transform="translate(468,202)"/>
<path d="M0 0 C0.33 1.32 0.66 2.64 1 4 C1.66 4 2.32 4 3 4 C2.67 5.32 2.34 6.64 2 8 C-1.67410785 9.17571451 -5.16929183 9.07366746 -9 9 C-8.835 8.4225 -8.67 7.845 -8.5 7.25 C-7.85537969 4.73335631 -7.85537969 4.73335631 -8 1 C-4 2 -4 2 0 3 C0 2.01 0 1.02 0 0 Z " fill="#6F7071" transform="translate(164,178)"/>
<path d="M0 0 C0.66 0 1.32 0 2 0 C2 1.32 2 2.64 2 4 C3.65 4 5.3 4 7 4 C7 3.34 7 2.68 7 2 C13.0546875 1.0234375 13.0546875 1.0234375 15 1 C15.66 1.66 16.32 2.32 17 3 C16.12988281 3.25523437 16.12988281 3.25523437 15.2421875 3.515625 C10.16907347 5.08946236 6.32226999 6.94278464 2 10 C1.34 10 0.68 10 0 10 C0 9.01 0 8.02 0 7 C-0.66 6.67 -1.32 6.34 -2 6 C-1.125 1.125 -1.125 1.125 0 0 Z " fill="#868385" transform="translate(463,180)"/>
<path d="M0 0 C0.99 0 1.98 0 3 0 C3 0.66 3 1.32 3 2 C4.32 2.66 5.64 3.32 7 4 C4.69 4.66 2.38 5.32 0 6 C-0.33 7.65 -0.66 9.3 -1 11 C-2.98 11.33 -4.96 11.66 -7 12 C-5.6389689 6.80333579 -3.69612549 3.7862749 0 0 Z " fill="#E9EEEF" transform="translate(127,186)"/>
<path d="M0 0 C1.17904475 4.24830408 2.0326419 8.9347162 0 13 C-0.04719794 15.06195989 -0.03728204 17.12533699 0 19.1875 C0.0634056 26.83580066 -0.40201916 34.3757443 -1 42 C-1.33 42 -1.66 42 -2 42 C-2.04977421 37.30437734 -2.08589521 32.60891137 -2.10986328 27.91308594 C-2.11986475 26.31865765 -2.13347031 24.72424743 -2.15087891 23.12988281 C-2.17538695 20.82612624 -2.18654176 18.52261405 -2.1953125 16.21875 C-2.21079636 15.16512268 -2.21079636 15.16512268 -2.22659302 14.09020996 C-2.22770188 9.0979605 -1.36154543 4.80545446 0 0 Z " fill="#EAF2F3" transform="translate(383,353)"/>
<path d="M0 0 C0.66 0.33 1.32 0.66 2 1 C-4.61654135 5.66165414 -4.61654135 5.66165414 -8 6 C-10.25 5.5625 -10.25 5.5625 -12 5 C-12 5.99 -12 6.98 -12 8 C-12.99 8 -13.98 8 -15 8 C-15 7.34 -15 6.68 -15 6 C-20.61 6 -26.22 6 -32 6 C-32 5.67 -32 5.34 -32 5 C-30.73285156 4.95101562 -29.46570313 4.90203125 -28.16015625 4.8515625 C-26.46091904 4.77645809 -24.76170124 4.70091368 -23.0625 4.625 C-21.81629883 4.57859375 -21.81629883 4.57859375 -20.54492188 4.53125 C-14.24155956 4.23692958 -7.53558616 3.87404281 -1.86743164 0.86962891 C-1.2511792 0.58265137 -0.63492676 0.29567383 0 0 Z " fill="#D6E5F1" transform="translate(211,133)"/>
<path d="M0 0 C0.33 2.97 0.66 5.94 1 9 C0.05125 8.814375 -0.8975 8.62875 -1.875 8.4375 C-4.89868793 7.71313368 -4.89868793 7.71313368 -7 9 C-7.6875 7.1875 -7.6875 7.1875 -8 5 C-5.98916938 2.38592019 -3.42371896 0 0 0 Z " fill="#767E84" transform="translate(166,173)"/>
<path d="M0 0 C0.99 0.66 1.98 1.32 3 2 C3.65211063 7.05385735 3.65211063 7.05385735 3 10 C0.5 12.5 0.5 12.5 -2 14 C-2.21192221 8.80790596 -1.5912689 4.873261 0 0 Z " fill="#959482" transform="translate(159,132)"/>
<path d="M0 0 C2.91517292 1.07401108 4.77810176 1.77810176 7 4 C6.67 4.66 6.34 5.32 6 6 C3.03 5.505 3.03 5.505 0 5 C0 5.99 0 6.98 0 8 C-1.65 8.66 -3.3 9.32 -5 10 C-3.84414715 6.08788267 -2.64465038 3.1254959 0 0 Z " fill="#F3EFEC" transform="translate(452,184)"/>
<path d="M0 0 C1.65 1.65 3.3 3.3 5 5 C4.360625 5.309375 3.72125 5.61875 3.0625 5.9375 C-0.09768575 9.09768575 0.18099207 12.68333908 0 17 C-0.33 17 -0.66 17 -1 17 C-1.22185844 14.73044814 -1.42705515 12.45926245 -1.625 10.1875 C-1.74101562 8.92292969 -1.85703125 7.65835938 -1.9765625 6.35546875 C-2 3 -2 3 0 0 Z " fill="#F8F7F1" transform="translate(288,183)"/>
<path d="M0 0 C1.06700419 3.98109128 1.52281995 7.90988529 2 12 C1.01 12.495 1.01 12.495 0 13 C-0.33 12.34 -0.66 11.68 -1 11 C-1.4021875 12.7015625 -1.4021875 12.7015625 -1.8125 14.4375 C-2.204375 15.613125 -2.59625 16.78875 -3 18 C-3.99 18.33 -4.98 18.66 -6 19 C-4.12275039 12.62267685 -2.14328358 6.29304541 0 0 Z " fill="#D2E4F2" transform="translate(69,325)"/>
<path d="M0 0 C0.33 0 0.66 0 1 0 C1.59720137 5.82271337 -0.471757 9.9209404 -3 15 C-5.0234375 11.234375 -5.0234375 11.234375 -4.8125 9.125 C-2.14285714 2.14285714 -2.14285714 2.14285714 0 0 Z " fill="#889DAF" transform="translate(490,138)"/>
<path d="M0 0 C0.515625 0.5775 1.03125 1.155 1.5625 1.75 C4.50847463 4.46936119 7.47433671 6.10156592 11 8 C11 8.66 11 9.32 11 10 C7.125 9.125 7.125 9.125 6 8 C3.32941149 7.85884839 0.67567762 7.95752893 -2 8 C-1.34 5.36 -0.68 2.72 0 0 Z " fill="#7C8D97" transform="translate(471,123)"/>
<path d="M0 0 C4.95 0.33 9.9 0.66 15 1 C15 1.33 15 1.66 15 2 C11.7 2.33 8.4 2.66 5 3 C5 3.66 5 4.32 5 5 C3.35 5 1.7 5 0 5 C0 3.35 0 1.7 0 0 Z " fill="#A8A9A9" transform="translate(465,179)"/>
<path d="M0 0 C4.83628305 0.99043705 9.47618873 1.95698846 14 4 C14 4.66 14 5.32 14 6 C13.01 6 12.02 6 11 6 C11 5.34 11 4.68 11 4 C9.68 4 8.36 4 7 4 C7 4.66 7 5.32 7 6 C5.35 6 3.7 6 2 6 C2 5.34 2 4.68 2 4 C2.66 3.67 3.32 3.34 4 3 C2.68 2.34 1.36 1.68 0 1 C0 0.67 0 0.34 0 0 Z " fill="#DCEBF2" transform="translate(468,202)"/>
<path d="M0 0 C0.75929472 2.98613386 1.4118332 5.97514219 2 9 C-0.97 11.475 -0.97 11.475 -4 14 C-4.33 13.34 -4.66 12.68 -5 12 C-4.26821134 9.92803369 -3.44100997 7.8891448 -2.5625 5.875 C-2.08941406 4.77929688 -1.61632812 3.68359375 -1.12890625 2.5546875 C-0.75636719 1.71164063 -0.38382812 0.86859375 0 0 Z " fill="#CFE0F1" transform="translate(112,215)"/>
<path d="M0 0 C0.66 0 1.32 0 2 0 C2 1.32 2 2.64 2 4 C2.99 4.33 3.98 4.66 5 5 C3.625 7.5 3.625 7.5 2 10 C1.34 10 0.68 10 0 10 C0 9.01 0 8.02 0 7 C-0.66 6.67 -1.32 6.34 -2 6 C-1.125 1.125 -1.125 1.125 0 0 Z " fill="#8E8F88" transform="translate(463,180)"/>
<path d="M0 0 C0.99 0 1.98 0 3 0 C3 0.66 3 1.32 3 2 C2.01 2.495 2.01 2.495 1 3 C1 3.99 1 4.98 1 6 C0.34 6 -0.32 6 -1 6 C-1.33 6.99 -1.66 7.98 -2 9 C-3.65 9 -5.3 9 -7 9 C-6.67 8.01 -6.34 7.02 -6 6 C-5.01 6 -4.02 6 -3 6 C-2.690625 5.195625 -2.38125 4.39125 -2.0625 3.5625 C-1 1 -1 1 0 0 Z " fill="#747775" transform="translate(484,179)"/>
<path d="M0 0 C1.74627478 2.61941217 2.38722388 4.03824877 3 7 C2.401875 7.268125 1.80375 7.53625 1.1875 7.8125 C-0.98316883 8.99086308 -2.30817212 10.23060981 -4 12 C-3.52309796 10.37433394 -3.04340334 8.74948689 -2.5625 7.125 C-2.29566406 6.22007812 -2.02882813 5.31515625 -1.75390625 4.3828125 C-1 2 -1 2 0 0 Z " fill="#D6E5F4" transform="translate(117,203)"/>
<path d="M0 0 C0.66 0.33 1.32 0.66 2 1 C0.625 3 0.625 3 -1 5 C-1.66 5 -2.32 5 -3 5 C-2.67 6.32 -2.34 7.64 -2 9 C-3.65 10.32 -5.3 11.64 -7 13 C-7.33 12.34 -7.66 11.68 -8 11 C-7.04454634 9.53977837 -6.08553322 8.08188532 -5.125 6.625 C-4.59132813 5.81289062 -4.05765625 5.00078125 -3.5078125 4.1640625 C-2 2 -2 2 0 0 Z " fill="#D2E4F2" transform="translate(126,108)"/>
<path d="M0 0 C-1.625 5.75 -1.625 5.75 -5 8 C-5.99 7.01 -6.98 6.02 -8 5 C-2.25 0 -2.25 0 0 0 Z " fill="#868E99" transform="translate(462,177)"/>
<path d="M0 0 C0 4.03066816 -1.67283027 5.78303008 -4 9 C-4.66 9.66 -5.32 10.32 -6 11 C-6.33 11.66 -6.66 12.32 -7 13 C-7.66 13 -8.32 13 -9 13 C-7.47987323 7.59510481 -3.72614782 4.01507372 0 0 Z " fill="#DCE9F5" transform="translate(456,108)"/>
<path d="M0 0 C2 2 2 2 2 5 C-0.5 6.6875 -0.5 6.6875 -3 8 C-4.33332095 5.3333581 -3.67102033 3.83319697 -3 1 C-2.01 0.67 -1.02 0.34 0 0 Z " fill="#E9F3F3" transform="translate(551,323)"/>
<path d="M0 0 C1.23967448 3.58128182 1.02699061 6.36603322 0 10 C-2.05078125 11.1796875 -2.05078125 11.1796875 -4 12 C-3.52309796 10.37433394 -3.04340334 8.74948689 -2.5625 7.125 C-2.29566406 6.22007812 -2.02882813 5.31515625 -1.75390625 4.3828125 C-1 2 -1 2 0 0 Z " fill="#D4E3F0" transform="translate(436,218)"/>
<path d="M0 0 C2.31 0 4.62 0 7 0 C7.33 1.32 7.66 2.64 8 4 C5.36 4 2.72 4 0 4 C0 2.68 0 1.36 0 0 Z " fill="#686867" transform="translate(487,183)"/>
<path d="M0 0 C0.66 1.32 1.32 2.64 2 4 C1.34 4 0.68 4 0 4 C0.309375 5.6396875 0.309375 5.6396875 0.625 7.3125 C1 11 1 11 -1 14 C-2.62950412 9.87831311 -3.26264601 7.29299643 -2 3 C-1.34 3 -0.68 3 0 3 C0 2.01 0 1.02 0 0 Z " fill="#7D8F9F" transform="translate(156,125)"/>
<path d="M0 0 C1.55473096 5.68409638 1.60544034 10.62627931 -1 16 C-1.33 16 -1.66 16 -2 16 C-2.20674944 10.21101581 -1.59162079 5.57067277 0 0 Z " fill="#CDE0F3" transform="translate(383,353)"/>
<path d="M0 0 C0.66 0.33 1.32 0.66 2 1 C-0.31 3.64 -2.62 6.28 -5 9 C-5.33 8.34 -5.66 7.68 -6 7 C-8.31 7.33 -10.62 7.66 -13 8 C-10 6 -10 6 -6.5 4.5625 C-3.54329066 3.24254047 -1.98397019 2.45078671 0 0 Z " fill="#6A9CCD" transform="translate(493,172)"/>
<path d="M0 0 C0.66 0.33 1.32 0.66 2 1 C0.68 4.3 -0.64 7.6 -2 11 C-3.00312353 6.98750587 -2.96381672 4.94288658 -2 1 C-1.34 0.67 -0.68 0.34 0 0 Z " fill="#EAF5F9" transform="translate(101,283)"/>
<path d="M0 0 C2 3 2 3 1.8125 4.875 C0.82544914 7.45651762 -0.51452332 9.67490606 -2 12 C-3.12377697 8.69564916 -2.89554742 6.9493138 -1.5625 3.75 C-1.27503906 3.04359375 -0.98757812 2.3371875 -0.69140625 1.609375 C-0.46324219 1.07828125 -0.23507813 0.5471875 0 0 Z " fill="#DDE9F4" transform="translate(106,230)"/>
<path d="M0 0 C0.33 0 0.66 0 1 0 C1 1.98 1 3.96 1 6 C1.66 6.33 2.32 6.66 3 7 C2.34 7.66 1.68 8.32 1 9 C-0.32 9 -1.64 9 -3 9 C-2.01 6.03 -1.02 3.06 0 0 Z " fill="#98A9B3" transform="translate(136,198)"/>
<path d="M0 0 C0.66 0 1.32 0 2 0 C1.835 0.495 1.67 0.99 1.5 1.5 C0.92592694 4.37036529 0.98762401 7.10985546 1.03125 10.02734375 C0.99308208 12.43669375 0.58347895 14.66608421 0 17 C-0.33 17 -0.66 17 -1 17 C-1.02684679 14.35409986 -1.04676357 11.70846904 -1.0625 9.0625 C-1.07087891 8.30775391 -1.07925781 7.55300781 -1.08789062 6.77539062 C-1.09652441 4.85005687 -1.05224333 2.92464419 -1 1 C-0.67 0.67 -0.34 0.34 0 0 Z " fill="#88919A" transform="translate(138,187)"/>
<path d="M0 0 C3 1 3 1 4.1875 2.625 C5.27499354 5.80382728 5.1282071 8.66661533 5 12 C2.65085508 9.65085508 2.26859643 8.04320554 1.375 4.875 C1.11460937 3.96492188 0.85421875 3.05484375 0.5859375 2.1171875 C0.39257812 1.41851562 0.19921875 0.71984375 0 0 Z " fill="#DEE8F4" transform="translate(207,320)"/>
<path d="M0 0 C0 0.66 0 1.32 0 2 C-2.64846603 4.36214538 -4.61516396 5.87172132 -8 7 C-8 6.34 -8 5.68 -8 5 C-7.34 5 -6.68 5 -6 5 C-6 3.68 -6 2.36 -6 1 C-4 0 -4 0 0 0 Z " fill="#8B8A87" transform="translate(145,181)"/>
<path d="M0 0 C-0.99 0 -1.98 0 -3 0 C-3.33 0.99 -3.66 1.98 -4 3 C-5.64551962 3.71727778 -7.31422289 4.38325228 -9 5 C-9.66 5.66 -10.32 6.32 -11 7 C-11 4 -11 4 -9.609375 2.578125 C-8.99578125 2.13984375 -8.3821875 1.7015625 -7.75 1.25 C-7.14671875 0.80140625 -6.5434375 0.3528125 -5.921875 -0.109375 C-3.52647822 -1.21943692 -2.43245678 -0.88257281 0 0 Z " fill="#DAE8F3" transform="translate(302,101)"/>
<path d="M0 0 C2 2 2 2 2 6 C1.34 6 0.68 6 0 6 C0 6.99 0 7.98 0 9 C-0.99 9.33 -1.98 9.66 -3 10 C-2.01 6.7 -1.02 3.4 0 0 Z " fill="#CFDFF1" transform="translate(387,342)"/>
<path d="M0 0 C0.97591583 3.38317487 0.85856655 5.5657338 0 9 C-0.66 9 -1.32 9 -2 9 C-2.33 9.99 -2.66 10.98 -3 12 C-4 10 -4 10 -3.22265625 7.6171875 C-2.83980469 6.71226562 -2.45695312 5.80734375 -2.0625 4.875 C-1.68222656 3.96492188 -1.30195312 3.05484375 -0.91015625 2.1171875 C-0.60980469 1.41851562 -0.30945313 0.71984375 0 0 Z " fill="#C2D9ED" transform="translate(76,307)"/>
<path d="M0 0 C1.23967448 3.58128182 1.02699061 6.36603322 0 10 C-2.05078125 11.1796875 -2.05078125 11.1796875 -4 12 C-3.52309796 10.37433394 -3.04340334 8.74948689 -2.5625 7.125 C-2.29566406 6.22007812 -2.02882813 5.31515625 -1.75390625 4.3828125 C-1 2 -1 2 0 0 Z " fill="#CCE1F0" transform="translate(412,277)"/>
<path d="M0 0 C0.91459364 3.08675352 1.49308788 5.7949288 1 9 C-1.5 10.8125 -1.5 10.8125 -4 12 C-2.66666667 8 -1.33333333 4 0 0 Z " fill="#CCE0F0" transform="translate(444,198)"/>
<path d="M0 0 C1.98 0 3.96 0 6 0 C5.67 1.98 5.34 3.96 5 6 C3.68 5.67 2.36 5.34 1 5 C0.67 3.35 0.34 1.7 0 0 Z " fill="#6F8897" transform="translate(293,184)"/>
<path d="M0 0 C0.68707555 2.49064888 1 4.37886292 1 7 C-0.65 7.66 -2.3 8.32 -4 9 C-2.94124926 5.59687262 -1.99097846 2.98646769 0 0 Z " fill="#DBE8F2" transform="translate(451,185)"/>
<path d="M0 0 C3.37503669 1.1858237 5.64722731 2.27573689 8 5 C6.35 5.33 4.7 5.66 3 6 C2.01 4.02 1.02 2.04 0 0 Z " fill="#E0E6F3" transform="translate(342,497)"/>
<path d="M0 0 C0.99 0.33 1.98 0.66 3 1 C3 1.99 3 2.98 3 4 C0.36 4.33 -2.28 4.66 -5 5 C-3.35 3.35 -1.7 1.7 0 0 Z " fill="#E1EDF2" transform="translate(273,499)"/>
<path d="M0 0 C1.32 0 2.64 0 4 0 C3.67 1.32 3.34 2.64 3 4 C1.35 4 -0.3 4 -2 4 C-1.34 2.68 -0.68 1.36 0 0 Z " fill="#909188" transform="translate(463,130)"/>
<path d="M0 0 C-0.639375 0.268125 -1.27875 0.53625 -1.9375 0.8125 C-4.33131686 1.88667752 -4.33131686 1.88667752 -5 5 C-5.99 5 -6.98 5 -8 5 C-8.33 4.01 -8.66 3.02 -9 2 C-5.86501708 0.14223235 -3.62528568 -0.20140476 0 0 Z " fill="#A2ABA4" transform="translate(476,121)"/>
<path d="M0 0 C0.66 0 1.32 0 2 0 C1.49396008 2.16874252 1.00016187 3.99967627 0 6 C-0.99 6 -1.98 6 -3 6 C-2.67 4.68 -2.34 3.36 -2 2 C-1.34 2 -0.68 2 0 2 C0 1.34 0 0.68 0 0 Z " fill="#E3EDF8" transform="translate(111,258)"/>
<path d="M0 0 C0.66 0.33 1.32 0.66 2 1 C1.01 3.97 0.02 6.94 -1 10 C-1.33 10 -1.66 10 -2 10 C-2.17942163 6.05272412 -2.09350689 3.4019487 0 0 Z " fill="#989FA4" transform="translate(159,142)"/>
<path d="M0 0 C1.5 1.375 1.5 1.375 3 3 C3 3.66 3 4.32 3 5 C2.01 5.33 1.02 5.66 0 6 C-0.66 6.99 -1.32 7.98 -2 9 C-1.125 2.25 -1.125 2.25 0 0 Z " fill="#CAE0EE" transform="translate(117,121)"/>
<path d="M0 0 C0.66 0.33 1.32 0.66 2 1 C1.0479279 2.00596297 0.08812654 3.00461563 -0.875 4 C-1.40867188 4.556875 -1.94234375 5.11375 -2.4921875 5.6875 C-4 7 -4 7 -6 7 C-4.60667426 3.63279613 -3.0210714 2.0140476 0 0 Z " fill="#4E95DC" transform="translate(139,121)"/>
<path d="M0 0 C0.99 0.33 1.98 0.66 3 1 C3.33 2.65 3.66 4.3 4 6 C2.35 5.67 0.7 5.34 -1 5 C-0.67 3.35 -0.34 1.7 0 0 Z " fill="#D9E8F2" transform="translate(202,267)"/>
<path d="M0 0 C2 3 2 3 2 5 C0.02 5.99 0.02 5.99 -2 7 C-2.33 6.01 -2.66 5.02 -3 4 C-1.5625 1.8125 -1.5625 1.8125 0 0 Z " fill="#E3EEF3" transform="translate(181,211)"/>
<path d="M0 0 C0.99 0.99 1.98 1.98 3 3 C1.68 4.32 0.36 5.64 -1 7 C-1.625 5.1875 -1.625 5.1875 -2 3 C-1.34 2.01 -0.68 1.02 0 0 Z " fill="#DCE5EB" transform="translate(288,183)"/>
<path d="M0 0 C0.66 0 1.32 0 2 0 C2.33 1.98 2.66 3.96 3 6 C1.68 5.67 0.36 5.34 -1 5 C-0.67 3.35 -0.34 1.7 0 0 Z " fill="#A0A29C" transform="translate(132,177)"/>
<path d="M0 0 C0.33 0.66 0.66 1.32 1 2 C-1.31 2 -3.62 2 -6 2 C-6.33 1.34 -6.66 0.68 -7 0 C-3.88407501 -1.03864166 -2.9737344 -1.09036928 0 0 Z " fill="#D5E7EC" transform="translate(252,122)"/>
</svg>
